<svg width="1170" height="1184" viewBox="0 0 1170 1184" fill="none" xmlns="http://www.w3.org/2000/svg">
<rect x="0.5" y="16.5" width="1169" height="1167" rx="7.5" fill="white"/>
<rect x="0.5" y="16.5" width="1169" height="1167" rx="7.5" stroke="#E5E5E5"/>
<path d="M48.02 54.62C48.02 54.94 48.1333 55.2133 48.36 55.44C48.5867 55.6533 48.86 55.76 49.18 55.76C49.5 55.76 49.7733 55.6533 50 55.44C50.2267 55.2133 50.34 54.94 50.34 54.62C50.34 54.3 50.2267 54.0267 50 53.8C49.7733 53.5733 49.5 53.46 49.18 53.46C48.86 53.46 48.5867 53.5733 48.36 53.8C48.1333 54.0267 48.02 54.3 48.02 54.62ZM46.78 54.62C46.78 54.18 46.8867 53.78 47.1 53.42C47.3267 53.0467 47.62 52.7533 47.98 52.54C48.34 52.3267 48.74 52.22 49.18 52.22C49.62 52.22 50.02 52.3267 50.38 52.54C50.74 52.7533 51.0267 53.0467 51.24 53.42C51.4667 53.78 51.58 54.18 51.58 54.62C51.58 55.0467 51.4667 55.44 51.24 55.8C51.0267 56.16 50.74 56.4533 50.38 56.68C50.02 56.8933 49.62 57 49.18 57C48.74 57 48.34 56.8933 47.98 56.68C47.62 56.4533 47.3267 56.16 47.1 55.8C46.8867 55.44 46.78 55.0467 46.78 54.62ZM35.84 62.78C36.0667 62.22 36.28 61.6333 36.48 61.02C36.6933 60.3933 36.88 59.7533 37.04 59.1C37.2 58.4333 37.34 57.7733 37.46 57.12C37.5933 56.4667 37.6867 55.82 37.74 55.18L40.66 55.78C40.6067 55.9667 40.5467 56.1867 40.48 56.44C40.4133 56.6933 40.3533 56.94 40.3 57.18C40.2467 57.42 40.2067 57.62 40.18 57.78C40.1133 58.1267 40.02 58.5467 39.9 59.04C39.78 59.5333 39.64 60.06 39.48 60.62C39.32 61.1667 39.1533 61.72 38.98 62.28C38.82 62.8267 38.6533 63.3333 38.48 63.8C38.24 64.44 37.9533 65.1067 37.62 65.8C37.3 66.4933 36.9533 67.16 36.58 67.8C36.22 68.44 35.8667 69.0133 35.52 69.52L32.72 68.34C33.36 67.5133 33.9533 66.6 34.5 65.6C35.06 64.6 35.5067 63.66 35.84 62.78ZM45.72 62.36C45.52 61.8267 45.3 61.26 45.06 60.66C44.82 60.06 44.5667 59.46 44.3 58.86C44.0333 58.26 43.7733 57.6933 43.52 57.16C43.2667 56.6267 43.0333 56.1667 42.82 55.78L45.48 54.92C45.68 55.3067 45.9133 55.7733 46.18 56.32C46.4467 56.8667 46.7133 57.4467 46.98 58.06C47.2467 58.66 47.5067 59.26 47.76 59.86C48.0133 60.46 48.24 61 48.44 61.48C48.6133 61.92 48.8 62.44 49 63.04C49.2133 63.64 49.4267 64.2667 49.64 64.92C49.8667 65.56 50.0733 66.1867 50.26 66.8C50.46 67.4133 50.6267 67.9667 50.76 68.46L47.8 69.42C47.6267 68.6333 47.4267 67.8333 47.2 67.02C46.9733 66.2067 46.7333 65.4067 46.48 64.62C46.24 63.8333 45.9867 63.08 45.72 62.36ZM53.24 61.22C55.04 60.7533 56.6667 60.2133 58.12 59.6C59.5867 58.9733 60.8733 58.32 61.98 57.64C62.6733 57.2133 63.3667 56.7267 64.06 56.18C64.7667 55.62 65.4267 55.0467 66.04 54.46C66.6667 53.8733 67.1933 53.3133 67.62 52.78L69.78 54.84C69.1667 55.44 68.4933 56.0467 67.76 56.66C67.04 57.2733 66.2867 57.86 65.5 58.42C64.7133 58.98 63.9333 59.4933 63.16 59.96C62.4 60.4 61.5467 60.8533 60.6 61.32C59.6667 61.7867 58.68 62.2267 57.64 62.64C56.6 63.0533 55.5533 63.42 54.5 63.74L53.24 61.22ZM61.56 58.92L64.4 58.26V67.26C64.4 67.5533 64.4067 67.8733 64.42 68.22C64.4333 68.5667 64.4533 68.8867 64.48 69.18C64.5067 69.4867 64.54 69.72 64.58 69.88H61.42C61.4467 69.72 61.4667 69.4867 61.48 69.18C61.5067 68.8867 61.5267 68.5667 61.54 68.22C61.5533 67.8733 61.56 67.5533 61.56 67.26V58.92ZM88.08 54.34C88.08 54.66 88.1933 54.9333 88.42 55.16C88.6467 55.3733 88.9133 55.48 89.22 55.48C89.54 55.48 89.8133 55.3733 90.04 55.16C90.2667 54.9333 90.38 54.66 90.38 54.34C90.38 54.02 90.2667 53.7467 90.04 53.52C89.8133 53.2933 89.54 53.18 89.22 53.18C88.9133 53.18 88.6467 53.2933 88.42 53.52C88.1933 53.7467 88.08 54.02 88.08 54.34ZM86.84 54.34C86.84 53.9 86.9467 53.5 87.16 53.14C87.3867 52.7667 87.68 52.4733 88.04 52.26C88.4 52.0467 88.7933 51.94 89.22 51.94C89.66 51.94 90.06 52.0467 90.42 52.26C90.7933 52.4733 91.0867 52.7667 91.3 53.14C91.5133 53.5 91.62 53.9 91.62 54.34C91.62 54.7667 91.5133 55.16 91.3 55.52C91.0867 55.88 90.7933 56.1733 90.42 56.4C90.06 56.6133 89.66 56.72 89.22 56.72C88.7933 56.72 88.4 56.6133 88.04 56.4C87.68 56.1733 87.3867 55.88 87.16 55.52C86.9467 55.16 86.84 54.7667 86.84 54.34ZM89.26 55.92C89.1667 56.1067 89.0867 56.3333 89.02 56.6C88.9533 56.8533 88.8867 57.0867 88.82 57.3C88.7133 57.7933 88.5733 58.3467 88.4 58.96C88.2267 59.56 88.02 60.1867 87.78 60.84C87.54 61.4933 87.2533 62.14 86.92 62.78C86.6 63.42 86.2333 64.02 85.82 64.58C85.22 65.38 84.52 66.1267 83.72 66.82C82.92 67.5133 82.0267 68.14 81.04 68.7C80.0533 69.26 78.9667 69.7333 77.78 70.12L75.6 67.72C76.9333 67.4 78.08 67.0067 79.04 66.54C80 66.0733 80.8333 65.54 81.54 64.94C82.26 64.34 82.8933 63.7 83.44 63.02C83.88 62.46 84.2533 61.8533 84.56 61.2C84.88 60.5467 85.14 59.8933 85.34 59.24C85.5533 58.5733 85.7 57.9533 85.78 57.38C85.58 57.38 85.2467 57.38 84.78 57.38C84.3267 57.38 83.7867 57.38 83.16 57.38C82.5467 57.38 81.9 57.38 81.22 57.38C80.5533 57.38 79.9067 57.38 79.28 57.38C78.6533 57.38 78.0867 57.38 77.58 57.38C77.0867 57.38 76.72 57.38 76.48 57.38C76.0133 57.38 75.56 57.3867 75.12 57.4C74.6933 57.4133 74.3533 57.4333 74.1 57.46V54.64C74.3 54.6667 74.54 54.6933 74.82 54.72C75.1133 54.7467 75.4067 54.7667 75.7 54.78C76.0067 54.7933 76.2667 54.8 76.48 54.8C76.6933 54.8 76.9933 54.8 77.38 54.8C77.78 54.8 78.24 54.8 78.76 54.8C79.28 54.8 79.82 54.8 80.38 54.8C80.9533 54.8 81.52 54.8 82.08 54.8C82.6533 54.8 83.1867 54.8 83.68 54.8C84.1733 54.8 84.6 54.8 84.96 54.8C85.32 54.8 85.58 54.8 85.74 54.8C85.94 54.8 86.18 54.7933 86.46 54.78C86.7533 54.7667 87.0333 54.72 87.3 54.64L89.26 55.92Z" fill="black"/>
<rect x="32.5" y="97.5" width="1105" height="507" rx="3.5" stroke="#E5E5E5"/>
<path d="M49.764 118.074C50.0533 118.083 50.324 118.093 50.576 118.102C50.8373 118.102 51.0613 118.102 51.248 118.102C51.3973 118.102 51.626 118.102 51.934 118.102C52.2513 118.102 52.62 118.102 53.04 118.102C53.46 118.102 53.908 118.102 54.384 118.102C54.86 118.102 55.336 118.102 55.812 118.102C56.2973 118.102 56.75 118.102 57.17 118.102C57.59 118.102 57.954 118.102 58.262 118.102C58.5793 118.102 58.808 118.102 58.948 118.102C59.1253 118.102 59.3353 118.102 59.578 118.102C59.83 118.093 60.082 118.083 60.334 118.074C60.3247 118.289 60.3153 118.517 60.306 118.76C60.306 118.993 60.306 119.217 60.306 119.432C60.306 119.563 60.306 119.768 60.306 120.048C60.306 120.319 60.306 120.645 60.306 121.028C60.306 121.401 60.306 121.803 60.306 122.232C60.306 122.652 60.306 123.077 60.306 123.506C60.306 123.935 60.306 124.341 60.306 124.724C60.306 125.097 60.306 125.424 60.306 125.704C60.306 125.975 60.306 126.171 60.306 126.292C60.306 126.432 60.306 126.609 60.306 126.824C60.3153 127.029 60.32 127.239 60.32 127.454C60.32 127.659 60.32 127.841 60.32 128C60.3293 128.149 60.334 128.229 60.334 128.238H58.402C58.402 128.219 58.402 128.107 58.402 127.902C58.4113 127.687 58.416 127.435 58.416 127.146C58.4253 126.857 58.43 126.586 58.43 126.334C58.43 126.213 58.43 126.007 58.43 125.718C58.43 125.429 58.43 125.088 58.43 124.696C58.43 124.304 58.43 123.889 58.43 123.45C58.43 123.011 58.43 122.582 58.43 122.162C58.43 121.742 58.43 121.359 58.43 121.014C58.43 120.669 58.43 120.393 58.43 120.188C58.43 119.983 58.43 119.88 58.43 119.88H51.668C51.668 119.88 51.668 119.983 51.668 120.188C51.668 120.393 51.668 120.669 51.668 121.014C51.668 121.35 51.668 121.733 51.668 122.162C51.668 122.582 51.668 123.011 51.668 123.45C51.668 123.879 51.668 124.295 51.668 124.696C51.668 125.088 51.668 125.429 51.668 125.718C51.668 126.007 51.668 126.213 51.668 126.334C51.668 126.502 51.668 126.693 51.668 126.908C51.668 127.113 51.668 127.314 51.668 127.51C51.6773 127.706 51.682 127.869 51.682 128C51.682 128.14 51.682 128.219 51.682 128.238H49.75C49.75 128.219 49.75 128.14 49.75 128C49.7593 127.86 49.764 127.687 49.764 127.482C49.7733 127.277 49.778 127.067 49.778 126.852C49.7873 126.637 49.792 126.446 49.792 126.278C49.792 126.157 49.792 125.961 49.792 125.69C49.792 125.41 49.792 125.079 49.792 124.696C49.792 124.313 49.792 123.912 49.792 123.492C49.792 123.063 49.792 122.633 49.792 122.204C49.792 121.775 49.792 121.373 49.792 121C49.792 120.617 49.792 120.291 49.792 120.02C49.792 119.749 49.792 119.553 49.792 119.432C49.792 119.236 49.792 119.012 49.792 118.76C49.792 118.499 49.7827 118.27 49.764 118.074ZM59.13 125.69V127.482H50.716V125.69H59.13ZM72.71 116.674C72.8873 116.935 73.0787 117.243 73.284 117.598C73.4893 117.953 73.6573 118.256 73.788 118.508L72.654 118.984C72.514 118.704 72.3507 118.396 72.164 118.06C71.9773 117.715 71.7907 117.407 71.604 117.136L72.71 116.674ZM74.53 116.282C74.6607 116.45 74.7913 116.646 74.922 116.87C75.062 117.094 75.1927 117.313 75.314 117.528C75.4447 117.743 75.5473 117.929 75.622 118.088L74.516 118.578C74.3667 118.279 74.194 117.962 73.998 117.626C73.8113 117.29 73.62 116.991 73.424 116.73L74.53 116.282ZM70.064 116.954C70.0547 117.019 70.0407 117.127 70.022 117.276C70.0033 117.425 69.9847 117.584 69.966 117.752C69.9473 117.911 69.938 118.051 69.938 118.172C69.938 118.452 69.938 118.76 69.938 119.096C69.938 119.432 69.938 119.768 69.938 120.104C69.938 120.431 69.938 120.729 69.938 121C69.938 121.187 69.938 121.448 69.938 121.784C69.938 122.12 69.938 122.498 69.938 122.918C69.938 123.338 69.938 123.777 69.938 124.234C69.938 124.682 69.938 125.121 69.938 125.55C69.938 125.97 69.938 126.353 69.938 126.698C69.938 127.034 69.938 127.3 69.938 127.496C69.938 127.897 69.8167 128.215 69.574 128.448C69.3407 128.691 68.9767 128.812 68.482 128.812C68.23 128.812 67.9733 128.807 67.712 128.798C67.4507 128.789 67.194 128.775 66.942 128.756C66.69 128.737 66.4427 128.714 66.2 128.686L66.032 126.95C66.3307 127.006 66.62 127.048 66.9 127.076C67.1893 127.104 67.418 127.118 67.586 127.118C67.7727 127.118 67.9033 127.081 67.978 127.006C68.0527 126.922 68.0947 126.791 68.104 126.614C68.104 126.53 68.104 126.348 68.104 126.068C68.1133 125.788 68.118 125.457 68.118 125.074C68.118 124.691 68.118 124.285 68.118 123.856C68.118 123.427 68.118 123.016 68.118 122.624C68.118 122.232 68.118 121.891 68.118 121.602C68.118 121.313 68.118 121.112 68.118 121C68.118 120.832 68.118 120.58 68.118 120.244C68.118 119.899 68.118 119.535 68.118 119.152C68.118 118.769 68.118 118.443 68.118 118.172C68.118 117.985 68.104 117.766 68.076 117.514C68.048 117.253 68.02 117.066 67.992 116.954H70.064ZM63.204 119.18C63.4187 119.208 63.6427 119.236 63.876 119.264C64.1093 119.283 64.338 119.292 64.562 119.292C64.674 119.292 64.898 119.292 65.234 119.292C65.5793 119.292 65.99 119.292 66.466 119.292C66.942 119.292 67.4507 119.292 67.992 119.292C68.5427 119.292 69.0933 119.292 69.644 119.292C70.204 119.292 70.722 119.292 71.198 119.292C71.6833 119.292 72.1033 119.292 72.458 119.292C72.8127 119.292 73.06 119.292 73.2 119.292C73.396 119.292 73.6247 119.283 73.886 119.264C74.1567 119.245 74.39 119.222 74.586 119.194V121.028C74.3713 121.009 74.138 121 73.886 121C73.634 120.991 73.41 120.986 73.214 120.986C73.074 120.986 72.8267 120.986 72.472 120.986C72.1267 120.986 71.7113 120.986 71.226 120.986C70.75 120.986 70.2367 120.986 69.686 120.986C69.1353 120.986 68.5847 120.986 68.034 120.986C67.4833 120.986 66.97 120.986 66.494 120.986C66.018 120.986 65.6073 120.986 65.262 120.986C64.926 120.986 64.6927 120.986 64.562 120.986C64.3567 120.986 64.128 120.991 63.876 121C63.6333 121.009 63.4093 121.023 63.204 121.042V119.18ZM66.774 122.974C66.6153 123.291 66.424 123.632 66.2 123.996C65.976 124.36 65.7333 124.724 65.472 125.088C65.22 125.452 64.9727 125.793 64.73 126.11C64.4873 126.418 64.268 126.675 64.072 126.88L62.56 125.844C62.7933 125.629 63.0313 125.377 63.274 125.088C63.526 124.789 63.7687 124.477 64.002 124.15C64.2447 123.823 64.464 123.497 64.66 123.17C64.8653 122.843 65.0427 122.531 65.192 122.232L66.774 122.974ZM72.794 122.19C72.9713 122.414 73.1673 122.68 73.382 122.988C73.606 123.296 73.83 123.627 74.054 123.982C74.278 124.327 74.488 124.668 74.684 125.004C74.88 125.331 75.048 125.62 75.188 125.872L73.536 126.768C73.3867 126.469 73.214 126.147 73.018 125.802C72.8313 125.457 72.6353 125.111 72.43 124.766C72.2247 124.421 72.0193 124.099 71.814 123.8C71.618 123.492 71.436 123.231 71.268 123.016L72.794 122.19ZM83.07 119.684C83.1353 119.833 83.2193 120.048 83.322 120.328C83.434 120.599 83.5507 120.893 83.672 121.21C83.7933 121.518 83.9007 121.812 83.994 122.092C84.0873 122.372 84.162 122.591 84.218 122.75L82.538 123.338C82.5007 123.161 82.4353 122.937 82.342 122.666C82.2487 122.395 82.146 122.111 82.034 121.812C81.922 121.504 81.81 121.21 81.698 120.93C81.586 120.65 81.488 120.417 81.404 120.23L83.07 119.684ZM88.236 120.706C88.1613 120.93 88.096 121.121 88.04 121.28C87.9933 121.439 87.9467 121.588 87.9 121.728C87.7227 122.437 87.48 123.147 87.172 123.856C86.864 124.556 86.472 125.214 85.996 125.83C85.3427 126.67 84.6007 127.384 83.77 127.972C82.9487 128.551 82.1273 128.994 81.306 129.302L79.836 127.804C80.3493 127.664 80.8907 127.459 81.46 127.188C82.0293 126.908 82.58 126.572 83.112 126.18C83.644 125.788 84.1013 125.354 84.484 124.878C84.8013 124.477 85.0813 124.019 85.324 123.506C85.576 122.983 85.7813 122.428 85.94 121.84C86.108 121.243 86.22 120.655 86.276 120.076L88.236 120.706ZM79.822 120.426C79.9153 120.603 80.018 120.832 80.13 121.112C80.2513 121.392 80.3727 121.686 80.494 121.994C80.6153 122.302 80.732 122.601 80.844 122.89C80.9653 123.179 81.0587 123.422 81.124 123.618L79.416 124.262C79.36 124.075 79.276 123.833 79.164 123.534C79.0613 123.235 78.9447 122.923 78.814 122.596C78.6833 122.26 78.5573 121.952 78.436 121.672C78.324 121.392 78.226 121.177 78.142 121.028L79.822 120.426ZM94.396 126.656C94.396 126.479 94.396 126.189 94.396 125.788C94.396 125.377 94.396 124.906 94.396 124.374C94.396 123.833 94.396 123.268 94.396 122.68C94.396 122.092 94.396 121.527 94.396 120.986C94.396 120.435 94.396 119.95 94.396 119.53C94.396 119.11 94.396 118.802 94.396 118.606C94.396 118.363 94.382 118.083 94.354 117.766C94.3353 117.449 94.3027 117.169 94.256 116.926H96.44C96.412 117.169 96.384 117.439 96.356 117.738C96.328 118.027 96.314 118.317 96.314 118.606C96.314 118.867 96.314 119.222 96.314 119.67C96.314 120.118 96.314 120.617 96.314 121.168C96.314 121.709 96.314 122.265 96.314 122.834C96.314 123.394 96.314 123.935 96.314 124.458C96.314 124.981 96.314 125.438 96.314 125.83C96.314 126.213 96.314 126.488 96.314 126.656C96.314 126.787 96.3187 126.973 96.328 127.216C96.3373 127.449 96.356 127.692 96.384 127.944C96.412 128.196 96.4307 128.42 96.44 128.616H94.256C94.2933 128.336 94.326 128.009 94.354 127.636C94.382 127.263 94.396 126.936 94.396 126.656ZM95.894 120.552C96.3607 120.673 96.8833 120.832 97.462 121.028C98.0407 121.215 98.624 121.415 99.212 121.63C99.8 121.845 100.351 122.059 100.864 122.274C101.387 122.479 101.821 122.671 102.166 122.848L101.368 124.78C100.976 124.575 100.542 124.369 100.066 124.164C99.59 123.949 99.1047 123.744 98.61 123.548C98.1247 123.352 97.644 123.17 97.168 123.002C96.7013 122.834 96.2767 122.685 95.894 122.554V120.552ZM106.548 116.73H117.314V118.242H106.548V116.73ZM105.554 116.73H107.206V120.888C107.206 121.495 107.187 122.157 107.15 122.876C107.122 123.595 107.057 124.332 106.954 125.088C106.861 125.844 106.716 126.581 106.52 127.3C106.333 128.009 106.086 128.653 105.778 129.232C105.675 129.129 105.531 129.022 105.344 128.91C105.167 128.807 104.98 128.705 104.784 128.602C104.597 128.509 104.434 128.439 104.294 128.392C104.593 127.86 104.826 127.277 104.994 126.642C105.162 125.998 105.283 125.34 105.358 124.668C105.442 123.987 105.493 123.324 105.512 122.68C105.54 122.036 105.554 121.439 105.554 120.888V116.73ZM109.782 122.442V123.254H114.556V122.442H109.782ZM109.782 120.482V121.28H114.556V120.482H109.782ZM108.144 119.222H116.292V124.514H108.144V119.222ZM111.364 123.814H112.988V127.622C112.988 127.995 112.941 128.294 112.848 128.518C112.764 128.742 112.591 128.91 112.33 129.022C112.069 129.134 111.751 129.199 111.378 129.218C111.005 129.246 110.571 129.26 110.076 129.26C110.039 129.045 109.973 128.798 109.88 128.518C109.796 128.238 109.703 127.991 109.6 127.776C109.908 127.785 110.211 127.795 110.51 127.804C110.809 127.804 111.005 127.799 111.098 127.79C111.201 127.79 111.271 127.776 111.308 127.748C111.345 127.72 111.364 127.664 111.364 127.58V123.814ZM111.084 118.116L113.1 118.256C112.997 118.611 112.895 118.942 112.792 119.25C112.699 119.549 112.619 119.805 112.554 120.02L110.818 119.838C110.855 119.67 110.888 119.483 110.916 119.278C110.953 119.073 110.986 118.872 111.014 118.676C111.051 118.471 111.075 118.284 111.084 118.116ZM113.674 125.69L114.962 124.892C115.27 125.153 115.592 125.447 115.928 125.774C116.264 126.101 116.577 126.427 116.866 126.754C117.165 127.071 117.398 127.37 117.566 127.65L116.18 128.532C116.031 128.261 115.816 127.963 115.536 127.636C115.256 127.3 114.953 126.964 114.626 126.628C114.309 126.283 113.991 125.97 113.674 125.69ZM108.998 124.962L110.622 125.41C110.295 126.026 109.885 126.623 109.39 127.202C108.905 127.771 108.415 128.247 107.92 128.63C107.808 128.537 107.668 128.425 107.5 128.294C107.341 128.173 107.173 128.056 106.996 127.944C106.819 127.823 106.665 127.725 106.534 127.65C107.038 127.342 107.509 126.95 107.948 126.474C108.387 125.989 108.737 125.485 108.998 124.962ZM124.076 116.1H125.784V120.972H124.076V116.1ZM121.752 121.784V123.59H128.178V121.784H121.752ZM120.142 120.23H129.9V125.144H120.142V120.23ZM124.874 117.346H130.824V118.914H124.874V117.346ZM122.466 126.208L124.062 126.054C124.137 126.362 124.202 126.698 124.258 127.062C124.314 127.417 124.361 127.757 124.398 128.084C124.435 128.411 124.454 128.7 124.454 128.952L122.76 129.162C122.76 128.919 122.746 128.625 122.718 128.28C122.699 127.944 122.667 127.594 122.62 127.23C122.583 126.866 122.531 126.525 122.466 126.208ZM125.35 126.222L126.89 125.872C127.03 126.171 127.17 126.493 127.31 126.838C127.459 127.174 127.59 127.501 127.702 127.818C127.814 128.135 127.898 128.42 127.954 128.672L126.316 129.092C126.269 128.849 126.195 128.56 126.092 128.224C125.999 127.888 125.887 127.547 125.756 127.202C125.625 126.847 125.49 126.521 125.35 126.222ZM128.206 126.138L129.704 125.592C129.937 125.881 130.171 126.203 130.404 126.558C130.647 126.913 130.871 127.263 131.076 127.608C131.281 127.944 131.44 128.252 131.552 128.532L129.928 129.162C129.825 128.891 129.681 128.579 129.494 128.224C129.307 127.879 129.097 127.524 128.864 127.16C128.64 126.787 128.421 126.446 128.206 126.138ZM120.17 125.69L121.78 126.11C121.584 126.661 121.323 127.221 120.996 127.79C120.669 128.359 120.324 128.831 119.96 129.204L118.406 128.448C118.751 128.14 119.083 127.734 119.4 127.23C119.717 126.726 119.974 126.213 120.17 125.69ZM137.922 120.734V121.952H139.168V120.734H137.922ZM137.922 123.198V124.43H139.168V123.198H137.922ZM137.922 118.284V119.488H139.168V118.284H137.922ZM136.522 116.94H140.638V125.76H136.522V116.94ZM138.762 126.474L139.952 125.816C140.195 126.18 140.433 126.581 140.666 127.02C140.909 127.459 141.086 127.837 141.198 128.154L139.924 128.91C139.859 128.695 139.761 128.448 139.63 128.168C139.509 127.888 139.369 127.599 139.21 127.3C139.061 127.001 138.911 126.726 138.762 126.474ZM141.38 117.654H142.822V126.026H141.38V117.654ZM143.662 116.324H145.188V127.398C145.188 127.809 145.141 128.131 145.048 128.364C144.964 128.607 144.805 128.789 144.572 128.91C144.339 129.05 144.045 129.139 143.69 129.176C143.335 129.223 142.911 129.246 142.416 129.246C142.388 129.022 142.327 128.756 142.234 128.448C142.15 128.14 142.057 127.874 141.954 127.65C142.271 127.659 142.565 127.664 142.836 127.664C143.107 127.664 143.289 127.664 143.382 127.664C143.485 127.664 143.555 127.645 143.592 127.608C143.639 127.561 143.662 127.491 143.662 127.398V116.324ZM137.222 125.802L138.566 126.53C138.426 126.829 138.249 127.146 138.034 127.482C137.829 127.809 137.614 128.121 137.39 128.42C137.166 128.728 136.947 128.989 136.732 129.204C136.592 129.073 136.405 128.919 136.172 128.742C135.948 128.565 135.743 128.415 135.556 128.294C135.78 128.089 135.995 127.846 136.2 127.566C136.415 127.277 136.611 126.978 136.788 126.67C136.965 126.353 137.11 126.063 137.222 125.802ZM134.94 116.128L136.494 116.59C136.233 117.402 135.915 118.223 135.542 119.054C135.178 119.885 134.777 120.673 134.338 121.42C133.899 122.157 133.442 122.806 132.966 123.366C132.929 123.235 132.863 123.053 132.77 122.82C132.677 122.587 132.574 122.353 132.462 122.12C132.35 121.887 132.252 121.695 132.168 121.546C132.541 121.107 132.901 120.599 133.246 120.02C133.601 119.441 133.923 118.821 134.212 118.158C134.501 117.486 134.744 116.809 134.94 116.128ZM133.82 119.978L135.374 118.424L135.416 118.452V129.246H133.82V119.978Z" fill="black"/>
<rect width="138" height="24" transform="translate(48 149)" fill="white"/>
<path d="M56.1477 166.489L49.358 159.71L50.8466 158.205L57.642 164.994L56.1477 166.489ZM50.8466 166.489L49.358 164.994L56.1477 158.205L57.642 159.71L50.8466 166.489Z" fill="#E11F21"/>
<path d="M67.8565 160.222V162.142H62.5497V160.222H67.8565ZM71.4276 155.364L73.7741 159.33H73.8651L76.223 155.364H79.0014L75.4503 161.182L79.081 167H76.2514L73.8651 163.028H73.7741L71.3878 167H68.5696L72.2116 161.182L68.6378 155.364H71.4276Z" fill="#E11F21"/>
<path d="M101.333 167.636L100.015 166.33L103.475 162.869H95.3672V160.949H103.475L100.015 157.494L101.333 156.182L107.06 161.909L101.333 167.636Z" fill="#00A442"/>
<path d="M115.436 165.227V157.182H117.47V165.227H115.436ZM112.43 162.222V160.188H120.476V162.222H112.43ZM121.72 155.364H124.476L127.129 160.375H127.243L129.896 155.364H132.652L128.408 162.886V167H125.964V162.886L121.72 155.364Z" fill="#00A442"/>
<path d="M153.043 167V158.881L150.015 161.92L148.685 160.602L154.004 155.295L159.31 160.602L158.004 161.92L154.964 158.881V167H153.043Z" fill="#4159F8"/>
<path d="M168.647 165.227V157.182H170.681V165.227H168.647ZM165.641 162.222V160.188H173.687V162.222H165.641ZM175.988 167V165.54L181.795 157.392H175.977V155.364H184.886V156.824L179.073 164.972H184.897V167H175.988Z" fill="#4159F8"/>
<rect x="202" y="515" width="76" height="74" fill="#5C5C5C"/>
<rect x="238" y="194" width="40" height="321" fill="#858585"/>
<rect x="48.5" y="588.5" width="343" height="139" transform="rotate(-90 48.5 588.5)" fill="#D6DDE8" fill-opacity="0.5" stroke="#9CA3AF" stroke-dasharray="2 2"/>
<rect x="312.5" y="245.5" width="134" height="343" fill="#FDDDB7" fill-opacity="0.5" stroke="#9CA3AF" stroke-dasharray="2 2"/>
<path d="M373.814 422H370.205V411.818H373.844C374.868 411.818 375.75 412.022 376.489 412.43C377.228 412.834 377.796 413.416 378.194 414.175C378.595 414.934 378.796 415.842 378.796 416.899C378.796 417.96 378.595 418.871 378.194 419.634C377.796 420.396 377.225 420.981 376.479 421.388C375.736 421.796 374.848 422 373.814 422ZM372.357 420.156H373.725C374.361 420.156 374.896 420.043 375.33 419.817C375.768 419.589 376.096 419.236 376.315 418.759C376.537 418.278 376.648 417.658 376.648 416.899C376.648 416.147 376.537 415.532 376.315 415.055C376.096 414.577 375.77 414.226 375.335 414.001C374.901 413.775 374.366 413.663 373.73 413.663H372.357V420.156ZM385.914 414.746C385.874 414.345 385.703 414.034 385.402 413.812C385.1 413.59 384.691 413.479 384.174 413.479C383.822 413.479 383.526 413.528 383.284 413.628C383.042 413.724 382.856 413.858 382.727 414.031C382.601 414.203 382.538 414.398 382.538 414.617C382.531 414.799 382.57 414.959 382.652 415.094C382.739 415.23 382.856 415.348 383.005 415.447C383.155 415.544 383.327 415.628 383.522 415.701C383.718 415.771 383.927 415.83 384.149 415.88L385.064 416.099C385.508 416.198 385.915 416.331 386.287 416.496C386.658 416.662 386.979 416.866 387.251 417.108C387.523 417.35 387.733 417.635 387.883 417.963C388.035 418.291 388.113 418.667 388.116 419.092C388.113 419.715 387.954 420.255 387.639 420.712C387.327 421.166 386.877 421.519 386.287 421.771C385.7 422.02 384.992 422.144 384.164 422.144C383.342 422.144 382.626 422.018 382.016 421.766C381.409 421.514 380.936 421.142 380.594 420.648C380.256 420.151 380.079 419.536 380.062 418.803H382.145C382.168 419.145 382.266 419.43 382.439 419.658C382.614 419.884 382.848 420.054 383.14 420.17C383.435 420.283 383.768 420.339 384.139 420.339C384.503 420.339 384.82 420.286 385.088 420.18C385.36 420.074 385.571 419.927 385.72 419.738C385.869 419.549 385.944 419.332 385.944 419.087C385.944 418.858 385.876 418.666 385.74 418.51C385.607 418.354 385.412 418.222 385.153 418.112C384.898 418.003 384.585 417.903 384.213 417.814L383.105 417.536C382.246 417.327 381.569 417 381.071 416.556C380.574 416.112 380.327 415.514 380.331 414.761C380.327 414.145 380.491 413.606 380.823 413.146C381.158 412.685 381.617 412.325 382.2 412.067C382.783 411.808 383.446 411.679 384.189 411.679C384.944 411.679 385.604 411.808 386.167 412.067C386.734 412.325 387.175 412.685 387.49 413.146C387.805 413.606 387.967 414.14 387.977 414.746H385.914Z" fill="black"/>
<path d="M115.234 414.746C115.194 414.345 115.024 414.034 114.722 413.812C114.42 413.59 114.011 413.479 113.494 413.479C113.143 413.479 112.846 413.528 112.604 413.628C112.362 413.724 112.177 413.858 112.047 414.031C111.921 414.203 111.858 414.398 111.858 414.617C111.852 414.799 111.89 414.959 111.973 415.094C112.059 415.23 112.177 415.348 112.326 415.447C112.475 415.544 112.647 415.628 112.843 415.701C113.038 415.771 113.247 415.83 113.469 415.88L114.384 416.099C114.828 416.198 115.236 416.331 115.607 416.496C115.978 416.662 116.3 416.866 116.571 417.108C116.843 417.35 117.054 417.635 117.203 417.963C117.355 418.291 117.433 418.667 117.436 419.092C117.433 419.715 117.274 420.255 116.959 420.712C116.648 421.166 116.197 421.519 115.607 421.771C115.02 422.02 114.313 422.144 113.484 422.144C112.662 422.144 111.946 422.018 111.336 421.766C110.73 421.514 110.256 421.142 109.914 420.648C109.576 420.151 109.399 419.536 109.383 418.803H111.466C111.489 419.145 111.587 419.43 111.759 419.658C111.935 419.884 112.168 420.054 112.46 420.17C112.755 420.283 113.088 420.339 113.459 420.339C113.824 420.339 114.14 420.286 114.409 420.18C114.681 420.074 114.891 419.927 115.04 419.738C115.189 419.549 115.264 419.332 115.264 419.087C115.264 418.858 115.196 418.666 115.06 418.51C114.927 418.354 114.732 418.222 114.473 418.112C114.218 418.003 113.905 417.903 113.534 417.814L112.425 417.536C111.567 417.327 110.889 417 110.392 416.556C109.895 416.112 109.648 415.514 109.651 414.761C109.648 414.145 109.812 413.606 110.143 413.146C110.478 412.685 110.937 412.325 111.52 412.067C112.104 411.808 112.766 411.679 113.509 411.679C114.265 411.679 114.924 411.808 115.488 412.067C116.054 412.325 116.495 412.685 116.81 413.146C117.125 413.606 117.287 414.14 117.297 414.746H115.234ZM124.408 414.746C124.368 414.345 124.197 414.034 123.896 413.812C123.594 413.59 123.185 413.479 122.668 413.479C122.317 413.479 122.02 413.528 121.778 413.628C121.536 413.724 121.35 413.858 121.221 414.031C121.095 414.203 121.032 414.398 121.032 414.617C121.026 414.799 121.064 414.959 121.147 415.094C121.233 415.23 121.35 415.348 121.5 415.447C121.649 415.544 121.821 415.628 122.017 415.701C122.212 415.771 122.421 415.83 122.643 415.88L123.558 416.099C124.002 416.198 124.41 416.331 124.781 416.496C125.152 416.662 125.473 416.866 125.745 417.108C126.017 417.35 126.227 417.635 126.377 417.963C126.529 418.291 126.607 418.667 126.61 419.092C126.607 419.715 126.448 420.255 126.133 420.712C125.821 421.166 125.371 421.519 124.781 421.771C124.194 422.02 123.486 422.144 122.658 422.144C121.836 422.144 121.12 422.018 120.51 421.766C119.904 421.514 119.43 421.142 119.088 420.648C118.75 420.151 118.573 419.536 118.556 418.803H120.639C120.663 419.145 120.76 419.43 120.933 419.658C121.108 419.884 121.342 420.054 121.634 420.17C121.929 420.283 122.262 420.339 122.633 420.339C122.998 420.339 123.314 420.286 123.583 420.18C123.854 420.074 124.065 419.927 124.214 419.738C124.363 419.549 124.438 419.332 124.438 419.087C124.438 418.858 124.37 418.666 124.234 418.51C124.101 418.354 123.906 418.222 123.647 418.112C123.392 418.003 123.079 417.903 122.708 417.814L121.599 417.536C120.741 417.327 120.063 417 119.566 416.556C119.068 416.112 118.821 415.514 118.825 414.761C118.821 414.145 118.986 413.606 119.317 413.146C119.652 412.685 120.111 412.325 120.694 412.067C121.277 411.808 121.94 411.679 122.683 411.679C123.438 411.679 124.098 411.808 124.661 412.067C125.228 412.325 125.669 412.685 125.984 413.146C126.299 413.606 126.461 414.14 126.471 414.746H124.408Z" fill="#773710"/>
<circle cx="324" cy="589" r="4" fill="#FF8308"/>
<rect x="496" y="589" width="1.00001" height="440" transform="rotate(-180 496 589)" fill="#D1D5DB"/>
<path d="M552.333 167.636L551.014 166.33L554.475 162.869H546.367V160.949H554.475L551.014 157.494L552.333 156.182L558.06 161.909L552.333 167.636Z" fill="#E11F21"/>
<path d="M566.686 165.227V157.182H568.72V165.227H566.686ZM563.68 162.222V160.188H571.725V162.222H563.68ZM575.615 155.364L577.961 159.33H578.052L580.41 155.364H583.188L579.637 161.182L583.268 167H580.438L578.052 163.028H577.961L575.575 167H572.757L576.399 161.182L572.825 155.364H575.615Z" fill="#E11F21"/>
<path d="M605.147 166.489L598.357 159.71L599.846 158.205L606.642 164.994L605.147 166.489ZM599.846 166.489L598.357 164.994L605.147 158.205L606.642 159.71L599.846 166.489Z" fill="#00A442"/>
<path d="M614.436 165.227V157.182H616.47V165.227H614.436ZM611.43 162.222V160.188H619.475V162.222H611.43ZM620.72 155.364H623.475L626.129 160.375H626.242L628.896 155.364H631.652L627.407 162.886V167H624.964V162.886L620.72 155.364Z" fill="#00A442"/>
<path d="M652.043 167V158.881L649.014 161.92L647.685 160.602L653.003 155.295L658.31 160.602L657.003 161.92L653.963 158.881V167H652.043Z" fill="#4159F8"/>
<path d="M667.647 165.227V157.182H669.681V165.227H667.647ZM664.641 162.222V160.188H672.686V162.222H664.641ZM674.987 167V165.54L680.794 157.392H674.976V155.364H683.885V156.824L678.073 164.972H683.897V167H674.987Z" fill="#4159F8"/>
<rect x="557" y="515" width="30" height="74" fill="#5C5C5C"/>
<rect x="557" y="194" width="15" height="321" fill="#858585"/>
<rect x="544" y="194" width="13" height="395" fill="#E4E4E7"/>
<line x1="48" y1="588.5" x2="447" y2="588.5" stroke="#6B7280"/>
<line x1="544" y1="588.5" x2="605" y2="588.5" stroke="#6B7280"/>
<line x1="323.5" y1="585" x2="323.5" y2="246" stroke="#9CA3AF"/>
<rect x="32.5" y="637.5" width="1105" height="507" stroke="#E5E5E5"/>
<path d="M51.024 656.828H60.824V658.494H51.024V656.828ZM51.22 660.468H58.794V662.092H51.22V660.468ZM50.17 656.828H51.85V660.748C51.85 661.364 51.8267 662.041 51.78 662.778C51.7427 663.515 51.654 664.271 51.514 665.046C51.3833 665.821 51.1873 666.567 50.926 667.286C50.674 668.005 50.3427 668.653 49.932 669.232C49.8293 669.129 49.6893 669.013 49.512 668.882C49.344 668.751 49.1667 668.625 48.98 668.504C48.7933 668.392 48.6347 668.303 48.504 668.238C48.8867 667.706 49.19 667.123 49.414 666.488C49.638 665.853 49.806 665.205 49.918 664.542C50.03 663.87 50.1 663.212 50.128 662.568C50.156 661.915 50.17 661.308 50.17 660.748V656.828ZM58.346 660.468H58.682L58.99 660.398L60.18 660.874C59.8907 662.05 59.494 663.091 58.99 663.996C58.486 664.892 57.8887 665.681 57.198 666.362C56.5073 667.034 55.7327 667.603 54.874 668.07C54.0247 668.546 53.1007 668.943 52.102 669.26C52.0273 669.101 51.934 668.924 51.822 668.728C51.7193 668.541 51.6027 668.355 51.472 668.168C51.3507 667.981 51.234 667.827 51.122 667.706C52.018 667.482 52.8533 667.169 53.628 666.768C54.412 666.357 55.1167 665.863 55.742 665.284C56.3767 664.705 56.9133 664.043 57.352 663.296C57.8 662.54 58.1313 661.7 58.346 660.776V660.468ZM53.866 661.378C54.426 663.011 55.322 664.365 56.554 665.438C57.786 666.511 59.4007 667.263 61.398 667.692C61.2673 667.813 61.1273 667.967 60.978 668.154C60.838 668.341 60.7027 668.532 60.572 668.728C60.4507 668.924 60.348 669.101 60.264 669.26C58.8547 668.896 57.6367 668.383 56.61 667.72C55.5927 667.057 54.7293 666.236 54.02 665.256C53.32 664.267 52.732 663.123 52.256 661.826L53.866 661.378ZM68.846 659.222H75.538V660.832H68.846V659.222ZM62.644 658.27H69.308V659.824H62.644V658.27ZM72.374 656.1H74.04V667.16C74.04 667.636 73.9887 668.005 73.886 668.266C73.7833 668.537 73.5967 668.742 73.326 668.882C73.0553 669.031 72.71 669.129 72.29 669.176C71.87 669.223 71.366 669.246 70.778 669.246C70.7687 669.078 70.736 668.887 70.68 668.672C70.624 668.457 70.5587 668.238 70.484 668.014C70.4093 667.799 70.3347 667.608 70.26 667.44C70.652 667.459 71.016 667.468 71.352 667.468C71.688 667.468 71.9167 667.468 72.038 667.468C72.1593 667.468 72.2433 667.449 72.29 667.412C72.346 667.365 72.374 667.281 72.374 667.16V656.1ZM68.706 662.596L70.05 661.952C70.274 662.26 70.4887 662.591 70.694 662.946C70.9087 663.301 71.0953 663.651 71.254 663.996C71.4127 664.332 71.5293 664.645 71.604 664.934L70.148 665.662C70.0827 665.391 69.9753 665.079 69.826 664.724C69.686 664.369 69.518 664.005 69.322 663.632C69.126 663.259 68.9207 662.913 68.706 662.596ZM62.91 661.798L64.1 660.832C64.5107 661.28 64.9353 661.756 65.374 662.26C65.8127 662.764 66.2373 663.277 66.648 663.8C67.068 664.323 67.4413 664.831 67.768 665.326C68.0947 665.811 68.3607 666.264 68.566 666.684L67.236 667.832C67.0493 667.412 66.7973 666.95 66.48 666.446C66.1627 665.942 65.8033 665.419 65.402 664.878C65.01 664.337 64.5993 663.805 64.17 663.282C63.75 662.75 63.33 662.255 62.91 661.798ZM65.094 656.114H66.704V659.222H65.094V656.114ZM66.62 660.104L68.258 660.328C68.0247 661.681 67.698 662.913 67.278 664.024C66.858 665.125 66.3307 666.105 65.696 666.964C65.0613 667.813 64.2913 668.541 63.386 669.148C63.3207 669.036 63.218 668.896 63.078 668.728C62.9473 668.56 62.8073 668.392 62.658 668.224C62.5087 668.065 62.3733 667.935 62.252 667.832C63.1107 667.337 63.8293 666.717 64.408 665.97C64.9867 665.214 65.4533 664.346 65.808 663.366C66.172 662.386 66.4427 661.299 66.62 660.104ZM81.922 660.734V661.952H83.168V660.734H81.922ZM81.922 663.198V664.43H83.168V663.198H81.922ZM81.922 658.284V659.488H83.168V658.284H81.922ZM80.522 656.94H84.638V665.76H80.522V656.94ZM82.762 666.474L83.952 665.816C84.1947 666.18 84.4327 666.581 84.666 667.02C84.9087 667.459 85.086 667.837 85.198 668.154L83.924 668.91C83.8587 668.695 83.7607 668.448 83.63 668.168C83.5087 667.888 83.3687 667.599 83.21 667.3C83.0607 667.001 82.9113 666.726 82.762 666.474ZM85.38 657.654H86.822V666.026H85.38V657.654ZM87.662 656.324H89.188V667.398C89.188 667.809 89.1413 668.131 89.048 668.364C88.964 668.607 88.8053 668.789 88.572 668.91C88.3387 669.05 88.0447 669.139 87.69 669.176C87.3353 669.223 86.9107 669.246 86.416 669.246C86.388 669.022 86.3273 668.756 86.234 668.448C86.15 668.14 86.0567 667.874 85.954 667.65C86.2713 667.659 86.5653 667.664 86.836 667.664C87.1067 667.664 87.2887 667.664 87.382 667.664C87.4847 667.664 87.5547 667.645 87.592 667.608C87.6387 667.561 87.662 667.491 87.662 667.398V656.324ZM81.222 665.802L82.566 666.53C82.426 666.829 82.2487 667.146 82.034 667.482C81.8287 667.809 81.614 668.121 81.39 668.42C81.166 668.728 80.9467 668.989 80.732 669.204C80.592 669.073 80.4053 668.919 80.172 668.742C79.948 668.565 79.7427 668.415 79.556 668.294C79.78 668.089 79.9947 667.846 80.2 667.566C80.4147 667.277 80.6107 666.978 80.788 666.67C80.9653 666.353 81.11 666.063 81.222 665.802ZM78.94 656.128L80.494 656.59C80.2327 657.402 79.9153 658.223 79.542 659.054C79.178 659.885 78.7767 660.673 78.338 661.42C77.8993 662.157 77.442 662.806 76.966 663.366C76.9287 663.235 76.8633 663.053 76.77 662.82C76.6767 662.587 76.574 662.353 76.462 662.12C76.35 661.887 76.252 661.695 76.168 661.546C76.5413 661.107 76.9007 660.599 77.246 660.02C77.6007 659.441 77.9227 658.821 78.212 658.158C78.5013 657.486 78.744 656.809 78.94 656.128ZM77.82 659.978L79.374 658.424L79.416 658.452V669.246H77.82V659.978Z" fill="black"/>
<path d="M56.1477 706.489L49.358 699.71L50.8466 698.205L57.642 704.994L56.1477 706.489ZM50.8466 706.489L49.358 704.994L56.1477 698.205L57.642 699.71L50.8466 706.489Z" fill="#E11F21"/>
<path d="M65.6861 705.227V697.182H67.7202V705.227H65.6861ZM62.6804 702.222V700.188H70.7259V702.222H62.6804ZM74.6151 695.364L76.9616 699.33H77.0526L79.4105 695.364H82.1889L78.6378 701.182L82.2685 707H79.4389L77.0526 703.028H76.9616L74.5753 707H71.7571L75.3991 701.182L71.8253 695.364H74.6151Z" fill="#E11F21"/>
<path d="M103.667 694.364L104.985 695.67L101.525 699.131L109.633 699.131L109.633 701.051L101.525 701.051L104.985 704.506L103.667 705.818L97.9396 700.091L103.667 694.364Z" fill="#00A442"/>
<path d="M118.436 705.227V697.182H120.47V705.227H118.436ZM115.43 702.222V700.188H123.476V702.222H115.43ZM124.72 695.364H127.476L130.129 700.375H130.243L132.896 695.364H135.652L131.408 702.886V707H128.964V702.886L124.72 695.364Z" fill="#00A442"/>
<path d="M156.043 707V698.881L153.015 701.92L151.685 700.602L157.004 695.295L162.31 700.602L161.004 701.92L157.964 698.881V707H156.043Z" fill="#4159F8"/>
<path d="M171.647 705.227V697.182H173.681V705.227H171.647ZM168.641 702.222V700.188H176.687V702.222H168.641ZM178.988 707V705.54L184.795 697.392H178.977V695.364H187.886V696.824L182.073 704.972H187.897V707H178.988Z" fill="#4159F8"/>
<rect x="214" y="734" width="40" height="321" fill="#858585"/>
<rect x="214" y="1055" width="76" height="74" fill="#5C5C5C"/>
<rect x="48.5" y="785.5" width="134" height="343" fill="#FDDDB7" fill-opacity="0.5" stroke="#9CA3AF" stroke-dasharray="2 2"/>
<path d="M112.814 962H109.204V951.818H112.843C113.868 951.818 114.749 952.022 115.488 952.43C116.227 952.834 116.796 953.416 117.194 954.175C117.595 954.934 117.795 955.842 117.795 956.899C117.795 957.96 117.595 958.871 117.194 959.634C116.796 960.396 116.224 960.981 115.478 961.388C114.736 961.796 113.848 962 112.814 962ZM111.357 960.156H112.724C113.361 960.156 113.896 960.043 114.33 959.817C114.767 959.589 115.096 959.236 115.314 958.759C115.536 958.278 115.647 957.658 115.647 956.899C115.647 956.147 115.536 955.532 115.314 955.055C115.096 954.577 114.769 954.226 114.335 954.001C113.901 953.775 113.366 953.663 112.729 953.663H111.357V960.156ZM124.913 954.746C124.873 954.345 124.703 954.034 124.401 953.812C124.1 953.59 123.69 953.479 123.173 953.479C122.822 953.479 122.525 953.528 122.283 953.628C122.041 953.724 121.856 953.858 121.726 954.031C121.601 954.203 121.538 954.398 121.538 954.617C121.531 954.799 121.569 954.959 121.652 955.094C121.738 955.23 121.856 955.348 122.005 955.447C122.154 955.544 122.326 955.628 122.522 955.701C122.717 955.771 122.926 955.83 123.148 955.88L124.063 956.099C124.507 956.198 124.915 956.331 125.286 956.496C125.657 956.662 125.979 956.866 126.251 957.108C126.522 957.35 126.733 957.635 126.882 957.963C127.034 958.291 127.112 958.667 127.116 959.092C127.112 959.715 126.953 960.255 126.638 960.712C126.327 961.166 125.876 961.519 125.286 961.771C124.699 962.02 123.992 962.144 123.163 962.144C122.341 962.144 121.625 962.018 121.016 961.766C120.409 961.514 119.935 961.142 119.594 960.648C119.256 960.151 119.078 959.536 119.062 958.803H121.145C121.168 959.145 121.266 959.43 121.438 959.658C121.614 959.884 121.847 960.054 122.139 960.17C122.434 960.283 122.767 960.339 123.138 960.339C123.503 960.339 123.82 960.286 124.088 960.18C124.36 960.074 124.57 959.927 124.719 959.738C124.869 959.549 124.943 959.332 124.943 959.087C124.943 958.858 124.875 958.666 124.739 958.51C124.607 958.354 124.411 958.222 124.153 958.112C123.897 958.003 123.584 957.903 123.213 957.814L122.104 957.536C121.246 957.327 120.568 957 120.071 956.556C119.574 956.112 119.327 955.514 119.33 954.761C119.327 954.145 119.491 953.606 119.822 953.146C120.157 952.685 120.616 952.325 121.199 952.067C121.783 951.808 122.446 951.679 123.188 951.679C123.944 951.679 124.603 951.808 125.167 952.067C125.734 952.325 126.174 952.685 126.489 953.146C126.804 953.606 126.967 954.14 126.976 954.746H124.913Z" fill="black"/>
<rect x="312.499" y="1128.5" width="343" height="139" transform="rotate(-90 312.499 1128.5)" fill="#D6DDE8" fill-opacity="0.5" stroke="#9CA3AF" stroke-dasharray="2 2"/>
<path d="M376.234 954.746C376.194 954.345 376.023 954.034 375.722 953.812C375.42 953.59 375.011 953.479 374.494 953.479C374.142 953.479 373.846 953.528 373.604 953.628C373.362 953.724 373.176 953.858 373.047 954.031C372.921 954.203 372.858 954.398 372.858 954.617C372.851 954.799 372.889 954.959 372.972 955.094C373.058 955.23 373.176 955.348 373.325 955.447C373.474 955.544 373.647 955.628 373.842 955.701C374.038 955.771 374.247 955.83 374.469 955.88L375.383 956.099C375.828 956.198 376.235 956.331 376.606 956.496C376.978 956.662 377.299 956.866 377.571 957.108C377.843 957.35 378.053 957.635 378.202 957.963C378.355 958.291 378.433 958.667 378.436 959.092C378.433 959.715 378.274 960.255 377.959 960.712C377.647 961.166 377.196 961.519 376.606 961.771C376.02 962.02 375.312 962.144 374.484 962.144C373.662 962.144 372.946 962.018 372.336 961.766C371.729 961.514 371.255 961.142 370.914 960.648C370.576 960.151 370.399 959.536 370.382 958.803H372.465C372.488 959.145 372.586 959.43 372.758 959.658C372.934 959.884 373.168 960.054 373.459 960.17C373.754 960.283 374.088 960.339 374.459 960.339C374.823 960.339 375.14 960.286 375.408 960.18C375.68 960.074 375.891 959.927 376.04 959.738C376.189 959.549 376.263 959.332 376.263 959.087C376.263 958.858 376.195 958.666 376.06 958.51C375.927 958.354 375.731 958.222 375.473 958.112C375.218 958.003 374.905 957.903 374.533 957.814L373.425 957.536C372.566 957.327 371.888 957 371.391 956.556C370.894 956.112 370.647 955.514 370.65 954.761C370.647 954.145 370.811 953.606 371.143 953.146C371.477 952.685 371.936 952.325 372.52 952.067C373.103 951.808 373.766 951.679 374.508 951.679C375.264 951.679 375.924 951.808 376.487 952.067C377.054 952.325 377.495 952.685 377.81 953.146C378.124 953.606 378.287 954.14 378.297 954.746H376.234ZM385.407 954.746C385.368 954.345 385.197 954.034 384.895 953.812C384.594 953.59 384.184 953.479 383.667 953.479C383.316 953.479 383.019 953.528 382.777 953.628C382.535 953.724 382.35 953.858 382.221 954.031C382.095 954.203 382.032 954.398 382.032 954.617C382.025 954.799 382.063 954.959 382.146 955.094C382.232 955.23 382.35 955.348 382.499 955.447C382.648 955.544 382.821 955.628 383.016 955.701C383.212 955.771 383.42 955.83 383.642 955.88L384.557 956.099C385.001 956.198 385.409 956.331 385.78 956.496C386.151 956.662 386.473 956.866 386.745 957.108C387.017 957.35 387.227 957.635 387.376 957.963C387.529 958.291 387.607 958.667 387.61 959.092C387.607 959.715 387.447 960.255 387.133 960.712C386.821 961.166 386.37 961.519 385.78 961.771C385.194 962.02 384.486 962.144 383.657 962.144C382.835 962.144 382.12 962.018 381.51 961.766C380.903 961.514 380.429 961.142 380.088 960.648C379.75 960.151 379.572 959.536 379.556 958.803H381.639C381.662 959.145 381.76 959.43 381.932 959.658C382.108 959.884 382.342 960.054 382.633 960.17C382.928 960.283 383.261 960.339 383.633 960.339C383.997 960.339 384.314 960.286 384.582 960.18C384.854 960.074 385.064 959.927 385.214 959.738C385.363 959.549 385.437 959.332 385.437 959.087C385.437 958.858 385.369 958.666 385.233 958.51C385.101 958.354 384.905 958.222 384.647 958.112C384.392 958.003 384.078 957.903 383.707 957.814L382.598 957.536C381.74 957.327 381.062 957 380.565 956.556C380.068 956.112 379.821 955.514 379.824 954.761C379.821 954.145 379.985 953.606 380.316 953.146C380.651 952.685 381.11 952.325 381.694 952.067C382.277 951.808 382.94 951.679 383.682 951.679C384.438 951.679 385.098 951.808 385.661 952.067C386.228 952.325 386.669 952.685 386.983 953.146C387.298 953.606 387.461 954.14 387.471 954.746H385.407Z" fill="#773710"/>
<line x1="171.5" y1="1125" x2="171.5" y2="786" stroke="#9CA3AF"/>
<rect x="500.999" y="1129" width="1.00001" height="440" transform="rotate(-180 500.999 1129)" fill="#D1D5DB"/>
<path d="M556.666 694.364L557.984 695.67L554.524 699.131L562.632 699.131L562.632 701.051L554.524 701.051L557.984 704.506L556.666 705.818L550.939 700.091L556.666 694.364Z" fill="#E11F21"/>
<path d="M573.856 700.222V702.142H568.549V700.222H573.856ZM577.427 695.364L579.773 699.33H579.864L582.222 695.364H585L581.449 701.182L585.08 707H582.25L579.864 703.028H579.773L577.387 707H574.569L578.211 701.182L574.637 695.364H577.427Z" fill="#E11F21"/>
<path d="M607.147 706.489L600.357 699.71L601.846 698.205L608.641 704.994L607.147 706.489ZM601.846 706.489L600.357 704.994L607.147 698.205L608.641 699.71L601.846 706.489Z" fill="#00A442"/>
<path d="M616.435 705.227V697.182H618.469V705.227H616.435ZM613.429 702.222V700.188H621.475V702.222H613.429ZM622.719 695.364H625.475L628.128 700.375H628.242L630.895 695.364H633.651L629.407 702.886V707H626.964V702.886L622.719 695.364Z" fill="#00A442"/>
<path d="M654.042 707V698.881L651.014 701.92L649.684 700.602L655.003 695.295L660.309 700.602L659.003 701.92L655.963 698.881V707H654.042Z" fill="#4159F8"/>
<path d="M669.646 705.227V697.182H671.68V705.227H669.646ZM666.64 702.222V700.188H674.686V702.222H666.64ZM676.987 707V705.54L682.794 697.392H676.976V695.364H685.885V696.824L680.072 704.972H685.896V707H676.987Z" fill="#4159F8"/>
<rect x="548.999" y="1055" width="30" height="74" fill="#5C5C5C"/>
<rect x="563.999" y="734" width="15" height="321" fill="#858585"/>
<rect x="578.998" y="734" width="13" height="395" fill="#E4E4E7"/>
<circle cx="172" cy="1129" r="4" fill="#FF8308"/>
<line x1="48" y1="1128.5" x2="452" y2="1128.5" stroke="#6B7280"/>
<line x1="531" y1="1128.5" x2="592" y2="1128.5" stroke="#6B7280"/>
</svg>
