<svg width="1170" height="984" viewBox="0 0 1170 984" fill="none" xmlns="http://www.w3.org/2000/svg">
<rect x="0.5" y="16.5" width="1169" height="951" rx="7.5" fill="white"/>
<rect x="0.5" y="16.5" width="1169" height="951" rx="7.5" stroke="#E5E5E5"/>
<path d="M48.02 54.62C48.02 54.94 48.1333 55.2133 48.36 55.44C48.5867 55.6533 48.86 55.76 49.18 55.76C49.5 55.76 49.7733 55.6533 50 55.44C50.2267 55.2133 50.34 54.94 50.34 54.62C50.34 54.3 50.2267 54.0267 50 53.8C49.7733 53.5733 49.5 53.46 49.18 53.46C48.86 53.46 48.5867 53.5733 48.36 53.8C48.1333 54.0267 48.02 54.3 48.02 54.62ZM46.78 54.62C46.78 54.18 46.8867 53.78 47.1 53.42C47.3267 53.0467 47.62 52.7533 47.98 52.54C48.34 52.3267 48.74 52.22 49.18 52.22C49.62 52.22 50.02 52.3267 50.38 52.54C50.74 52.7533 51.0267 53.0467 51.24 53.42C51.4667 53.78 51.58 54.18 51.58 54.62C51.58 55.0467 51.4667 55.44 51.24 55.8C51.0267 56.16 50.74 56.4533 50.38 56.68C50.02 56.8933 49.62 57 49.18 57C48.74 57 48.34 56.8933 47.98 56.68C47.62 56.4533 47.3267 56.16 47.1 55.8C46.8867 55.44 46.78 55.0467 46.78 54.62ZM35.84 62.78C36.0667 62.22 36.28 61.6333 36.48 61.02C36.6933 60.3933 36.88 59.7533 37.04 59.1C37.2 58.4333 37.34 57.7733 37.46 57.12C37.5933 56.4667 37.6867 55.82 37.74 55.18L40.66 55.78C40.6067 55.9667 40.5467 56.1867 40.48 56.44C40.4133 56.6933 40.3533 56.94 40.3 57.18C40.2467 57.42 40.2067 57.62 40.18 57.78C40.1133 58.1267 40.02 58.5467 39.9 59.04C39.78 59.5333 39.64 60.06 39.48 60.62C39.32 61.1667 39.1533 61.72 38.98 62.28C38.82 62.8267 38.6533 63.3333 38.48 63.8C38.24 64.44 37.9533 65.1067 37.62 65.8C37.3 66.4933 36.9533 67.16 36.58 67.8C36.22 68.44 35.8667 69.0133 35.52 69.52L32.72 68.34C33.36 67.5133 33.9533 66.6 34.5 65.6C35.06 64.6 35.5067 63.66 35.84 62.78ZM45.72 62.36C45.52 61.8267 45.3 61.26 45.06 60.66C44.82 60.06 44.5667 59.46 44.3 58.86C44.0333 58.26 43.7733 57.6933 43.52 57.16C43.2667 56.6267 43.0333 56.1667 42.82 55.78L45.48 54.92C45.68 55.3067 45.9133 55.7733 46.18 56.32C46.4467 56.8667 46.7133 57.4467 46.98 58.06C47.2467 58.66 47.5067 59.26 47.76 59.86C48.0133 60.46 48.24 61 48.44 61.48C48.6133 61.92 48.8 62.44 49 63.04C49.2133 63.64 49.4267 64.2667 49.64 64.92C49.8667 65.56 50.0733 66.1867 50.26 66.8C50.46 67.4133 50.6267 67.9667 50.76 68.46L47.8 69.42C47.6267 68.6333 47.4267 67.8333 47.2 67.02C46.9733 66.2067 46.7333 65.4067 46.48 64.62C46.24 63.8333 45.9867 63.08 45.72 62.36ZM53.24 61.22C55.04 60.7533 56.6667 60.2133 58.12 59.6C59.5867 58.9733 60.8733 58.32 61.98 57.64C62.6733 57.2133 63.3667 56.7267 64.06 56.18C64.7667 55.62 65.4267 55.0467 66.04 54.46C66.6667 53.8733 67.1933 53.3133 67.62 52.78L69.78 54.84C69.1667 55.44 68.4933 56.0467 67.76 56.66C67.04 57.2733 66.2867 57.86 65.5 58.42C64.7133 58.98 63.9333 59.4933 63.16 59.96C62.4 60.4 61.5467 60.8533 60.6 61.32C59.6667 61.7867 58.68 62.2267 57.64 62.64C56.6 63.0533 55.5533 63.42 54.5 63.74L53.24 61.22ZM61.56 58.92L64.4 58.26V67.26C64.4 67.5533 64.4067 67.8733 64.42 68.22C64.4333 68.5667 64.4533 68.8867 64.48 69.18C64.5067 69.4867 64.54 69.72 64.58 69.88H61.42C61.4467 69.72 61.4667 69.4867 61.48 69.18C61.5067 68.8867 61.5267 68.5667 61.54 68.22C61.5533 67.8733 61.56 67.5533 61.56 67.26V58.92ZM88.08 54.34C88.08 54.66 88.1933 54.9333 88.42 55.16C88.6467 55.3733 88.9133 55.48 89.22 55.48C89.54 55.48 89.8133 55.3733 90.04 55.16C90.2667 54.9333 90.38 54.66 90.38 54.34C90.38 54.02 90.2667 53.7467 90.04 53.52C89.8133 53.2933 89.54 53.18 89.22 53.18C88.9133 53.18 88.6467 53.2933 88.42 53.52C88.1933 53.7467 88.08 54.02 88.08 54.34ZM86.84 54.34C86.84 53.9 86.9467 53.5 87.16 53.14C87.3867 52.7667 87.68 52.4733 88.04 52.26C88.4 52.0467 88.7933 51.94 89.22 51.94C89.66 51.94 90.06 52.0467 90.42 52.26C90.7933 52.4733 91.0867 52.7667 91.3 53.14C91.5133 53.5 91.62 53.9 91.62 54.34C91.62 54.7667 91.5133 55.16 91.3 55.52C91.0867 55.88 90.7933 56.1733 90.42 56.4C90.06 56.6133 89.66 56.72 89.22 56.72C88.7933 56.72 88.4 56.6133 88.04 56.4C87.68 56.1733 87.3867 55.88 87.16 55.52C86.9467 55.16 86.84 54.7667 86.84 54.34ZM89.26 55.92C89.1667 56.1067 89.0867 56.3333 89.02 56.6C88.9533 56.8533 88.8867 57.0867 88.82 57.3C88.7133 57.7933 88.5733 58.3467 88.4 58.96C88.2267 59.56 88.02 60.1867 87.78 60.84C87.54 61.4933 87.2533 62.14 86.92 62.78C86.6 63.42 86.2333 64.02 85.82 64.58C85.22 65.38 84.52 66.1267 83.72 66.82C82.92 67.5133 82.0267 68.14 81.04 68.7C80.0533 69.26 78.9667 69.7333 77.78 70.12L75.6 67.72C76.9333 67.4 78.08 67.0067 79.04 66.54C80 66.0733 80.8333 65.54 81.54 64.94C82.26 64.34 82.8933 63.7 83.44 63.02C83.88 62.46 84.2533 61.8533 84.56 61.2C84.88 60.5467 85.14 59.8933 85.34 59.24C85.5533 58.5733 85.7 57.9533 85.78 57.38C85.58 57.38 85.2467 57.38 84.78 57.38C84.3267 57.38 83.7867 57.38 83.16 57.38C82.5467 57.38 81.9 57.38 81.22 57.38C80.5533 57.38 79.9067 57.38 79.28 57.38C78.6533 57.38 78.0867 57.38 77.58 57.38C77.0867 57.38 76.72 57.38 76.48 57.38C76.0133 57.38 75.56 57.3867 75.12 57.4C74.6933 57.4133 74.3533 57.4333 74.1 57.46V54.64C74.3 54.6667 74.54 54.6933 74.82 54.72C75.1133 54.7467 75.4067 54.7667 75.7 54.78C76.0067 54.7933 76.2667 54.8 76.48 54.8C76.6933 54.8 76.9933 54.8 77.38 54.8C77.78 54.8 78.24 54.8 78.76 54.8C79.28 54.8 79.82 54.8 80.38 54.8C80.9533 54.8 81.52 54.8 82.08 54.8C82.6533 54.8 83.1867 54.8 83.68 54.8C84.1733 54.8 84.6 54.8 84.96 54.8C85.32 54.8 85.58 54.8 85.74 54.8C85.94 54.8 86.18 54.7933 86.46 54.78C86.7533 54.7667 87.0333 54.72 87.3 54.64L89.26 55.92Z" fill="black"/>
<rect x="32.5" y="97.5" width="1105" height="88" rx="3.5" stroke="#E5E5E5"/>
<path d="M49.764 118.074C50.0533 118.083 50.324 118.093 50.576 118.102C50.8373 118.102 51.0613 118.102 51.248 118.102C51.3973 118.102 51.626 118.102 51.934 118.102C52.2513 118.102 52.62 118.102 53.04 118.102C53.46 118.102 53.908 118.102 54.384 118.102C54.86 118.102 55.336 118.102 55.812 118.102C56.2973 118.102 56.75 118.102 57.17 118.102C57.59 118.102 57.954 118.102 58.262 118.102C58.5793 118.102 58.808 118.102 58.948 118.102C59.1253 118.102 59.3353 118.102 59.578 118.102C59.83 118.093 60.082 118.083 60.334 118.074C60.3247 118.289 60.3153 118.517 60.306 118.76C60.306 118.993 60.306 119.217 60.306 119.432C60.306 119.563 60.306 119.768 60.306 120.048C60.306 120.319 60.306 120.645 60.306 121.028C60.306 121.401 60.306 121.803 60.306 122.232C60.306 122.652 60.306 123.077 60.306 123.506C60.306 123.935 60.306 124.341 60.306 124.724C60.306 125.097 60.306 125.424 60.306 125.704C60.306 125.975 60.306 126.171 60.306 126.292C60.306 126.432 60.306 126.609 60.306 126.824C60.3153 127.029 60.32 127.239 60.32 127.454C60.32 127.659 60.32 127.841 60.32 128C60.3293 128.149 60.334 128.229 60.334 128.238H58.402C58.402 128.219 58.402 128.107 58.402 127.902C58.4113 127.687 58.416 127.435 58.416 127.146C58.4253 126.857 58.43 126.586 58.43 126.334C58.43 126.213 58.43 126.007 58.43 125.718C58.43 125.429 58.43 125.088 58.43 124.696C58.43 124.304 58.43 123.889 58.43 123.45C58.43 123.011 58.43 122.582 58.43 122.162C58.43 121.742 58.43 121.359 58.43 121.014C58.43 120.669 58.43 120.393 58.43 120.188C58.43 119.983 58.43 119.88 58.43 119.88H51.668C51.668 119.88 51.668 119.983 51.668 120.188C51.668 120.393 51.668 120.669 51.668 121.014C51.668 121.35 51.668 121.733 51.668 122.162C51.668 122.582 51.668 123.011 51.668 123.45C51.668 123.879 51.668 124.295 51.668 124.696C51.668 125.088 51.668 125.429 51.668 125.718C51.668 126.007 51.668 126.213 51.668 126.334C51.668 126.502 51.668 126.693 51.668 126.908C51.668 127.113 51.668 127.314 51.668 127.51C51.6773 127.706 51.682 127.869 51.682 128C51.682 128.14 51.682 128.219 51.682 128.238H49.75C49.75 128.219 49.75 128.14 49.75 128C49.7593 127.86 49.764 127.687 49.764 127.482C49.7733 127.277 49.778 127.067 49.778 126.852C49.7873 126.637 49.792 126.446 49.792 126.278C49.792 126.157 49.792 125.961 49.792 125.69C49.792 125.41 49.792 125.079 49.792 124.696C49.792 124.313 49.792 123.912 49.792 123.492C49.792 123.063 49.792 122.633 49.792 122.204C49.792 121.775 49.792 121.373 49.792 121C49.792 120.617 49.792 120.291 49.792 120.02C49.792 119.749 49.792 119.553 49.792 119.432C49.792 119.236 49.792 119.012 49.792 118.76C49.792 118.499 49.7827 118.27 49.764 118.074ZM59.13 125.69V127.482H50.716V125.69H59.13ZM72.71 116.674C72.8873 116.935 73.0787 117.243 73.284 117.598C73.4893 117.953 73.6573 118.256 73.788 118.508L72.654 118.984C72.514 118.704 72.3507 118.396 72.164 118.06C71.9773 117.715 71.7907 117.407 71.604 117.136L72.71 116.674ZM74.53 116.282C74.6607 116.45 74.7913 116.646 74.922 116.87C75.062 117.094 75.1927 117.313 75.314 117.528C75.4447 117.743 75.5473 117.929 75.622 118.088L74.516 118.578C74.3667 118.279 74.194 117.962 73.998 117.626C73.8113 117.29 73.62 116.991 73.424 116.73L74.53 116.282ZM70.064 116.954C70.0547 117.019 70.0407 117.127 70.022 117.276C70.0033 117.425 69.9847 117.584 69.966 117.752C69.9473 117.911 69.938 118.051 69.938 118.172C69.938 118.452 69.938 118.76 69.938 119.096C69.938 119.432 69.938 119.768 69.938 120.104C69.938 120.431 69.938 120.729 69.938 121C69.938 121.187 69.938 121.448 69.938 121.784C69.938 122.12 69.938 122.498 69.938 122.918C69.938 123.338 69.938 123.777 69.938 124.234C69.938 124.682 69.938 125.121 69.938 125.55C69.938 125.97 69.938 126.353 69.938 126.698C69.938 127.034 69.938 127.3 69.938 127.496C69.938 127.897 69.8167 128.215 69.574 128.448C69.3407 128.691 68.9767 128.812 68.482 128.812C68.23 128.812 67.9733 128.807 67.712 128.798C67.4507 128.789 67.194 128.775 66.942 128.756C66.69 128.737 66.4427 128.714 66.2 128.686L66.032 126.95C66.3307 127.006 66.62 127.048 66.9 127.076C67.1893 127.104 67.418 127.118 67.586 127.118C67.7727 127.118 67.9033 127.081 67.978 127.006C68.0527 126.922 68.0947 126.791 68.104 126.614C68.104 126.53 68.104 126.348 68.104 126.068C68.1133 125.788 68.118 125.457 68.118 125.074C68.118 124.691 68.118 124.285 68.118 123.856C68.118 123.427 68.118 123.016 68.118 122.624C68.118 122.232 68.118 121.891 68.118 121.602C68.118 121.313 68.118 121.112 68.118 121C68.118 120.832 68.118 120.58 68.118 120.244C68.118 119.899 68.118 119.535 68.118 119.152C68.118 118.769 68.118 118.443 68.118 118.172C68.118 117.985 68.104 117.766 68.076 117.514C68.048 117.253 68.02 117.066 67.992 116.954H70.064ZM63.204 119.18C63.4187 119.208 63.6427 119.236 63.876 119.264C64.1093 119.283 64.338 119.292 64.562 119.292C64.674 119.292 64.898 119.292 65.234 119.292C65.5793 119.292 65.99 119.292 66.466 119.292C66.942 119.292 67.4507 119.292 67.992 119.292C68.5427 119.292 69.0933 119.292 69.644 119.292C70.204 119.292 70.722 119.292 71.198 119.292C71.6833 119.292 72.1033 119.292 72.458 119.292C72.8127 119.292 73.06 119.292 73.2 119.292C73.396 119.292 73.6247 119.283 73.886 119.264C74.1567 119.245 74.39 119.222 74.586 119.194V121.028C74.3713 121.009 74.138 121 73.886 121C73.634 120.991 73.41 120.986 73.214 120.986C73.074 120.986 72.8267 120.986 72.472 120.986C72.1267 120.986 71.7113 120.986 71.226 120.986C70.75 120.986 70.2367 120.986 69.686 120.986C69.1353 120.986 68.5847 120.986 68.034 120.986C67.4833 120.986 66.97 120.986 66.494 120.986C66.018 120.986 65.6073 120.986 65.262 120.986C64.926 120.986 64.6927 120.986 64.562 120.986C64.3567 120.986 64.128 120.991 63.876 121C63.6333 121.009 63.4093 121.023 63.204 121.042V119.18ZM66.774 122.974C66.6153 123.291 66.424 123.632 66.2 123.996C65.976 124.36 65.7333 124.724 65.472 125.088C65.22 125.452 64.9727 125.793 64.73 126.11C64.4873 126.418 64.268 126.675 64.072 126.88L62.56 125.844C62.7933 125.629 63.0313 125.377 63.274 125.088C63.526 124.789 63.7687 124.477 64.002 124.15C64.2447 123.823 64.464 123.497 64.66 123.17C64.8653 122.843 65.0427 122.531 65.192 122.232L66.774 122.974ZM72.794 122.19C72.9713 122.414 73.1673 122.68 73.382 122.988C73.606 123.296 73.83 123.627 74.054 123.982C74.278 124.327 74.488 124.668 74.684 125.004C74.88 125.331 75.048 125.62 75.188 125.872L73.536 126.768C73.3867 126.469 73.214 126.147 73.018 125.802C72.8313 125.457 72.6353 125.111 72.43 124.766C72.2247 124.421 72.0193 124.099 71.814 123.8C71.618 123.492 71.436 123.231 71.268 123.016L72.794 122.19ZM83.07 119.684C83.1353 119.833 83.2193 120.048 83.322 120.328C83.434 120.599 83.5507 120.893 83.672 121.21C83.7933 121.518 83.9007 121.812 83.994 122.092C84.0873 122.372 84.162 122.591 84.218 122.75L82.538 123.338C82.5007 123.161 82.4353 122.937 82.342 122.666C82.2487 122.395 82.146 122.111 82.034 121.812C81.922 121.504 81.81 121.21 81.698 120.93C81.586 120.65 81.488 120.417 81.404 120.23L83.07 119.684ZM88.236 120.706C88.1613 120.93 88.096 121.121 88.04 121.28C87.9933 121.439 87.9467 121.588 87.9 121.728C87.7227 122.437 87.48 123.147 87.172 123.856C86.864 124.556 86.472 125.214 85.996 125.83C85.3427 126.67 84.6007 127.384 83.77 127.972C82.9487 128.551 82.1273 128.994 81.306 129.302L79.836 127.804C80.3493 127.664 80.8907 127.459 81.46 127.188C82.0293 126.908 82.58 126.572 83.112 126.18C83.644 125.788 84.1013 125.354 84.484 124.878C84.8013 124.477 85.0813 124.019 85.324 123.506C85.576 122.983 85.7813 122.428 85.94 121.84C86.108 121.243 86.22 120.655 86.276 120.076L88.236 120.706ZM79.822 120.426C79.9153 120.603 80.018 120.832 80.13 121.112C80.2513 121.392 80.3727 121.686 80.494 121.994C80.6153 122.302 80.732 122.601 80.844 122.89C80.9653 123.179 81.0587 123.422 81.124 123.618L79.416 124.262C79.36 124.075 79.276 123.833 79.164 123.534C79.0613 123.235 78.9447 122.923 78.814 122.596C78.6833 122.26 78.5573 121.952 78.436 121.672C78.324 121.392 78.226 121.177 78.142 121.028L79.822 120.426ZM94.396 126.656C94.396 126.479 94.396 126.189 94.396 125.788C94.396 125.377 94.396 124.906 94.396 124.374C94.396 123.833 94.396 123.268 94.396 122.68C94.396 122.092 94.396 121.527 94.396 120.986C94.396 120.435 94.396 119.95 94.396 119.53C94.396 119.11 94.396 118.802 94.396 118.606C94.396 118.363 94.382 118.083 94.354 117.766C94.3353 117.449 94.3027 117.169 94.256 116.926H96.44C96.412 117.169 96.384 117.439 96.356 117.738C96.328 118.027 96.314 118.317 96.314 118.606C96.314 118.867 96.314 119.222 96.314 119.67C96.314 120.118 96.314 120.617 96.314 121.168C96.314 121.709 96.314 122.265 96.314 122.834C96.314 123.394 96.314 123.935 96.314 124.458C96.314 124.981 96.314 125.438 96.314 125.83C96.314 126.213 96.314 126.488 96.314 126.656C96.314 126.787 96.3187 126.973 96.328 127.216C96.3373 127.449 96.356 127.692 96.384 127.944C96.412 128.196 96.4307 128.42 96.44 128.616H94.256C94.2933 128.336 94.326 128.009 94.354 127.636C94.382 127.263 94.396 126.936 94.396 126.656ZM95.894 120.552C96.3607 120.673 96.8833 120.832 97.462 121.028C98.0407 121.215 98.624 121.415 99.212 121.63C99.8 121.845 100.351 122.059 100.864 122.274C101.387 122.479 101.821 122.671 102.166 122.848L101.368 124.78C100.976 124.575 100.542 124.369 100.066 124.164C99.59 123.949 99.1047 123.744 98.61 123.548C98.1247 123.352 97.644 123.17 97.168 123.002C96.7013 122.834 96.2767 122.685 95.894 122.554V120.552ZM106.548 116.73H117.314V118.242H106.548V116.73ZM105.554 116.73H107.206V120.888C107.206 121.495 107.187 122.157 107.15 122.876C107.122 123.595 107.057 124.332 106.954 125.088C106.861 125.844 106.716 126.581 106.52 127.3C106.333 128.009 106.086 128.653 105.778 129.232C105.675 129.129 105.531 129.022 105.344 128.91C105.167 128.807 104.98 128.705 104.784 128.602C104.597 128.509 104.434 128.439 104.294 128.392C104.593 127.86 104.826 127.277 104.994 126.642C105.162 125.998 105.283 125.34 105.358 124.668C105.442 123.987 105.493 123.324 105.512 122.68C105.54 122.036 105.554 121.439 105.554 120.888V116.73ZM109.782 122.442V123.254H114.556V122.442H109.782ZM109.782 120.482V121.28H114.556V120.482H109.782ZM108.144 119.222H116.292V124.514H108.144V119.222ZM111.364 123.814H112.988V127.622C112.988 127.995 112.941 128.294 112.848 128.518C112.764 128.742 112.591 128.91 112.33 129.022C112.069 129.134 111.751 129.199 111.378 129.218C111.005 129.246 110.571 129.26 110.076 129.26C110.039 129.045 109.973 128.798 109.88 128.518C109.796 128.238 109.703 127.991 109.6 127.776C109.908 127.785 110.211 127.795 110.51 127.804C110.809 127.804 111.005 127.799 111.098 127.79C111.201 127.79 111.271 127.776 111.308 127.748C111.345 127.72 111.364 127.664 111.364 127.58V123.814ZM111.084 118.116L113.1 118.256C112.997 118.611 112.895 118.942 112.792 119.25C112.699 119.549 112.619 119.805 112.554 120.02L110.818 119.838C110.855 119.67 110.888 119.483 110.916 119.278C110.953 119.073 110.986 118.872 111.014 118.676C111.051 118.471 111.075 118.284 111.084 118.116ZM113.674 125.69L114.962 124.892C115.27 125.153 115.592 125.447 115.928 125.774C116.264 126.101 116.577 126.427 116.866 126.754C117.165 127.071 117.398 127.37 117.566 127.65L116.18 128.532C116.031 128.261 115.816 127.963 115.536 127.636C115.256 127.3 114.953 126.964 114.626 126.628C114.309 126.283 113.991 125.97 113.674 125.69ZM108.998 124.962L110.622 125.41C110.295 126.026 109.885 126.623 109.39 127.202C108.905 127.771 108.415 128.247 107.92 128.63C107.808 128.537 107.668 128.425 107.5 128.294C107.341 128.173 107.173 128.056 106.996 127.944C106.819 127.823 106.665 127.725 106.534 127.65C107.038 127.342 107.509 126.95 107.948 126.474C108.387 125.989 108.737 125.485 108.998 124.962ZM124.076 116.1H125.784V120.972H124.076V116.1ZM121.752 121.784V123.59H128.178V121.784H121.752ZM120.142 120.23H129.9V125.144H120.142V120.23ZM124.874 117.346H130.824V118.914H124.874V117.346ZM122.466 126.208L124.062 126.054C124.137 126.362 124.202 126.698 124.258 127.062C124.314 127.417 124.361 127.757 124.398 128.084C124.435 128.411 124.454 128.7 124.454 128.952L122.76 129.162C122.76 128.919 122.746 128.625 122.718 128.28C122.699 127.944 122.667 127.594 122.62 127.23C122.583 126.866 122.531 126.525 122.466 126.208ZM125.35 126.222L126.89 125.872C127.03 126.171 127.17 126.493 127.31 126.838C127.459 127.174 127.59 127.501 127.702 127.818C127.814 128.135 127.898 128.42 127.954 128.672L126.316 129.092C126.269 128.849 126.195 128.56 126.092 128.224C125.999 127.888 125.887 127.547 125.756 127.202C125.625 126.847 125.49 126.521 125.35 126.222ZM128.206 126.138L129.704 125.592C129.937 125.881 130.171 126.203 130.404 126.558C130.647 126.913 130.871 127.263 131.076 127.608C131.281 127.944 131.44 128.252 131.552 128.532L129.928 129.162C129.825 128.891 129.681 128.579 129.494 128.224C129.307 127.879 129.097 127.524 128.864 127.16C128.64 126.787 128.421 126.446 128.206 126.138ZM120.17 125.69L121.78 126.11C121.584 126.661 121.323 127.221 120.996 127.79C120.669 128.359 120.324 128.831 119.96 129.204L118.406 128.448C118.751 128.14 119.083 127.734 119.4 127.23C119.717 126.726 119.974 126.213 120.17 125.69ZM137.922 120.734V121.952H139.168V120.734H137.922ZM137.922 123.198V124.43H139.168V123.198H137.922ZM137.922 118.284V119.488H139.168V118.284H137.922ZM136.522 116.94H140.638V125.76H136.522V116.94ZM138.762 126.474L139.952 125.816C140.195 126.18 140.433 126.581 140.666 127.02C140.909 127.459 141.086 127.837 141.198 128.154L139.924 128.91C139.859 128.695 139.761 128.448 139.63 128.168C139.509 127.888 139.369 127.599 139.21 127.3C139.061 127.001 138.911 126.726 138.762 126.474ZM141.38 117.654H142.822V126.026H141.38V117.654ZM143.662 116.324H145.188V127.398C145.188 127.809 145.141 128.131 145.048 128.364C144.964 128.607 144.805 128.789 144.572 128.91C144.339 129.05 144.045 129.139 143.69 129.176C143.335 129.223 142.911 129.246 142.416 129.246C142.388 129.022 142.327 128.756 142.234 128.448C142.15 128.14 142.057 127.874 141.954 127.65C142.271 127.659 142.565 127.664 142.836 127.664C143.107 127.664 143.289 127.664 143.382 127.664C143.485 127.664 143.555 127.645 143.592 127.608C143.639 127.561 143.662 127.491 143.662 127.398V116.324ZM137.222 125.802L138.566 126.53C138.426 126.829 138.249 127.146 138.034 127.482C137.829 127.809 137.614 128.121 137.39 128.42C137.166 128.728 136.947 128.989 136.732 129.204C136.592 129.073 136.405 128.919 136.172 128.742C135.948 128.565 135.743 128.415 135.556 128.294C135.78 128.089 135.995 127.846 136.2 127.566C136.415 127.277 136.611 126.978 136.788 126.67C136.965 126.353 137.11 126.063 137.222 125.802ZM134.94 116.128L136.494 116.59C136.233 117.402 135.915 118.223 135.542 119.054C135.178 119.885 134.777 120.673 134.338 121.42C133.899 122.157 133.442 122.806 132.966 123.366C132.929 123.235 132.863 123.053 132.77 122.82C132.677 122.587 132.574 122.353 132.462 122.12C132.35 121.887 132.252 121.695 132.168 121.546C132.541 121.107 132.901 120.599 133.246 120.02C133.601 119.441 133.923 118.821 134.212 118.158C134.501 117.486 134.744 116.809 134.94 116.128ZM133.82 119.978L135.374 118.424L135.416 118.452V129.246H133.82V119.978Z" fill="black"/>
<path d="M59.0778 154.102C59.0778 154.345 59.1618 154.55 59.3298 154.718C59.4978 154.886 59.7032 154.97 59.9458 154.97C60.1885 154.97 60.3938 154.886 60.5618 154.718C60.7392 154.55 60.8278 154.345 60.8278 154.102C60.8278 153.859 60.7392 153.654 60.5618 153.486C60.3938 153.309 60.1885 153.22 59.9458 153.22C59.7032 153.22 59.4978 153.309 59.3298 153.486C59.1618 153.654 59.0778 153.859 59.0778 154.102ZM58.3358 154.102C58.3358 153.803 58.4058 153.533 58.5458 153.29C58.6952 153.047 58.8912 152.851 59.1338 152.702C59.3765 152.553 59.6472 152.478 59.9458 152.478C60.2445 152.478 60.5152 152.553 60.7578 152.702C61.0005 152.851 61.1965 153.047 61.3458 153.29C61.4952 153.533 61.5698 153.803 61.5698 154.102C61.5698 154.401 61.4952 154.671 61.3458 154.914C61.1965 155.157 61.0005 155.353 60.7578 155.502C60.5152 155.642 60.2445 155.712 59.9458 155.712C59.6472 155.712 59.3765 155.642 59.1338 155.502C58.8912 155.353 58.6952 155.157 58.5458 154.914C58.4058 154.671 58.3358 154.401 58.3358 154.102ZM50.9018 159.73C51.0512 159.347 51.1958 158.941 51.3358 158.512C51.4852 158.083 51.6205 157.639 51.7418 157.182C51.8632 156.715 51.9658 156.253 52.0498 155.796C52.1432 155.339 52.2132 154.9 52.2598 154.48L53.8418 154.802C53.8138 154.923 53.7812 155.059 53.7438 155.208C53.7065 155.348 53.6692 155.488 53.6318 155.628C53.6038 155.768 53.5758 155.889 53.5478 155.992C53.5012 156.216 53.4358 156.505 53.3518 156.86C53.2772 157.205 53.1838 157.579 53.0718 157.98C52.9598 158.372 52.8385 158.773 52.7078 159.184C52.5865 159.585 52.4558 159.959 52.3158 160.304C52.1478 160.743 51.9518 161.195 51.7278 161.662C51.5038 162.119 51.2658 162.567 51.0138 163.006C50.7618 163.445 50.5098 163.846 50.2578 164.21L48.7318 163.566C49.1705 162.987 49.5812 162.353 49.9638 161.662C50.3465 160.962 50.6592 160.318 50.9018 159.73ZM57.8038 159.296C57.6638 158.932 57.5052 158.545 57.3278 158.134C57.1598 157.723 56.9825 157.313 56.7958 156.902C56.6185 156.482 56.4412 156.09 56.2638 155.726C56.0865 155.362 55.9232 155.049 55.7738 154.788L57.2158 154.312C57.3558 154.573 57.5145 154.886 57.6918 155.25C57.8785 155.614 58.0652 156.006 58.2518 156.426C58.4385 156.837 58.6205 157.247 58.7978 157.658C58.9752 158.069 59.1338 158.451 59.2738 158.806C59.4045 159.142 59.5445 159.52 59.6938 159.94C59.8525 160.36 60.0065 160.794 60.1558 161.242C60.3145 161.681 60.4592 162.11 60.5898 162.53C60.7205 162.941 60.8325 163.314 60.9258 163.65L59.3298 164.168C59.2085 163.655 59.0638 163.118 58.8958 162.558C58.7278 161.998 58.5505 161.438 58.3638 160.878C58.1865 160.318 57.9998 159.791 57.8038 159.296ZM63.1378 158.778C64.3698 158.451 65.4992 158.064 66.5258 157.616C67.5618 157.159 68.4672 156.687 69.2418 156.202C69.7365 155.903 70.2172 155.567 70.6838 155.194C71.1598 154.821 71.6078 154.433 72.0278 154.032C72.4478 153.631 72.8165 153.243 73.1338 152.87L74.3098 153.99C73.8992 154.41 73.4558 154.825 72.9798 155.236C72.5038 155.647 71.9998 156.043 71.4678 156.426C70.9452 156.799 70.4085 157.154 69.8578 157.49C69.3445 157.807 68.7612 158.129 68.1078 158.456C67.4545 158.773 66.7638 159.081 66.0358 159.38C65.3078 159.669 64.5705 159.931 63.8238 160.164L63.1378 158.778ZM68.9898 156.93L70.5438 156.524V162.866C70.5438 163.053 70.5438 163.258 70.5438 163.482C70.5532 163.697 70.5625 163.897 70.5718 164.084C70.5905 164.271 70.6138 164.415 70.6418 164.518H68.9058C68.9152 164.415 68.9292 164.271 68.9478 164.084C68.9665 163.897 68.9758 163.697 68.9758 163.482C68.9852 163.258 68.9898 163.053 68.9898 162.866V156.93ZM87.4138 153.85C87.4138 154.093 87.4978 154.298 87.6658 154.466C87.8338 154.634 88.0392 154.718 88.2818 154.718C88.5245 154.718 88.7298 154.634 88.8978 154.466C89.0752 154.298 89.1638 154.093 89.1638 153.85C89.1638 153.607 89.0752 153.402 88.8978 153.234C88.7298 153.057 88.5245 152.968 88.2818 152.968C88.0392 152.968 87.8338 153.057 87.6658 153.234C87.4978 153.402 87.4138 153.607 87.4138 153.85ZM86.6718 153.85C86.6718 153.551 86.7418 153.281 86.8818 153.038C87.0312 152.795 87.2272 152.604 87.4698 152.464C87.7125 152.315 87.9832 152.24 88.2818 152.24C88.5805 152.24 88.8512 152.315 89.0938 152.464C89.3365 152.604 89.5325 152.795 89.6818 153.038C89.8312 153.281 89.9058 153.551 89.9058 153.85C89.9058 154.149 89.8312 154.419 89.6818 154.662C89.5325 154.905 89.3365 155.101 89.0938 155.25C88.8512 155.39 88.5805 155.46 88.2818 155.46C87.9832 155.46 87.7125 155.39 87.4698 155.25C87.2272 155.101 87.0312 154.905 86.8818 154.662C86.7418 154.419 86.6718 154.149 86.6718 153.85ZM88.0998 154.872C88.0438 154.984 87.9925 155.11 87.9458 155.25C87.9085 155.39 87.8758 155.535 87.8478 155.684C87.7638 156.039 87.6612 156.435 87.5398 156.874C87.4278 157.313 87.2832 157.765 87.1058 158.232C86.9378 158.699 86.7372 159.156 86.5038 159.604C86.2798 160.043 86.0278 160.449 85.7478 160.822C85.3185 161.363 84.8332 161.877 84.2918 162.362C83.7598 162.838 83.1532 163.267 82.4718 163.65C81.7905 164.023 81.0298 164.345 80.1898 164.616L78.9858 163.3C79.9005 163.067 80.6938 162.787 81.3658 162.46C82.0378 162.133 82.6212 161.76 83.1158 161.34C83.6198 160.911 84.0678 160.453 84.4598 159.968C84.7772 159.557 85.0525 159.1 85.2858 158.596C85.5285 158.092 85.7245 157.588 85.8738 157.084C86.0325 156.571 86.1445 156.099 86.2098 155.67C86.0698 155.67 85.8272 155.67 85.4818 155.67C85.1365 155.67 84.7305 155.67 84.2638 155.67C83.7972 155.67 83.3072 155.67 82.7938 155.67C82.2805 155.67 81.7905 155.67 81.3238 155.67C80.8572 155.67 80.4418 155.67 80.0778 155.67C79.7232 155.67 79.4712 155.67 79.3218 155.67C79.0232 155.67 78.7432 155.675 78.4818 155.684C78.2205 155.693 77.9965 155.707 77.8098 155.726V154.158C77.9498 154.167 78.1038 154.181 78.2718 154.2C78.4492 154.219 78.6312 154.233 78.8178 154.242C79.0045 154.251 79.1725 154.256 79.3218 154.256C79.4525 154.256 79.6578 154.256 79.9378 154.256C80.2272 154.256 80.5632 154.256 80.9458 154.256C81.3285 154.256 81.7298 154.256 82.1498 154.256C82.5792 154.256 83.0038 154.256 83.4238 154.256C83.8532 154.256 84.2498 154.256 84.6138 154.256C84.9872 154.256 85.3045 154.256 85.5658 154.256C85.8365 154.256 86.0185 154.256 86.1118 154.256C86.2332 154.256 86.3732 154.251 86.5318 154.242C86.6998 154.233 86.8585 154.209 87.0078 154.172L88.0998 154.872ZM95.7438 155.586C96.1452 155.623 96.5418 155.656 96.9338 155.684C97.3352 155.703 97.7458 155.712 98.1658 155.712C99.0058 155.712 99.8458 155.675 100.686 155.6C101.526 155.525 102.305 155.418 103.024 155.278V156.636C102.277 156.757 101.484 156.846 100.644 156.902C99.8132 156.958 98.9825 156.991 98.1518 157C97.7412 157 97.3398 156.991 96.9478 156.972C96.5652 156.953 96.1685 156.93 95.7578 156.902L95.7438 155.586ZM100.826 153.136C100.807 153.276 100.788 153.421 100.77 153.57C100.76 153.719 100.751 153.864 100.742 154.004C100.732 154.163 100.723 154.373 100.714 154.634C100.714 154.895 100.709 155.18 100.7 155.488C100.7 155.787 100.7 156.085 100.7 156.384C100.7 156.972 100.709 157.537 100.728 158.078C100.756 158.619 100.784 159.133 100.812 159.618C100.84 160.103 100.863 160.561 100.882 160.99C100.9 161.41 100.91 161.793 100.91 162.138C100.91 162.455 100.868 162.759 100.784 163.048C100.7 163.337 100.56 163.594 100.364 163.818C100.168 164.042 99.9018 164.215 99.5658 164.336C99.2392 164.467 98.8332 164.532 98.3478 164.532C97.3958 164.532 96.6585 164.345 96.1358 163.972C95.6132 163.599 95.3518 163.076 95.3518 162.404C95.3518 161.975 95.4685 161.592 95.7018 161.256C95.9445 160.92 96.2852 160.654 96.7238 160.458C97.1718 160.262 97.7085 160.164 98.3338 160.164C98.9592 160.164 99.5285 160.234 100.042 160.374C100.555 160.505 101.031 160.687 101.47 160.92C101.908 161.144 102.3 161.391 102.646 161.662C103 161.933 103.322 162.194 103.612 162.446L102.856 163.622C102.352 163.137 101.848 162.717 101.344 162.362C100.849 162.007 100.345 161.732 99.8318 161.536C99.3185 161.34 98.7818 161.242 98.2218 161.242C97.7458 161.242 97.3585 161.335 97.0598 161.522C96.7705 161.709 96.6258 161.951 96.6258 162.25C96.6258 162.577 96.7705 162.824 97.0598 162.992C97.3492 163.151 97.7178 163.23 98.1658 163.23C98.5112 163.23 98.7818 163.174 98.9778 163.062C99.1738 162.95 99.3138 162.787 99.3978 162.572C99.4818 162.357 99.5238 162.105 99.5238 161.816C99.5238 161.573 99.5145 161.247 99.4958 160.836C99.4772 160.416 99.4538 159.959 99.4258 159.464C99.3978 158.96 99.3745 158.447 99.3558 157.924C99.3372 157.392 99.3278 156.883 99.3278 156.398C99.3278 155.894 99.3278 155.432 99.3278 155.012C99.3278 154.583 99.3278 154.256 99.3278 154.032C99.3278 153.911 99.3185 153.766 99.2998 153.598C99.2905 153.421 99.2718 153.267 99.2438 153.136H100.826ZM93.9518 153.262C93.9238 153.337 93.8912 153.444 93.8538 153.584C93.8165 153.724 93.7792 153.864 93.7418 154.004C93.7138 154.144 93.6905 154.256 93.6718 154.34C93.6252 154.564 93.5692 154.853 93.5038 155.208C93.4478 155.553 93.3872 155.936 93.3218 156.356C93.2658 156.767 93.2098 157.187 93.1538 157.616C93.1072 158.045 93.0652 158.456 93.0278 158.848C92.9998 159.24 92.9858 159.585 92.9858 159.884C92.9858 160.127 92.9952 160.374 93.0138 160.626C93.0325 160.869 93.0605 161.121 93.0978 161.382C93.1632 161.186 93.2378 160.985 93.3218 160.78C93.4058 160.565 93.4898 160.355 93.5738 160.15C93.6672 159.945 93.7512 159.758 93.8258 159.59L94.5258 160.136C94.4045 160.491 94.2738 160.873 94.1338 161.284C93.9938 161.685 93.8678 162.068 93.7558 162.432C93.6532 162.796 93.5738 163.099 93.5178 163.342C93.4992 163.435 93.4805 163.547 93.4618 163.678C93.4525 163.799 93.4478 163.902 93.4478 163.986C93.4572 164.051 93.4618 164.131 93.4618 164.224C93.4712 164.327 93.4805 164.42 93.4898 164.504L92.2438 164.602C92.0945 164.107 91.9638 163.482 91.8518 162.726C91.7492 161.961 91.6978 161.102 91.6978 160.15C91.6978 159.627 91.7212 159.086 91.7678 158.526C91.8145 157.957 91.8705 157.401 91.9358 156.86C92.0105 156.319 92.0805 155.824 92.1458 155.376C92.2112 154.928 92.2672 154.564 92.3138 154.284C92.3325 154.107 92.3512 153.915 92.3698 153.71C92.3978 153.505 92.4165 153.309 92.4258 153.122L93.9518 153.262ZM111.172 152.604H112.418V154.312C112.418 154.732 112.371 155.175 112.278 155.642C112.194 156.099 112.021 156.543 111.76 156.972C111.508 157.401 111.134 157.784 110.64 158.12C110.584 158.036 110.495 157.938 110.374 157.826C110.252 157.714 110.126 157.607 109.996 157.504C109.865 157.392 109.753 157.313 109.66 157.266C110.098 156.967 110.425 156.65 110.64 156.314C110.854 155.978 110.994 155.637 111.06 155.292C111.134 154.947 111.172 154.611 111.172 154.284V152.604ZM114.462 152.604H115.708V155.922C115.708 156.09 115.722 156.197 115.75 156.244C115.778 156.291 115.843 156.314 115.946 156.314C115.974 156.314 116.025 156.314 116.1 156.314C116.174 156.314 116.249 156.314 116.324 156.314C116.408 156.314 116.464 156.314 116.492 156.314C116.566 156.314 116.622 156.281 116.66 156.216C116.697 156.151 116.725 156.011 116.744 155.796C116.762 155.581 116.776 155.259 116.786 154.83C116.907 154.933 117.075 155.026 117.29 155.11C117.514 155.194 117.71 155.259 117.878 155.306C117.85 155.866 117.789 156.305 117.696 156.622C117.602 156.93 117.472 157.145 117.304 157.266C117.136 157.387 116.912 157.448 116.632 157.448C116.566 157.448 116.473 157.448 116.352 157.448C116.24 157.448 116.123 157.448 116.002 157.448C115.88 157.448 115.787 157.448 115.722 157.448C115.404 157.448 115.152 157.406 114.966 157.322C114.779 157.229 114.648 157.075 114.574 156.86C114.499 156.636 114.462 156.328 114.462 155.936V152.604ZM112.166 159.45C112.651 160.561 113.388 161.517 114.378 162.32C115.367 163.123 116.543 163.692 117.906 164.028C117.812 164.112 117.71 164.224 117.598 164.364C117.486 164.504 117.378 164.644 117.276 164.784C117.182 164.924 117.103 165.05 117.038 165.162C115.619 164.742 114.401 164.079 113.384 163.174C112.376 162.259 111.578 161.139 110.99 159.814L112.166 159.45ZM115.75 158.232H116.002L116.226 158.19L117.094 158.512C116.851 159.436 116.515 160.262 116.086 160.99C115.656 161.709 115.148 162.339 114.56 162.88C113.981 163.421 113.342 163.879 112.642 164.252C111.942 164.635 111.195 164.943 110.402 165.176C110.364 165.055 110.304 164.919 110.22 164.77C110.136 164.63 110.047 164.49 109.954 164.35C109.86 164.21 109.772 164.093 109.688 164C110.406 163.823 111.088 163.575 111.732 163.258C112.376 162.931 112.964 162.539 113.496 162.082C114.028 161.615 114.485 161.079 114.868 160.472C115.25 159.865 115.544 159.189 115.75 158.442V158.232ZM110.36 158.232H116.268V159.436H110.36V158.232ZM111.676 152.604H115.12V153.78H111.676V152.604ZM105.432 156.44H109.688V157.462H105.432V156.44ZM105.502 152.646H109.66V153.682H105.502V152.646ZM105.432 158.33H109.688V159.352H105.432V158.33ZM104.774 154.508H110.178V155.572H104.774V154.508ZM106.048 160.248H109.66V164.406H106.048V163.342H108.512V161.312H106.048V160.248ZM105.404 160.248H106.552V165.008H105.404V160.248ZM121.378 156.44H129.372V157.7H121.378V156.44ZM125.354 159.786H130.072V161.032H125.354V159.786ZM124.654 157.14H126.026V164.084L124.654 163.902V157.14ZM121.322 158.722L122.694 158.862C122.507 160.281 122.185 161.531 121.728 162.614C121.27 163.687 120.645 164.569 119.852 165.26C119.786 165.176 119.684 165.073 119.544 164.952C119.413 164.84 119.273 164.728 119.124 164.616C118.984 164.504 118.862 164.415 118.76 164.35C119.534 163.771 120.118 163.001 120.51 162.04C120.911 161.069 121.182 159.963 121.322 158.722ZM122.288 160.5C122.521 161.181 122.824 161.737 123.198 162.166C123.571 162.586 124 162.908 124.486 163.132C124.98 163.347 125.522 163.496 126.11 163.58C126.698 163.655 127.328 163.692 128 163.692C128.13 163.692 128.317 163.692 128.56 163.692C128.802 163.692 129.073 163.692 129.372 163.692C129.68 163.692 129.988 163.692 130.296 163.692C130.613 163.683 130.902 163.678 131.164 163.678C131.434 163.678 131.649 163.673 131.808 163.664C131.742 163.767 131.677 163.897 131.612 164.056C131.546 164.224 131.486 164.392 131.43 164.56C131.383 164.728 131.346 164.877 131.318 165.008H130.618H127.93C127.108 165.008 126.352 164.952 125.662 164.84C124.971 164.728 124.346 164.527 123.786 164.238C123.226 163.949 122.731 163.533 122.302 162.992C121.872 162.451 121.508 161.751 121.21 160.892L122.288 160.5ZM124.626 152.198H126.04V154.578H124.626V152.198ZM119.432 153.71H131.276V156.972H129.918V154.97H120.734V156.972H119.432V153.71ZM139.648 154.074C139.601 153.915 139.545 153.733 139.48 153.528C139.414 153.313 139.34 153.099 139.256 152.884L140.768 152.702C140.814 153.01 140.884 153.341 140.978 153.696C141.071 154.041 141.174 154.387 141.286 154.732C141.398 155.077 141.505 155.404 141.608 155.712C141.822 156.3 142.084 156.888 142.392 157.476C142.709 158.055 143.003 158.526 143.274 158.89C143.376 159.039 143.484 159.184 143.596 159.324C143.708 159.464 143.824 159.595 143.946 159.716L143.246 160.724C143.059 160.677 142.821 160.635 142.532 160.598C142.252 160.561 141.944 160.523 141.608 160.486C141.281 160.449 140.95 160.416 140.614 160.388C140.287 160.36 139.988 160.332 139.718 160.304L139.816 159.142C140.068 159.161 140.334 159.184 140.614 159.212C140.894 159.231 141.16 159.254 141.412 159.282C141.664 159.301 141.869 159.319 142.028 159.338C141.841 159.049 141.64 158.717 141.426 158.344C141.22 157.971 141.02 157.583 140.824 157.182C140.628 156.771 140.455 156.361 140.306 155.95C140.156 155.558 140.026 155.203 139.914 154.886C139.811 154.569 139.722 154.298 139.648 154.074ZM134.538 154.97C135.359 155.063 136.143 155.129 136.89 155.166C137.636 155.203 138.341 155.213 139.004 155.194C139.666 155.175 140.268 155.138 140.81 155.082C141.202 155.035 141.603 154.979 142.014 154.914C142.424 154.839 142.83 154.755 143.232 154.662C143.642 154.569 144.03 154.461 144.394 154.34L144.562 155.74C144.244 155.824 143.894 155.908 143.512 155.992C143.138 156.067 142.756 156.137 142.364 156.202C141.972 156.258 141.598 156.309 141.244 156.356C140.338 156.459 139.33 156.515 138.22 156.524C137.109 156.533 135.891 156.487 134.566 156.384L134.538 154.97ZM136.988 159.562C136.773 159.898 136.605 160.225 136.484 160.542C136.372 160.85 136.316 161.167 136.316 161.494C136.316 162.119 136.586 162.577 137.128 162.866C137.678 163.155 138.458 163.305 139.466 163.314C140.203 163.323 140.875 163.295 141.482 163.23C142.088 163.165 142.639 163.081 143.134 162.978L143.064 164.378C142.644 164.453 142.126 164.523 141.51 164.588C140.903 164.663 140.194 164.695 139.382 164.686C138.467 164.686 137.674 164.569 137.002 164.336C136.33 164.112 135.812 163.781 135.448 163.342C135.084 162.894 134.902 162.348 134.902 161.704C134.902 161.293 134.962 160.892 135.084 160.5C135.214 160.108 135.387 159.693 135.602 159.254L136.988 159.562ZM160.144 163.076C159.789 163.421 159.397 163.697 158.968 163.902C158.538 164.098 158.062 164.196 157.54 164.196C157.045 164.196 156.648 164.033 156.35 163.706C156.051 163.379 155.902 162.903 155.902 162.278C155.902 161.895 155.925 161.48 155.972 161.032C156.028 160.584 156.088 160.131 156.154 159.674C156.219 159.207 156.28 158.764 156.336 158.344C156.392 157.924 156.42 157.551 156.42 157.224C156.42 156.841 156.326 156.561 156.14 156.384C155.953 156.207 155.692 156.118 155.356 156.118C155.029 156.118 154.665 156.221 154.264 156.426C153.862 156.631 153.452 156.907 153.032 157.252C152.612 157.588 152.206 157.957 151.814 158.358C151.422 158.75 151.072 159.137 150.764 159.52L150.778 157.798C150.946 157.611 151.165 157.392 151.436 157.14C151.716 156.879 152.028 156.613 152.374 156.342C152.719 156.071 153.083 155.819 153.466 155.586C153.858 155.353 154.245 155.166 154.628 155.026C155.02 154.877 155.393 154.802 155.748 154.802C156.214 154.802 156.597 154.886 156.896 155.054C157.204 155.222 157.432 155.455 157.582 155.754C157.731 156.043 157.806 156.384 157.806 156.776C157.806 157.121 157.778 157.518 157.722 157.966C157.675 158.405 157.619 158.857 157.554 159.324C157.488 159.781 157.428 160.234 157.372 160.682C157.325 161.121 157.302 161.522 157.302 161.886C157.302 162.091 157.353 162.269 157.456 162.418C157.568 162.567 157.731 162.642 157.946 162.642C158.254 162.642 158.576 162.549 158.912 162.362C159.257 162.166 159.598 161.895 159.934 161.55L160.144 163.076ZM150.61 156.398C150.488 156.417 150.311 156.44 150.078 156.468C149.844 156.496 149.588 156.529 149.308 156.566C149.028 156.603 148.743 156.641 148.454 156.678C148.174 156.715 147.908 156.753 147.656 156.79L147.516 155.362C147.693 155.371 147.861 155.376 148.02 155.376C148.178 155.367 148.36 155.357 148.566 155.348C148.771 155.329 149.018 155.306 149.308 155.278C149.606 155.241 149.914 155.203 150.232 155.166C150.549 155.119 150.848 155.073 151.128 155.026C151.408 154.97 151.627 154.914 151.786 154.858L152.248 155.446C152.173 155.558 152.08 155.698 151.968 155.866C151.865 156.025 151.758 156.188 151.646 156.356C151.543 156.524 151.454 156.673 151.38 156.804L150.778 159.03C150.619 159.273 150.423 159.562 150.19 159.898C149.966 160.234 149.728 160.589 149.476 160.962C149.224 161.326 148.972 161.69 148.72 162.054C148.477 162.409 148.253 162.726 148.048 163.006L147.18 161.788C147.348 161.573 147.548 161.312 147.782 161.004C148.024 160.696 148.272 160.369 148.524 160.024C148.785 159.679 149.042 159.333 149.294 158.988C149.546 158.643 149.774 158.325 149.98 158.036C150.185 157.737 150.348 157.49 150.47 157.294L150.512 156.72L150.61 156.398ZM150.47 153.92C150.47 153.743 150.465 153.556 150.456 153.36C150.456 153.164 150.442 152.973 150.414 152.786L152.038 152.842C152 153.038 151.949 153.337 151.884 153.738C151.828 154.139 151.772 154.606 151.716 155.138C151.66 155.67 151.604 156.23 151.548 156.818C151.501 157.406 151.464 157.989 151.436 158.568C151.408 159.147 151.394 159.683 151.394 160.178C151.394 160.579 151.394 160.967 151.394 161.34C151.394 161.713 151.398 162.087 151.408 162.46C151.426 162.833 151.445 163.235 151.464 163.664C151.473 163.785 151.482 163.935 151.492 164.112C151.51 164.299 151.524 164.467 151.534 164.616H150.022C150.04 164.467 150.05 164.303 150.05 164.126C150.059 163.949 150.064 163.804 150.064 163.692C150.064 163.244 150.064 162.838 150.064 162.474C150.073 162.101 150.078 161.718 150.078 161.326C150.087 160.925 150.101 160.453 150.12 159.912C150.12 159.697 150.129 159.417 150.148 159.072C150.166 158.727 150.19 158.344 150.218 157.924C150.246 157.504 150.274 157.079 150.302 156.65C150.33 156.221 150.353 155.815 150.372 155.432C150.4 155.049 150.423 154.723 150.442 154.452C150.46 154.181 150.47 154.004 150.47 153.92ZM161.246 154.55C161.517 154.541 161.769 154.531 162.002 154.522C162.235 154.503 162.417 154.489 162.548 154.48C162.8 154.461 163.136 154.433 163.556 154.396C163.985 154.349 164.471 154.303 165.012 154.256C165.553 154.2 166.132 154.149 166.748 154.102C167.364 154.046 167.994 153.99 168.638 153.934C169.142 153.887 169.627 153.85 170.094 153.822C170.561 153.785 170.999 153.757 171.41 153.738C171.821 153.71 172.185 153.691 172.502 153.682V155.096C172.25 155.096 171.956 155.101 171.62 155.11C171.293 155.119 170.967 155.138 170.64 155.166C170.313 155.194 170.029 155.241 169.786 155.306C169.319 155.446 168.895 155.665 168.512 155.964C168.129 156.263 167.803 156.608 167.532 157C167.261 157.392 167.051 157.807 166.902 158.246C166.753 158.675 166.678 159.1 166.678 159.52C166.678 160.024 166.767 160.467 166.944 160.85C167.121 161.233 167.364 161.559 167.672 161.83C167.98 162.091 168.33 162.311 168.722 162.488C169.123 162.656 169.548 162.782 169.996 162.866C170.453 162.95 170.915 163.001 171.382 163.02L170.864 164.504C170.313 164.485 169.767 164.406 169.226 164.266C168.694 164.126 168.185 163.935 167.7 163.692C167.224 163.44 166.799 163.132 166.426 162.768C166.062 162.395 165.773 161.965 165.558 161.48C165.353 160.995 165.25 160.439 165.25 159.814C165.25 159.114 165.367 158.465 165.6 157.868C165.843 157.271 166.146 156.753 166.51 156.314C166.883 155.866 167.257 155.516 167.63 155.264C167.35 155.301 167.005 155.343 166.594 155.39C166.183 155.427 165.74 155.474 165.264 155.53C164.797 155.577 164.326 155.633 163.85 155.698C163.374 155.754 162.921 155.815 162.492 155.88C162.072 155.945 161.708 156.015 161.4 156.09L161.246 154.55ZM177.556 154.13C177.528 154.261 177.505 154.419 177.486 154.606C177.467 154.793 177.449 154.979 177.43 155.166C177.421 155.353 177.416 155.511 177.416 155.642C177.416 155.931 177.416 156.253 177.416 156.608C177.425 156.963 177.435 157.327 177.444 157.7C177.453 158.064 177.477 158.428 177.514 158.792C177.589 159.529 177.701 160.173 177.85 160.724C177.999 161.275 178.191 161.704 178.424 162.012C178.657 162.32 178.928 162.474 179.236 162.474C179.413 162.474 179.581 162.39 179.74 162.222C179.899 162.054 180.048 161.83 180.188 161.55C180.328 161.27 180.454 160.967 180.566 160.64C180.687 160.304 180.79 159.982 180.874 159.674L181.98 160.976C181.681 161.769 181.383 162.404 181.084 162.88C180.795 163.347 180.496 163.683 180.188 163.888C179.88 164.093 179.553 164.196 179.208 164.196C178.741 164.196 178.293 164.037 177.864 163.72C177.444 163.393 177.08 162.861 176.772 162.124C176.464 161.387 176.245 160.402 176.114 159.17C176.067 158.759 176.03 158.316 176.002 157.84C175.983 157.364 175.969 156.911 175.96 156.482C175.96 156.053 175.96 155.698 175.96 155.418C175.96 155.241 175.951 155.026 175.932 154.774C175.923 154.513 175.895 154.289 175.848 154.102L177.556 154.13ZM184.724 154.48C184.976 154.807 185.219 155.189 185.452 155.628C185.695 156.057 185.914 156.524 186.11 157.028C186.306 157.532 186.479 158.045 186.628 158.568C186.787 159.091 186.917 159.609 187.02 160.122C187.123 160.635 187.193 161.121 187.23 161.578L185.788 162.138C185.732 161.531 185.639 160.897 185.508 160.234C185.377 159.571 185.209 158.918 185.004 158.274C184.799 157.621 184.556 157.009 184.276 156.44C184.005 155.861 183.693 155.362 183.338 154.942L184.724 154.48ZM196.442 152.8C196.433 152.931 196.419 153.075 196.4 153.234C196.391 153.383 196.381 153.556 196.372 153.752C196.363 153.911 196.353 154.139 196.344 154.438C196.344 154.737 196.339 155.068 196.33 155.432C196.33 155.787 196.33 156.146 196.33 156.51C196.33 156.865 196.33 157.191 196.33 157.49C196.33 157.919 196.339 158.386 196.358 158.89C196.386 159.385 196.414 159.875 196.442 160.36C196.47 160.845 196.493 161.293 196.512 161.704C196.54 162.115 196.554 162.451 196.554 162.712C196.554 163.067 196.465 163.398 196.288 163.706C196.111 164.014 195.831 164.261 195.448 164.448C195.065 164.644 194.566 164.742 193.95 164.742C192.895 164.742 192.093 164.551 191.542 164.168C190.991 163.795 190.716 163.258 190.716 162.558C190.716 162.11 190.847 161.718 191.108 161.382C191.379 161.046 191.761 160.785 192.256 160.598C192.76 160.402 193.357 160.304 194.048 160.304C194.795 160.304 195.495 160.388 196.148 160.556C196.811 160.724 197.413 160.939 197.954 161.2C198.505 161.461 198.99 161.737 199.41 162.026C199.83 162.306 200.185 162.558 200.474 162.782L199.662 164.028C199.335 163.729 198.967 163.426 198.556 163.118C198.145 162.81 197.693 162.53 197.198 162.278C196.703 162.026 196.176 161.825 195.616 161.676C195.065 161.527 194.482 161.452 193.866 161.452C193.269 161.452 192.811 161.555 192.494 161.76C192.186 161.956 192.032 162.194 192.032 162.474C192.032 162.67 192.093 162.847 192.214 163.006C192.345 163.155 192.536 163.277 192.788 163.37C193.04 163.454 193.367 163.496 193.768 163.496C194.029 163.496 194.263 163.463 194.468 163.398C194.683 163.333 194.851 163.221 194.972 163.062C195.093 162.894 195.154 162.661 195.154 162.362C195.154 162.119 195.145 161.793 195.126 161.382C195.107 160.971 195.089 160.528 195.07 160.052C195.061 159.567 195.047 159.1 195.028 158.652C195.009 158.195 195 157.807 195 157.49C195 157.163 195 156.827 195 156.482C195.009 156.127 195.014 155.782 195.014 155.446C195.014 155.101 195.014 154.779 195.014 154.48C195.014 154.172 195.014 153.906 195.014 153.682C195.014 153.561 195.009 153.411 195 153.234C194.991 153.047 194.972 152.903 194.944 152.8H196.442ZM190.898 154.228C191.131 154.265 191.402 154.303 191.71 154.34C192.027 154.377 192.349 154.415 192.676 154.452C193.012 154.48 193.329 154.503 193.628 154.522C193.927 154.531 194.188 154.536 194.412 154.536C195.336 154.536 196.265 154.503 197.198 154.438C198.131 154.373 199.074 154.261 200.026 154.102V155.39C199.522 155.446 198.962 155.502 198.346 155.558C197.73 155.614 197.086 155.661 196.414 155.698C195.751 155.735 195.089 155.754 194.426 155.754C194.118 155.754 193.745 155.74 193.306 155.712C192.877 155.684 192.447 155.651 192.018 155.614C191.589 155.577 191.22 155.539 190.912 155.502L190.898 154.228ZM190.828 157.224C191.061 157.261 191.332 157.299 191.64 157.336C191.948 157.364 192.265 157.387 192.592 157.406C192.919 157.425 193.227 157.443 193.516 157.462C193.815 157.471 194.071 157.476 194.286 157.476C195.042 157.476 195.751 157.462 196.414 157.434C197.086 157.397 197.73 157.35 198.346 157.294C198.971 157.229 199.578 157.159 200.166 157.084L200.152 158.386C199.676 158.451 199.209 158.507 198.752 158.554C198.295 158.591 197.833 158.624 197.366 158.652C196.909 158.68 196.423 158.699 195.91 158.708C195.406 158.717 194.855 158.722 194.258 158.722C193.969 158.722 193.619 158.717 193.208 158.708C192.797 158.689 192.382 158.666 191.962 158.638C191.542 158.61 191.169 158.577 190.842 158.54L190.828 157.224ZM212.44 153.122C212.431 153.197 212.422 153.299 212.412 153.43C212.403 153.561 212.394 153.696 212.384 153.836C212.375 153.976 212.37 154.107 212.37 154.228C212.361 154.517 212.356 154.811 212.356 155.11C212.356 155.409 212.352 155.698 212.342 155.978C212.342 156.249 212.338 156.505 212.328 156.748C212.319 157.121 212.305 157.527 212.286 157.966C212.268 158.405 212.244 158.815 212.216 159.198C212.188 159.581 212.151 159.893 212.104 160.136C212.039 160.472 211.918 160.701 211.74 160.822C211.563 160.934 211.306 160.99 210.97 160.99C210.802 160.99 210.588 160.981 210.326 160.962C210.074 160.934 209.827 160.906 209.584 160.878C209.342 160.841 209.15 160.808 209.01 160.78L209.038 159.562C209.272 159.609 209.514 159.651 209.766 159.688C210.028 159.725 210.233 159.744 210.382 159.744C210.541 159.744 210.658 159.721 210.732 159.674C210.816 159.627 210.863 159.529 210.872 159.38C210.91 159.203 210.933 158.969 210.942 158.68C210.961 158.391 210.98 158.078 210.998 157.742C211.017 157.397 211.026 157.065 211.026 156.748C211.036 156.487 211.04 156.221 211.04 155.95C211.04 155.67 211.04 155.385 211.04 155.096C211.04 154.807 211.04 154.531 211.04 154.27C211.04 154.158 211.031 154.032 211.012 153.892C211.003 153.743 210.994 153.598 210.984 153.458C210.975 153.318 210.961 153.206 210.942 153.122H212.44ZM206.91 153.556C206.892 153.743 206.873 153.939 206.854 154.144C206.845 154.349 206.84 154.578 206.84 154.83C206.84 155.101 206.836 155.46 206.826 155.908C206.826 156.347 206.822 156.823 206.812 157.336C206.812 157.84 206.812 158.339 206.812 158.834C206.812 159.329 206.812 159.772 206.812 160.164C206.812 160.556 206.817 160.859 206.826 161.074C206.836 161.438 206.859 161.741 206.896 161.984C206.934 162.227 207.027 162.418 207.176 162.558C207.326 162.698 207.559 162.801 207.876 162.866C208.203 162.931 208.646 162.964 209.206 162.964C209.692 162.964 210.196 162.95 210.718 162.922C211.241 162.885 211.736 162.838 212.202 162.782C212.669 162.726 213.061 162.67 213.378 162.614L213.336 164.112C213.028 164.149 212.646 164.182 212.188 164.21C211.731 164.247 211.25 164.28 210.746 164.308C210.242 164.336 209.757 164.35 209.29 164.35C208.441 164.35 207.764 164.299 207.26 164.196C206.756 164.093 206.378 163.925 206.126 163.692C205.874 163.449 205.706 163.132 205.622 162.74C205.538 162.348 205.487 161.863 205.468 161.284C205.468 161.079 205.464 160.803 205.454 160.458C205.454 160.103 205.454 159.707 205.454 159.268C205.454 158.82 205.454 158.367 205.454 157.91C205.454 157.453 205.454 157.019 205.454 156.608C205.454 156.197 205.454 155.843 205.454 155.544C205.454 155.236 205.454 155.021 205.454 154.9C205.454 154.648 205.445 154.419 205.426 154.214C205.417 153.999 205.394 153.78 205.356 153.556H206.91ZM202.514 156.818C202.72 156.818 202.958 156.813 203.228 156.804C203.508 156.785 203.798 156.762 204.096 156.734C204.395 156.706 204.824 156.664 205.384 156.608C205.944 156.552 206.579 156.491 207.288 156.426C208.007 156.361 208.749 156.295 209.514 156.23C210.289 156.155 211.036 156.09 211.754 156.034C212.473 155.978 213.112 155.931 213.672 155.894C213.859 155.885 214.06 155.875 214.274 155.866C214.489 155.847 214.69 155.829 214.876 155.81V157.182C214.802 157.173 214.69 157.173 214.54 157.182C214.4 157.182 214.246 157.182 214.078 157.182C213.92 157.182 213.78 157.187 213.658 157.196C213.294 157.196 212.846 157.215 212.314 157.252C211.782 157.289 211.213 157.336 210.606 157.392C210 157.439 209.379 157.495 208.744 157.56C208.11 157.616 207.498 157.677 206.91 157.742C206.332 157.798 205.804 157.854 205.328 157.91C204.852 157.957 204.474 157.999 204.194 158.036C204.045 158.055 203.872 158.078 203.676 158.106C203.49 158.125 203.303 158.148 203.116 158.176C202.939 158.204 202.79 158.227 202.668 158.246L202.514 156.818ZM223.836 153.598C223.771 153.691 223.701 153.799 223.626 153.92C223.552 154.032 223.472 154.153 223.388 154.284C223.23 154.527 223.043 154.83 222.828 155.194C222.614 155.549 222.39 155.931 222.156 156.342C221.923 156.753 221.694 157.159 221.47 157.56C221.246 157.961 221.05 158.325 220.882 158.652C221.181 158.419 221.489 158.251 221.806 158.148C222.133 158.036 222.446 157.98 222.744 157.98C223.239 157.98 223.636 158.134 223.934 158.442C224.242 158.741 224.41 159.175 224.438 159.744C224.448 159.987 224.452 160.262 224.452 160.57C224.452 160.869 224.452 161.163 224.452 161.452C224.462 161.741 224.476 161.993 224.494 162.208C224.513 162.535 224.62 162.768 224.816 162.908C225.022 163.039 225.255 163.104 225.516 163.104C225.871 163.104 226.188 163.006 226.468 162.81C226.758 162.614 227.01 162.353 227.224 162.026C227.448 161.69 227.635 161.326 227.784 160.934C227.943 160.533 228.069 160.131 228.162 159.73L229.338 160.696C229.096 161.471 228.792 162.152 228.428 162.74C228.064 163.319 227.626 163.771 227.112 164.098C226.599 164.434 225.992 164.602 225.292 164.602C224.788 164.602 224.378 164.509 224.06 164.322C223.752 164.135 223.524 163.902 223.374 163.622C223.234 163.342 223.155 163.053 223.136 162.754C223.118 162.483 223.104 162.194 223.094 161.886C223.094 161.569 223.09 161.261 223.08 160.962C223.08 160.654 223.071 160.388 223.052 160.164C223.043 159.884 222.959 159.669 222.8 159.52C222.642 159.361 222.418 159.282 222.128 159.282C221.783 159.282 221.447 159.385 221.12 159.59C220.803 159.795 220.514 160.066 220.252 160.402C220 160.738 219.786 161.093 219.608 161.466C219.506 161.671 219.398 161.919 219.286 162.208C219.174 162.488 219.062 162.782 218.95 163.09C218.848 163.389 218.754 163.673 218.67 163.944C218.586 164.215 218.516 164.439 218.46 164.616L216.92 164.098C217.098 163.622 217.317 163.085 217.578 162.488C217.84 161.881 218.129 161.247 218.446 160.584C218.764 159.912 219.086 159.249 219.412 158.596C219.739 157.943 220.052 157.322 220.35 156.734C220.649 156.146 220.915 155.633 221.148 155.194C221.382 154.755 221.559 154.424 221.68 154.2C221.774 154.032 221.872 153.85 221.974 153.654C222.077 153.449 222.175 153.22 222.268 152.968L223.836 153.598Z" fill="#6B7280"/>
<rect x="32.5" y="218.5" width="1105" height="88" stroke="#E5E5E5"/>
<path d="M51.024 237.828H60.824V239.494H51.024V237.828ZM51.22 241.468H58.794V243.092H51.22V241.468ZM50.17 237.828H51.85V241.748C51.85 242.364 51.8267 243.041 51.78 243.778C51.7427 244.515 51.654 245.271 51.514 246.046C51.3833 246.821 51.1873 247.567 50.926 248.286C50.674 249.005 50.3427 249.653 49.932 250.232C49.8293 250.129 49.6893 250.013 49.512 249.882C49.344 249.751 49.1667 249.625 48.98 249.504C48.7933 249.392 48.6347 249.303 48.504 249.238C48.8867 248.706 49.19 248.123 49.414 247.488C49.638 246.853 49.806 246.205 49.918 245.542C50.03 244.87 50.1 244.212 50.128 243.568C50.156 242.915 50.17 242.308 50.17 241.748V237.828ZM58.346 241.468H58.682L58.99 241.398L60.18 241.874C59.8907 243.05 59.494 244.091 58.99 244.996C58.486 245.892 57.8887 246.681 57.198 247.362C56.5073 248.034 55.7327 248.603 54.874 249.07C54.0247 249.546 53.1007 249.943 52.102 250.26C52.0273 250.101 51.934 249.924 51.822 249.728C51.7193 249.541 51.6027 249.355 51.472 249.168C51.3507 248.981 51.234 248.827 51.122 248.706C52.018 248.482 52.8533 248.169 53.628 247.768C54.412 247.357 55.1167 246.863 55.742 246.284C56.3767 245.705 56.9133 245.043 57.352 244.296C57.8 243.54 58.1313 242.7 58.346 241.776V241.468ZM53.866 242.378C54.426 244.011 55.322 245.365 56.554 246.438C57.786 247.511 59.4007 248.263 61.398 248.692C61.2673 248.813 61.1273 248.967 60.978 249.154C60.838 249.341 60.7027 249.532 60.572 249.728C60.4507 249.924 60.348 250.101 60.264 250.26C58.8547 249.896 57.6367 249.383 56.61 248.72C55.5927 248.057 54.7293 247.236 54.02 246.256C53.32 245.267 52.732 244.123 52.256 242.826L53.866 242.378ZM68.846 240.222H75.538V241.832H68.846V240.222ZM62.644 239.27H69.308V240.824H62.644V239.27ZM72.374 237.1H74.04V248.16C74.04 248.636 73.9887 249.005 73.886 249.266C73.7833 249.537 73.5967 249.742 73.326 249.882C73.0553 250.031 72.71 250.129 72.29 250.176C71.87 250.223 71.366 250.246 70.778 250.246C70.7687 250.078 70.736 249.887 70.68 249.672C70.624 249.457 70.5587 249.238 70.484 249.014C70.4093 248.799 70.3347 248.608 70.26 248.44C70.652 248.459 71.016 248.468 71.352 248.468C71.688 248.468 71.9167 248.468 72.038 248.468C72.1593 248.468 72.2433 248.449 72.29 248.412C72.346 248.365 72.374 248.281 72.374 248.16V237.1ZM68.706 243.596L70.05 242.952C70.274 243.26 70.4887 243.591 70.694 243.946C70.9087 244.301 71.0953 244.651 71.254 244.996C71.4127 245.332 71.5293 245.645 71.604 245.934L70.148 246.662C70.0827 246.391 69.9753 246.079 69.826 245.724C69.686 245.369 69.518 245.005 69.322 244.632C69.126 244.259 68.9207 243.913 68.706 243.596ZM62.91 242.798L64.1 241.832C64.5107 242.28 64.9353 242.756 65.374 243.26C65.8127 243.764 66.2373 244.277 66.648 244.8C67.068 245.323 67.4413 245.831 67.768 246.326C68.0947 246.811 68.3607 247.264 68.566 247.684L67.236 248.832C67.0493 248.412 66.7973 247.95 66.48 247.446C66.1627 246.942 65.8033 246.419 65.402 245.878C65.01 245.337 64.5993 244.805 64.17 244.282C63.75 243.75 63.33 243.255 62.91 242.798ZM65.094 237.114H66.704V240.222H65.094V237.114ZM66.62 241.104L68.258 241.328C68.0247 242.681 67.698 243.913 67.278 245.024C66.858 246.125 66.3307 247.105 65.696 247.964C65.0613 248.813 64.2913 249.541 63.386 250.148C63.3207 250.036 63.218 249.896 63.078 249.728C62.9473 249.56 62.8073 249.392 62.658 249.224C62.5087 249.065 62.3733 248.935 62.252 248.832C63.1107 248.337 63.8293 247.717 64.408 246.97C64.9867 246.214 65.4533 245.346 65.808 244.366C66.172 243.386 66.4427 242.299 66.62 241.104ZM81.922 241.734V242.952H83.168V241.734H81.922ZM81.922 244.198V245.43H83.168V244.198H81.922ZM81.922 239.284V240.488H83.168V239.284H81.922ZM80.522 237.94H84.638V246.76H80.522V237.94ZM82.762 247.474L83.952 246.816C84.1947 247.18 84.4327 247.581 84.666 248.02C84.9087 248.459 85.086 248.837 85.198 249.154L83.924 249.91C83.8587 249.695 83.7607 249.448 83.63 249.168C83.5087 248.888 83.3687 248.599 83.21 248.3C83.0607 248.001 82.9113 247.726 82.762 247.474ZM85.38 238.654H86.822V247.026H85.38V238.654ZM87.662 237.324H89.188V248.398C89.188 248.809 89.1413 249.131 89.048 249.364C88.964 249.607 88.8053 249.789 88.572 249.91C88.3387 250.05 88.0447 250.139 87.69 250.176C87.3353 250.223 86.9107 250.246 86.416 250.246C86.388 250.022 86.3273 249.756 86.234 249.448C86.15 249.14 86.0567 248.874 85.954 248.65C86.2713 248.659 86.5653 248.664 86.836 248.664C87.1067 248.664 87.2887 248.664 87.382 248.664C87.4847 248.664 87.5547 248.645 87.592 248.608C87.6387 248.561 87.662 248.491 87.662 248.398V237.324ZM81.222 246.802L82.566 247.53C82.426 247.829 82.2487 248.146 82.034 248.482C81.8287 248.809 81.614 249.121 81.39 249.42C81.166 249.728 80.9467 249.989 80.732 250.204C80.592 250.073 80.4053 249.919 80.172 249.742C79.948 249.565 79.7427 249.415 79.556 249.294C79.78 249.089 79.9947 248.846 80.2 248.566C80.4147 248.277 80.6107 247.978 80.788 247.67C80.9653 247.353 81.11 247.063 81.222 246.802ZM78.94 237.128L80.494 237.59C80.2327 238.402 79.9153 239.223 79.542 240.054C79.178 240.885 78.7767 241.673 78.338 242.42C77.8993 243.157 77.442 243.806 76.966 244.366C76.9287 244.235 76.8633 244.053 76.77 243.82C76.6767 243.587 76.574 243.353 76.462 243.12C76.35 242.887 76.252 242.695 76.168 242.546C76.5413 242.107 76.9007 241.599 77.246 241.02C77.6007 240.441 77.9227 239.821 78.212 239.158C78.5013 238.486 78.744 237.809 78.94 237.128ZM77.82 240.978L79.374 239.424L79.416 239.452V250.246H77.82V240.978Z" fill="black"/>
<path d="M59.0778 275.102C59.0778 275.345 59.1618 275.55 59.3298 275.718C59.4978 275.886 59.7032 275.97 59.9458 275.97C60.1885 275.97 60.3938 275.886 60.5618 275.718C60.7392 275.55 60.8278 275.345 60.8278 275.102C60.8278 274.859 60.7392 274.654 60.5618 274.486C60.3938 274.309 60.1885 274.22 59.9458 274.22C59.7032 274.22 59.4978 274.309 59.3298 274.486C59.1618 274.654 59.0778 274.859 59.0778 275.102ZM58.3358 275.102C58.3358 274.803 58.4058 274.533 58.5458 274.29C58.6952 274.047 58.8912 273.851 59.1338 273.702C59.3765 273.553 59.6472 273.478 59.9458 273.478C60.2445 273.478 60.5152 273.553 60.7578 273.702C61.0005 273.851 61.1965 274.047 61.3458 274.29C61.4952 274.533 61.5698 274.803 61.5698 275.102C61.5698 275.401 61.4952 275.671 61.3458 275.914C61.1965 276.157 61.0005 276.353 60.7578 276.502C60.5152 276.642 60.2445 276.712 59.9458 276.712C59.6472 276.712 59.3765 276.642 59.1338 276.502C58.8912 276.353 58.6952 276.157 58.5458 275.914C58.4058 275.671 58.3358 275.401 58.3358 275.102ZM50.9018 280.73C51.0512 280.347 51.1958 279.941 51.3358 279.512C51.4852 279.083 51.6205 278.639 51.7418 278.182C51.8632 277.715 51.9658 277.253 52.0498 276.796C52.1432 276.339 52.2132 275.9 52.2598 275.48L53.8418 275.802C53.8138 275.923 53.7812 276.059 53.7438 276.208C53.7065 276.348 53.6692 276.488 53.6318 276.628C53.6038 276.768 53.5758 276.889 53.5478 276.992C53.5012 277.216 53.4358 277.505 53.3518 277.86C53.2772 278.205 53.1838 278.579 53.0718 278.98C52.9598 279.372 52.8385 279.773 52.7078 280.184C52.5865 280.585 52.4558 280.959 52.3158 281.304C52.1478 281.743 51.9518 282.195 51.7278 282.662C51.5038 283.119 51.2658 283.567 51.0138 284.006C50.7618 284.445 50.5098 284.846 50.2578 285.21L48.7318 284.566C49.1705 283.987 49.5812 283.353 49.9638 282.662C50.3465 281.962 50.6592 281.318 50.9018 280.73ZM57.8038 280.296C57.6638 279.932 57.5052 279.545 57.3278 279.134C57.1598 278.723 56.9825 278.313 56.7958 277.902C56.6185 277.482 56.4412 277.09 56.2638 276.726C56.0865 276.362 55.9232 276.049 55.7738 275.788L57.2158 275.312C57.3558 275.573 57.5145 275.886 57.6918 276.25C57.8785 276.614 58.0652 277.006 58.2518 277.426C58.4385 277.837 58.6205 278.247 58.7978 278.658C58.9752 279.069 59.1338 279.451 59.2738 279.806C59.4045 280.142 59.5445 280.52 59.6938 280.94C59.8525 281.36 60.0065 281.794 60.1558 282.242C60.3145 282.681 60.4592 283.11 60.5898 283.53C60.7205 283.941 60.8325 284.314 60.9258 284.65L59.3298 285.168C59.2085 284.655 59.0638 284.118 58.8958 283.558C58.7278 282.998 58.5505 282.438 58.3638 281.878C58.1865 281.318 57.9998 280.791 57.8038 280.296ZM63.1378 279.778C64.3698 279.451 65.4992 279.064 66.5258 278.616C67.5618 278.159 68.4672 277.687 69.2418 277.202C69.7365 276.903 70.2172 276.567 70.6838 276.194C71.1598 275.821 71.6078 275.433 72.0278 275.032C72.4478 274.631 72.8165 274.243 73.1338 273.87L74.3098 274.99C73.8992 275.41 73.4558 275.825 72.9798 276.236C72.5038 276.647 71.9998 277.043 71.4678 277.426C70.9452 277.799 70.4085 278.154 69.8578 278.49C69.3445 278.807 68.7612 279.129 68.1078 279.456C67.4545 279.773 66.7638 280.081 66.0358 280.38C65.3078 280.669 64.5705 280.931 63.8238 281.164L63.1378 279.778ZM68.9898 277.93L70.5438 277.524V283.866C70.5438 284.053 70.5438 284.258 70.5438 284.482C70.5532 284.697 70.5625 284.897 70.5718 285.084C70.5905 285.271 70.6138 285.415 70.6418 285.518H68.9058C68.9152 285.415 68.9292 285.271 68.9478 285.084C68.9665 284.897 68.9758 284.697 68.9758 284.482C68.9852 284.258 68.9898 284.053 68.9898 283.866V277.93ZM87.4138 274.85C87.4138 275.093 87.4978 275.298 87.6658 275.466C87.8338 275.634 88.0392 275.718 88.2818 275.718C88.5245 275.718 88.7298 275.634 88.8978 275.466C89.0752 275.298 89.1638 275.093 89.1638 274.85C89.1638 274.607 89.0752 274.402 88.8978 274.234C88.7298 274.057 88.5245 273.968 88.2818 273.968C88.0392 273.968 87.8338 274.057 87.6658 274.234C87.4978 274.402 87.4138 274.607 87.4138 274.85ZM86.6718 274.85C86.6718 274.551 86.7418 274.281 86.8818 274.038C87.0312 273.795 87.2272 273.604 87.4698 273.464C87.7125 273.315 87.9832 273.24 88.2818 273.24C88.5805 273.24 88.8512 273.315 89.0938 273.464C89.3365 273.604 89.5325 273.795 89.6818 274.038C89.8312 274.281 89.9058 274.551 89.9058 274.85C89.9058 275.149 89.8312 275.419 89.6818 275.662C89.5325 275.905 89.3365 276.101 89.0938 276.25C88.8512 276.39 88.5805 276.46 88.2818 276.46C87.9832 276.46 87.7125 276.39 87.4698 276.25C87.2272 276.101 87.0312 275.905 86.8818 275.662C86.7418 275.419 86.6718 275.149 86.6718 274.85ZM88.0998 275.872C88.0438 275.984 87.9925 276.11 87.9458 276.25C87.9085 276.39 87.8758 276.535 87.8478 276.684C87.7638 277.039 87.6612 277.435 87.5398 277.874C87.4278 278.313 87.2832 278.765 87.1058 279.232C86.9378 279.699 86.7372 280.156 86.5038 280.604C86.2798 281.043 86.0278 281.449 85.7478 281.822C85.3185 282.363 84.8332 282.877 84.2918 283.362C83.7598 283.838 83.1532 284.267 82.4718 284.65C81.7905 285.023 81.0298 285.345 80.1898 285.616L78.9858 284.3C79.9005 284.067 80.6938 283.787 81.3658 283.46C82.0378 283.133 82.6212 282.76 83.1158 282.34C83.6198 281.911 84.0678 281.453 84.4598 280.968C84.7772 280.557 85.0525 280.1 85.2858 279.596C85.5285 279.092 85.7245 278.588 85.8738 278.084C86.0325 277.571 86.1445 277.099 86.2098 276.67C86.0698 276.67 85.8272 276.67 85.4818 276.67C85.1365 276.67 84.7305 276.67 84.2638 276.67C83.7972 276.67 83.3072 276.67 82.7938 276.67C82.2805 276.67 81.7905 276.67 81.3238 276.67C80.8572 276.67 80.4418 276.67 80.0778 276.67C79.7232 276.67 79.4712 276.67 79.3218 276.67C79.0232 276.67 78.7432 276.675 78.4818 276.684C78.2205 276.693 77.9965 276.707 77.8098 276.726V275.158C77.9498 275.167 78.1038 275.181 78.2718 275.2C78.4492 275.219 78.6312 275.233 78.8178 275.242C79.0045 275.251 79.1725 275.256 79.3218 275.256C79.4525 275.256 79.6578 275.256 79.9378 275.256C80.2272 275.256 80.5632 275.256 80.9458 275.256C81.3285 275.256 81.7298 275.256 82.1498 275.256C82.5792 275.256 83.0038 275.256 83.4238 275.256C83.8532 275.256 84.2498 275.256 84.6138 275.256C84.9872 275.256 85.3045 275.256 85.5658 275.256C85.8365 275.256 86.0185 275.256 86.1118 275.256C86.2332 275.256 86.3732 275.251 86.5318 275.242C86.6998 275.233 86.8585 275.209 87.0078 275.172L88.0998 275.872ZM95.7438 276.586C96.1452 276.623 96.5418 276.656 96.9338 276.684C97.3352 276.703 97.7458 276.712 98.1658 276.712C99.0058 276.712 99.8458 276.675 100.686 276.6C101.526 276.525 102.305 276.418 103.024 276.278V277.636C102.277 277.757 101.484 277.846 100.644 277.902C99.8132 277.958 98.9825 277.991 98.1518 278C97.7412 278 97.3398 277.991 96.9478 277.972C96.5652 277.953 96.1685 277.93 95.7578 277.902L95.7438 276.586ZM100.826 274.136C100.807 274.276 100.788 274.421 100.77 274.57C100.76 274.719 100.751 274.864 100.742 275.004C100.732 275.163 100.723 275.373 100.714 275.634C100.714 275.895 100.709 276.18 100.7 276.488C100.7 276.787 100.7 277.085 100.7 277.384C100.7 277.972 100.709 278.537 100.728 279.078C100.756 279.619 100.784 280.133 100.812 280.618C100.84 281.103 100.863 281.561 100.882 281.99C100.9 282.41 100.91 282.793 100.91 283.138C100.91 283.455 100.868 283.759 100.784 284.048C100.7 284.337 100.56 284.594 100.364 284.818C100.168 285.042 99.9018 285.215 99.5658 285.336C99.2392 285.467 98.8332 285.532 98.3478 285.532C97.3958 285.532 96.6585 285.345 96.1358 284.972C95.6132 284.599 95.3518 284.076 95.3518 283.404C95.3518 282.975 95.4685 282.592 95.7018 282.256C95.9445 281.92 96.2852 281.654 96.7238 281.458C97.1718 281.262 97.7085 281.164 98.3338 281.164C98.9592 281.164 99.5285 281.234 100.042 281.374C100.555 281.505 101.031 281.687 101.47 281.92C101.908 282.144 102.3 282.391 102.646 282.662C103 282.933 103.322 283.194 103.612 283.446L102.856 284.622C102.352 284.137 101.848 283.717 101.344 283.362C100.849 283.007 100.345 282.732 99.8318 282.536C99.3185 282.34 98.7818 282.242 98.2218 282.242C97.7458 282.242 97.3585 282.335 97.0598 282.522C96.7705 282.709 96.6258 282.951 96.6258 283.25C96.6258 283.577 96.7705 283.824 97.0598 283.992C97.3492 284.151 97.7178 284.23 98.1658 284.23C98.5112 284.23 98.7818 284.174 98.9778 284.062C99.1738 283.95 99.3138 283.787 99.3978 283.572C99.4818 283.357 99.5238 283.105 99.5238 282.816C99.5238 282.573 99.5145 282.247 99.4958 281.836C99.4772 281.416 99.4538 280.959 99.4258 280.464C99.3978 279.96 99.3745 279.447 99.3558 278.924C99.3372 278.392 99.3278 277.883 99.3278 277.398C99.3278 276.894 99.3278 276.432 99.3278 276.012C99.3278 275.583 99.3278 275.256 99.3278 275.032C99.3278 274.911 99.3185 274.766 99.2998 274.598C99.2905 274.421 99.2718 274.267 99.2438 274.136H100.826ZM93.9518 274.262C93.9238 274.337 93.8912 274.444 93.8538 274.584C93.8165 274.724 93.7792 274.864 93.7418 275.004C93.7138 275.144 93.6905 275.256 93.6718 275.34C93.6252 275.564 93.5692 275.853 93.5038 276.208C93.4478 276.553 93.3872 276.936 93.3218 277.356C93.2658 277.767 93.2098 278.187 93.1538 278.616C93.1072 279.045 93.0652 279.456 93.0278 279.848C92.9998 280.24 92.9858 280.585 92.9858 280.884C92.9858 281.127 92.9952 281.374 93.0138 281.626C93.0325 281.869 93.0605 282.121 93.0978 282.382C93.1632 282.186 93.2378 281.985 93.3218 281.78C93.4058 281.565 93.4898 281.355 93.5738 281.15C93.6672 280.945 93.7512 280.758 93.8258 280.59L94.5258 281.136C94.4045 281.491 94.2738 281.873 94.1338 282.284C93.9938 282.685 93.8678 283.068 93.7558 283.432C93.6532 283.796 93.5738 284.099 93.5178 284.342C93.4992 284.435 93.4805 284.547 93.4618 284.678C93.4525 284.799 93.4478 284.902 93.4478 284.986C93.4572 285.051 93.4618 285.131 93.4618 285.224C93.4712 285.327 93.4805 285.42 93.4898 285.504L92.2438 285.602C92.0945 285.107 91.9638 284.482 91.8518 283.726C91.7492 282.961 91.6978 282.102 91.6978 281.15C91.6978 280.627 91.7212 280.086 91.7678 279.526C91.8145 278.957 91.8705 278.401 91.9358 277.86C92.0105 277.319 92.0805 276.824 92.1458 276.376C92.2112 275.928 92.2672 275.564 92.3138 275.284C92.3325 275.107 92.3512 274.915 92.3698 274.71C92.3978 274.505 92.4165 274.309 92.4258 274.122L93.9518 274.262ZM111.172 273.604H112.418V275.312C112.418 275.732 112.371 276.175 112.278 276.642C112.194 277.099 112.021 277.543 111.76 277.972C111.508 278.401 111.134 278.784 110.64 279.12C110.584 279.036 110.495 278.938 110.374 278.826C110.252 278.714 110.126 278.607 109.996 278.504C109.865 278.392 109.753 278.313 109.66 278.266C110.098 277.967 110.425 277.65 110.64 277.314C110.854 276.978 110.994 276.637 111.06 276.292C111.134 275.947 111.172 275.611 111.172 275.284V273.604ZM114.462 273.604H115.708V276.922C115.708 277.09 115.722 277.197 115.75 277.244C115.778 277.291 115.843 277.314 115.946 277.314C115.974 277.314 116.025 277.314 116.1 277.314C116.174 277.314 116.249 277.314 116.324 277.314C116.408 277.314 116.464 277.314 116.492 277.314C116.566 277.314 116.622 277.281 116.66 277.216C116.697 277.151 116.725 277.011 116.744 276.796C116.762 276.581 116.776 276.259 116.786 275.83C116.907 275.933 117.075 276.026 117.29 276.11C117.514 276.194 117.71 276.259 117.878 276.306C117.85 276.866 117.789 277.305 117.696 277.622C117.602 277.93 117.472 278.145 117.304 278.266C117.136 278.387 116.912 278.448 116.632 278.448C116.566 278.448 116.473 278.448 116.352 278.448C116.24 278.448 116.123 278.448 116.002 278.448C115.88 278.448 115.787 278.448 115.722 278.448C115.404 278.448 115.152 278.406 114.966 278.322C114.779 278.229 114.648 278.075 114.574 277.86C114.499 277.636 114.462 277.328 114.462 276.936V273.604ZM112.166 280.45C112.651 281.561 113.388 282.517 114.378 283.32C115.367 284.123 116.543 284.692 117.906 285.028C117.812 285.112 117.71 285.224 117.598 285.364C117.486 285.504 117.378 285.644 117.276 285.784C117.182 285.924 117.103 286.05 117.038 286.162C115.619 285.742 114.401 285.079 113.384 284.174C112.376 283.259 111.578 282.139 110.99 280.814L112.166 280.45ZM115.75 279.232H116.002L116.226 279.19L117.094 279.512C116.851 280.436 116.515 281.262 116.086 281.99C115.656 282.709 115.148 283.339 114.56 283.88C113.981 284.421 113.342 284.879 112.642 285.252C111.942 285.635 111.195 285.943 110.402 286.176C110.364 286.055 110.304 285.919 110.22 285.77C110.136 285.63 110.047 285.49 109.954 285.35C109.86 285.21 109.772 285.093 109.688 285C110.406 284.823 111.088 284.575 111.732 284.258C112.376 283.931 112.964 283.539 113.496 283.082C114.028 282.615 114.485 282.079 114.868 281.472C115.25 280.865 115.544 280.189 115.75 279.442V279.232ZM110.36 279.232H116.268V280.436H110.36V279.232ZM111.676 273.604H115.12V274.78H111.676V273.604ZM105.432 277.44H109.688V278.462H105.432V277.44ZM105.502 273.646H109.66V274.682H105.502V273.646ZM105.432 279.33H109.688V280.352H105.432V279.33ZM104.774 275.508H110.178V276.572H104.774V275.508ZM106.048 281.248H109.66V285.406H106.048V284.342H108.512V282.312H106.048V281.248ZM105.404 281.248H106.552V286.008H105.404V281.248ZM121.378 277.44H129.372V278.7H121.378V277.44ZM125.354 280.786H130.072V282.032H125.354V280.786ZM124.654 278.14H126.026V285.084L124.654 284.902V278.14ZM121.322 279.722L122.694 279.862C122.507 281.281 122.185 282.531 121.728 283.614C121.27 284.687 120.645 285.569 119.852 286.26C119.786 286.176 119.684 286.073 119.544 285.952C119.413 285.84 119.273 285.728 119.124 285.616C118.984 285.504 118.862 285.415 118.76 285.35C119.534 284.771 120.118 284.001 120.51 283.04C120.911 282.069 121.182 280.963 121.322 279.722ZM122.288 281.5C122.521 282.181 122.824 282.737 123.198 283.166C123.571 283.586 124 283.908 124.486 284.132C124.98 284.347 125.522 284.496 126.11 284.58C126.698 284.655 127.328 284.692 128 284.692C128.13 284.692 128.317 284.692 128.56 284.692C128.802 284.692 129.073 284.692 129.372 284.692C129.68 284.692 129.988 284.692 130.296 284.692C130.613 284.683 130.902 284.678 131.164 284.678C131.434 284.678 131.649 284.673 131.808 284.664C131.742 284.767 131.677 284.897 131.612 285.056C131.546 285.224 131.486 285.392 131.43 285.56C131.383 285.728 131.346 285.877 131.318 286.008H130.618H127.93C127.108 286.008 126.352 285.952 125.662 285.84C124.971 285.728 124.346 285.527 123.786 285.238C123.226 284.949 122.731 284.533 122.302 283.992C121.872 283.451 121.508 282.751 121.21 281.892L122.288 281.5ZM124.626 273.198H126.04V275.578H124.626V273.198ZM119.432 274.71H131.276V277.972H129.918V275.97H120.734V277.972H119.432V274.71ZM139.648 275.074C139.601 274.915 139.545 274.733 139.48 274.528C139.414 274.313 139.34 274.099 139.256 273.884L140.768 273.702C140.814 274.01 140.884 274.341 140.978 274.696C141.071 275.041 141.174 275.387 141.286 275.732C141.398 276.077 141.505 276.404 141.608 276.712C141.822 277.3 142.084 277.888 142.392 278.476C142.709 279.055 143.003 279.526 143.274 279.89C143.376 280.039 143.484 280.184 143.596 280.324C143.708 280.464 143.824 280.595 143.946 280.716L143.246 281.724C143.059 281.677 142.821 281.635 142.532 281.598C142.252 281.561 141.944 281.523 141.608 281.486C141.281 281.449 140.95 281.416 140.614 281.388C140.287 281.36 139.988 281.332 139.718 281.304L139.816 280.142C140.068 280.161 140.334 280.184 140.614 280.212C140.894 280.231 141.16 280.254 141.412 280.282C141.664 280.301 141.869 280.319 142.028 280.338C141.841 280.049 141.64 279.717 141.426 279.344C141.22 278.971 141.02 278.583 140.824 278.182C140.628 277.771 140.455 277.361 140.306 276.95C140.156 276.558 140.026 276.203 139.914 275.886C139.811 275.569 139.722 275.298 139.648 275.074ZM134.538 275.97C135.359 276.063 136.143 276.129 136.89 276.166C137.636 276.203 138.341 276.213 139.004 276.194C139.666 276.175 140.268 276.138 140.81 276.082C141.202 276.035 141.603 275.979 142.014 275.914C142.424 275.839 142.83 275.755 143.232 275.662C143.642 275.569 144.03 275.461 144.394 275.34L144.562 276.74C144.244 276.824 143.894 276.908 143.512 276.992C143.138 277.067 142.756 277.137 142.364 277.202C141.972 277.258 141.598 277.309 141.244 277.356C140.338 277.459 139.33 277.515 138.22 277.524C137.109 277.533 135.891 277.487 134.566 277.384L134.538 275.97ZM136.988 280.562C136.773 280.898 136.605 281.225 136.484 281.542C136.372 281.85 136.316 282.167 136.316 282.494C136.316 283.119 136.586 283.577 137.128 283.866C137.678 284.155 138.458 284.305 139.466 284.314C140.203 284.323 140.875 284.295 141.482 284.23C142.088 284.165 142.639 284.081 143.134 283.978L143.064 285.378C142.644 285.453 142.126 285.523 141.51 285.588C140.903 285.663 140.194 285.695 139.382 285.686C138.467 285.686 137.674 285.569 137.002 285.336C136.33 285.112 135.812 284.781 135.448 284.342C135.084 283.894 134.902 283.348 134.902 282.704C134.902 282.293 134.962 281.892 135.084 281.5C135.214 281.108 135.387 280.693 135.602 280.254L136.988 280.562ZM160.144 284.076C159.789 284.421 159.397 284.697 158.968 284.902C158.538 285.098 158.062 285.196 157.54 285.196C157.045 285.196 156.648 285.033 156.35 284.706C156.051 284.379 155.902 283.903 155.902 283.278C155.902 282.895 155.925 282.48 155.972 282.032C156.028 281.584 156.088 281.131 156.154 280.674C156.219 280.207 156.28 279.764 156.336 279.344C156.392 278.924 156.42 278.551 156.42 278.224C156.42 277.841 156.326 277.561 156.14 277.384C155.953 277.207 155.692 277.118 155.356 277.118C155.029 277.118 154.665 277.221 154.264 277.426C153.862 277.631 153.452 277.907 153.032 278.252C152.612 278.588 152.206 278.957 151.814 279.358C151.422 279.75 151.072 280.137 150.764 280.52L150.778 278.798C150.946 278.611 151.165 278.392 151.436 278.14C151.716 277.879 152.028 277.613 152.374 277.342C152.719 277.071 153.083 276.819 153.466 276.586C153.858 276.353 154.245 276.166 154.628 276.026C155.02 275.877 155.393 275.802 155.748 275.802C156.214 275.802 156.597 275.886 156.896 276.054C157.204 276.222 157.432 276.455 157.582 276.754C157.731 277.043 157.806 277.384 157.806 277.776C157.806 278.121 157.778 278.518 157.722 278.966C157.675 279.405 157.619 279.857 157.554 280.324C157.488 280.781 157.428 281.234 157.372 281.682C157.325 282.121 157.302 282.522 157.302 282.886C157.302 283.091 157.353 283.269 157.456 283.418C157.568 283.567 157.731 283.642 157.946 283.642C158.254 283.642 158.576 283.549 158.912 283.362C159.257 283.166 159.598 282.895 159.934 282.55L160.144 284.076ZM150.61 277.398C150.488 277.417 150.311 277.44 150.078 277.468C149.844 277.496 149.588 277.529 149.308 277.566C149.028 277.603 148.743 277.641 148.454 277.678C148.174 277.715 147.908 277.753 147.656 277.79L147.516 276.362C147.693 276.371 147.861 276.376 148.02 276.376C148.178 276.367 148.36 276.357 148.566 276.348C148.771 276.329 149.018 276.306 149.308 276.278C149.606 276.241 149.914 276.203 150.232 276.166C150.549 276.119 150.848 276.073 151.128 276.026C151.408 275.97 151.627 275.914 151.786 275.858L152.248 276.446C152.173 276.558 152.08 276.698 151.968 276.866C151.865 277.025 151.758 277.188 151.646 277.356C151.543 277.524 151.454 277.673 151.38 277.804L150.778 280.03C150.619 280.273 150.423 280.562 150.19 280.898C149.966 281.234 149.728 281.589 149.476 281.962C149.224 282.326 148.972 282.69 148.72 283.054C148.477 283.409 148.253 283.726 148.048 284.006L147.18 282.788C147.348 282.573 147.548 282.312 147.782 282.004C148.024 281.696 148.272 281.369 148.524 281.024C148.785 280.679 149.042 280.333 149.294 279.988C149.546 279.643 149.774 279.325 149.98 279.036C150.185 278.737 150.348 278.49 150.47 278.294L150.512 277.72L150.61 277.398ZM150.47 274.92C150.47 274.743 150.465 274.556 150.456 274.36C150.456 274.164 150.442 273.973 150.414 273.786L152.038 273.842C152 274.038 151.949 274.337 151.884 274.738C151.828 275.139 151.772 275.606 151.716 276.138C151.66 276.67 151.604 277.23 151.548 277.818C151.501 278.406 151.464 278.989 151.436 279.568C151.408 280.147 151.394 280.683 151.394 281.178C151.394 281.579 151.394 281.967 151.394 282.34C151.394 282.713 151.398 283.087 151.408 283.46C151.426 283.833 151.445 284.235 151.464 284.664C151.473 284.785 151.482 284.935 151.492 285.112C151.51 285.299 151.524 285.467 151.534 285.616H150.022C150.04 285.467 150.05 285.303 150.05 285.126C150.059 284.949 150.064 284.804 150.064 284.692C150.064 284.244 150.064 283.838 150.064 283.474C150.073 283.101 150.078 282.718 150.078 282.326C150.087 281.925 150.101 281.453 150.12 280.912C150.12 280.697 150.129 280.417 150.148 280.072C150.166 279.727 150.19 279.344 150.218 278.924C150.246 278.504 150.274 278.079 150.302 277.65C150.33 277.221 150.353 276.815 150.372 276.432C150.4 276.049 150.423 275.723 150.442 275.452C150.46 275.181 150.47 275.004 150.47 274.92ZM161.246 275.55C161.517 275.541 161.769 275.531 162.002 275.522C162.235 275.503 162.417 275.489 162.548 275.48C162.8 275.461 163.136 275.433 163.556 275.396C163.985 275.349 164.471 275.303 165.012 275.256C165.553 275.2 166.132 275.149 166.748 275.102C167.364 275.046 167.994 274.99 168.638 274.934C169.142 274.887 169.627 274.85 170.094 274.822C170.561 274.785 170.999 274.757 171.41 274.738C171.821 274.71 172.185 274.691 172.502 274.682V276.096C172.25 276.096 171.956 276.101 171.62 276.11C171.293 276.119 170.967 276.138 170.64 276.166C170.313 276.194 170.029 276.241 169.786 276.306C169.319 276.446 168.895 276.665 168.512 276.964C168.129 277.263 167.803 277.608 167.532 278C167.261 278.392 167.051 278.807 166.902 279.246C166.753 279.675 166.678 280.1 166.678 280.52C166.678 281.024 166.767 281.467 166.944 281.85C167.121 282.233 167.364 282.559 167.672 282.83C167.98 283.091 168.33 283.311 168.722 283.488C169.123 283.656 169.548 283.782 169.996 283.866C170.453 283.95 170.915 284.001 171.382 284.02L170.864 285.504C170.313 285.485 169.767 285.406 169.226 285.266C168.694 285.126 168.185 284.935 167.7 284.692C167.224 284.44 166.799 284.132 166.426 283.768C166.062 283.395 165.773 282.965 165.558 282.48C165.353 281.995 165.25 281.439 165.25 280.814C165.25 280.114 165.367 279.465 165.6 278.868C165.843 278.271 166.146 277.753 166.51 277.314C166.883 276.866 167.257 276.516 167.63 276.264C167.35 276.301 167.005 276.343 166.594 276.39C166.183 276.427 165.74 276.474 165.264 276.53C164.797 276.577 164.326 276.633 163.85 276.698C163.374 276.754 162.921 276.815 162.492 276.88C162.072 276.945 161.708 277.015 161.4 277.09L161.246 275.55ZM177.556 275.13C177.528 275.261 177.505 275.419 177.486 275.606C177.467 275.793 177.449 275.979 177.43 276.166C177.421 276.353 177.416 276.511 177.416 276.642C177.416 276.931 177.416 277.253 177.416 277.608C177.425 277.963 177.435 278.327 177.444 278.7C177.453 279.064 177.477 279.428 177.514 279.792C177.589 280.529 177.701 281.173 177.85 281.724C177.999 282.275 178.191 282.704 178.424 283.012C178.657 283.32 178.928 283.474 179.236 283.474C179.413 283.474 179.581 283.39 179.74 283.222C179.899 283.054 180.048 282.83 180.188 282.55C180.328 282.27 180.454 281.967 180.566 281.64C180.687 281.304 180.79 280.982 180.874 280.674L181.98 281.976C181.681 282.769 181.383 283.404 181.084 283.88C180.795 284.347 180.496 284.683 180.188 284.888C179.88 285.093 179.553 285.196 179.208 285.196C178.741 285.196 178.293 285.037 177.864 284.72C177.444 284.393 177.08 283.861 176.772 283.124C176.464 282.387 176.245 281.402 176.114 280.17C176.067 279.759 176.03 279.316 176.002 278.84C175.983 278.364 175.969 277.911 175.96 277.482C175.96 277.053 175.96 276.698 175.96 276.418C175.96 276.241 175.951 276.026 175.932 275.774C175.923 275.513 175.895 275.289 175.848 275.102L177.556 275.13ZM184.724 275.48C184.976 275.807 185.219 276.189 185.452 276.628C185.695 277.057 185.914 277.524 186.11 278.028C186.306 278.532 186.479 279.045 186.628 279.568C186.787 280.091 186.917 280.609 187.02 281.122C187.123 281.635 187.193 282.121 187.23 282.578L185.788 283.138C185.732 282.531 185.639 281.897 185.508 281.234C185.377 280.571 185.209 279.918 185.004 279.274C184.799 278.621 184.556 278.009 184.276 277.44C184.005 276.861 183.693 276.362 183.338 275.942L184.724 275.48ZM196.442 273.8C196.433 273.931 196.419 274.075 196.4 274.234C196.391 274.383 196.381 274.556 196.372 274.752C196.363 274.911 196.353 275.139 196.344 275.438C196.344 275.737 196.339 276.068 196.33 276.432C196.33 276.787 196.33 277.146 196.33 277.51C196.33 277.865 196.33 278.191 196.33 278.49C196.33 278.919 196.339 279.386 196.358 279.89C196.386 280.385 196.414 280.875 196.442 281.36C196.47 281.845 196.493 282.293 196.512 282.704C196.54 283.115 196.554 283.451 196.554 283.712C196.554 284.067 196.465 284.398 196.288 284.706C196.111 285.014 195.831 285.261 195.448 285.448C195.065 285.644 194.566 285.742 193.95 285.742C192.895 285.742 192.093 285.551 191.542 285.168C190.991 284.795 190.716 284.258 190.716 283.558C190.716 283.11 190.847 282.718 191.108 282.382C191.379 282.046 191.761 281.785 192.256 281.598C192.76 281.402 193.357 281.304 194.048 281.304C194.795 281.304 195.495 281.388 196.148 281.556C196.811 281.724 197.413 281.939 197.954 282.2C198.505 282.461 198.99 282.737 199.41 283.026C199.83 283.306 200.185 283.558 200.474 283.782L199.662 285.028C199.335 284.729 198.967 284.426 198.556 284.118C198.145 283.81 197.693 283.53 197.198 283.278C196.703 283.026 196.176 282.825 195.616 282.676C195.065 282.527 194.482 282.452 193.866 282.452C193.269 282.452 192.811 282.555 192.494 282.76C192.186 282.956 192.032 283.194 192.032 283.474C192.032 283.67 192.093 283.847 192.214 284.006C192.345 284.155 192.536 284.277 192.788 284.37C193.04 284.454 193.367 284.496 193.768 284.496C194.029 284.496 194.263 284.463 194.468 284.398C194.683 284.333 194.851 284.221 194.972 284.062C195.093 283.894 195.154 283.661 195.154 283.362C195.154 283.119 195.145 282.793 195.126 282.382C195.107 281.971 195.089 281.528 195.07 281.052C195.061 280.567 195.047 280.1 195.028 279.652C195.009 279.195 195 278.807 195 278.49C195 278.163 195 277.827 195 277.482C195.009 277.127 195.014 276.782 195.014 276.446C195.014 276.101 195.014 275.779 195.014 275.48C195.014 275.172 195.014 274.906 195.014 274.682C195.014 274.561 195.009 274.411 195 274.234C194.991 274.047 194.972 273.903 194.944 273.8H196.442ZM190.898 275.228C191.131 275.265 191.402 275.303 191.71 275.34C192.027 275.377 192.349 275.415 192.676 275.452C193.012 275.48 193.329 275.503 193.628 275.522C193.927 275.531 194.188 275.536 194.412 275.536C195.336 275.536 196.265 275.503 197.198 275.438C198.131 275.373 199.074 275.261 200.026 275.102V276.39C199.522 276.446 198.962 276.502 198.346 276.558C197.73 276.614 197.086 276.661 196.414 276.698C195.751 276.735 195.089 276.754 194.426 276.754C194.118 276.754 193.745 276.74 193.306 276.712C192.877 276.684 192.447 276.651 192.018 276.614C191.589 276.577 191.22 276.539 190.912 276.502L190.898 275.228ZM190.828 278.224C191.061 278.261 191.332 278.299 191.64 278.336C191.948 278.364 192.265 278.387 192.592 278.406C192.919 278.425 193.227 278.443 193.516 278.462C193.815 278.471 194.071 278.476 194.286 278.476C195.042 278.476 195.751 278.462 196.414 278.434C197.086 278.397 197.73 278.35 198.346 278.294C198.971 278.229 199.578 278.159 200.166 278.084L200.152 279.386C199.676 279.451 199.209 279.507 198.752 279.554C198.295 279.591 197.833 279.624 197.366 279.652C196.909 279.68 196.423 279.699 195.91 279.708C195.406 279.717 194.855 279.722 194.258 279.722C193.969 279.722 193.619 279.717 193.208 279.708C192.797 279.689 192.382 279.666 191.962 279.638C191.542 279.61 191.169 279.577 190.842 279.54L190.828 278.224ZM212.44 274.122C212.431 274.197 212.422 274.299 212.412 274.43C212.403 274.561 212.394 274.696 212.384 274.836C212.375 274.976 212.37 275.107 212.37 275.228C212.361 275.517 212.356 275.811 212.356 276.11C212.356 276.409 212.352 276.698 212.342 276.978C212.342 277.249 212.338 277.505 212.328 277.748C212.319 278.121 212.305 278.527 212.286 278.966C212.268 279.405 212.244 279.815 212.216 280.198C212.188 280.581 212.151 280.893 212.104 281.136C212.039 281.472 211.918 281.701 211.74 281.822C211.563 281.934 211.306 281.99 210.97 281.99C210.802 281.99 210.588 281.981 210.326 281.962C210.074 281.934 209.827 281.906 209.584 281.878C209.342 281.841 209.15 281.808 209.01 281.78L209.038 280.562C209.272 280.609 209.514 280.651 209.766 280.688C210.028 280.725 210.233 280.744 210.382 280.744C210.541 280.744 210.658 280.721 210.732 280.674C210.816 280.627 210.863 280.529 210.872 280.38C210.91 280.203 210.933 279.969 210.942 279.68C210.961 279.391 210.98 279.078 210.998 278.742C211.017 278.397 211.026 278.065 211.026 277.748C211.036 277.487 211.04 277.221 211.04 276.95C211.04 276.67 211.04 276.385 211.04 276.096C211.04 275.807 211.04 275.531 211.04 275.27C211.04 275.158 211.031 275.032 211.012 274.892C211.003 274.743 210.994 274.598 210.984 274.458C210.975 274.318 210.961 274.206 210.942 274.122H212.44ZM206.91 274.556C206.892 274.743 206.873 274.939 206.854 275.144C206.845 275.349 206.84 275.578 206.84 275.83C206.84 276.101 206.836 276.46 206.826 276.908C206.826 277.347 206.822 277.823 206.812 278.336C206.812 278.84 206.812 279.339 206.812 279.834C206.812 280.329 206.812 280.772 206.812 281.164C206.812 281.556 206.817 281.859 206.826 282.074C206.836 282.438 206.859 282.741 206.896 282.984C206.934 283.227 207.027 283.418 207.176 283.558C207.326 283.698 207.559 283.801 207.876 283.866C208.203 283.931 208.646 283.964 209.206 283.964C209.692 283.964 210.196 283.95 210.718 283.922C211.241 283.885 211.736 283.838 212.202 283.782C212.669 283.726 213.061 283.67 213.378 283.614L213.336 285.112C213.028 285.149 212.646 285.182 212.188 285.21C211.731 285.247 211.25 285.28 210.746 285.308C210.242 285.336 209.757 285.35 209.29 285.35C208.441 285.35 207.764 285.299 207.26 285.196C206.756 285.093 206.378 284.925 206.126 284.692C205.874 284.449 205.706 284.132 205.622 283.74C205.538 283.348 205.487 282.863 205.468 282.284C205.468 282.079 205.464 281.803 205.454 281.458C205.454 281.103 205.454 280.707 205.454 280.268C205.454 279.82 205.454 279.367 205.454 278.91C205.454 278.453 205.454 278.019 205.454 277.608C205.454 277.197 205.454 276.843 205.454 276.544C205.454 276.236 205.454 276.021 205.454 275.9C205.454 275.648 205.445 275.419 205.426 275.214C205.417 274.999 205.394 274.78 205.356 274.556H206.91ZM202.514 277.818C202.72 277.818 202.958 277.813 203.228 277.804C203.508 277.785 203.798 277.762 204.096 277.734C204.395 277.706 204.824 277.664 205.384 277.608C205.944 277.552 206.579 277.491 207.288 277.426C208.007 277.361 208.749 277.295 209.514 277.23C210.289 277.155 211.036 277.09 211.754 277.034C212.473 276.978 213.112 276.931 213.672 276.894C213.859 276.885 214.06 276.875 214.274 276.866C214.489 276.847 214.69 276.829 214.876 276.81V278.182C214.802 278.173 214.69 278.173 214.54 278.182C214.4 278.182 214.246 278.182 214.078 278.182C213.92 278.182 213.78 278.187 213.658 278.196C213.294 278.196 212.846 278.215 212.314 278.252C211.782 278.289 211.213 278.336 210.606 278.392C210 278.439 209.379 278.495 208.744 278.56C208.11 278.616 207.498 278.677 206.91 278.742C206.332 278.798 205.804 278.854 205.328 278.91C204.852 278.957 204.474 278.999 204.194 279.036C204.045 279.055 203.872 279.078 203.676 279.106C203.49 279.125 203.303 279.148 203.116 279.176C202.939 279.204 202.79 279.227 202.668 279.246L202.514 277.818ZM223.836 274.598C223.771 274.691 223.701 274.799 223.626 274.92C223.552 275.032 223.472 275.153 223.388 275.284C223.23 275.527 223.043 275.83 222.828 276.194C222.614 276.549 222.39 276.931 222.156 277.342C221.923 277.753 221.694 278.159 221.47 278.56C221.246 278.961 221.05 279.325 220.882 279.652C221.181 279.419 221.489 279.251 221.806 279.148C222.133 279.036 222.446 278.98 222.744 278.98C223.239 278.98 223.636 279.134 223.934 279.442C224.242 279.741 224.41 280.175 224.438 280.744C224.448 280.987 224.452 281.262 224.452 281.57C224.452 281.869 224.452 282.163 224.452 282.452C224.462 282.741 224.476 282.993 224.494 283.208C224.513 283.535 224.62 283.768 224.816 283.908C225.022 284.039 225.255 284.104 225.516 284.104C225.871 284.104 226.188 284.006 226.468 283.81C226.758 283.614 227.01 283.353 227.224 283.026C227.448 282.69 227.635 282.326 227.784 281.934C227.943 281.533 228.069 281.131 228.162 280.73L229.338 281.696C229.096 282.471 228.792 283.152 228.428 283.74C228.064 284.319 227.626 284.771 227.112 285.098C226.599 285.434 225.992 285.602 225.292 285.602C224.788 285.602 224.378 285.509 224.06 285.322C223.752 285.135 223.524 284.902 223.374 284.622C223.234 284.342 223.155 284.053 223.136 283.754C223.118 283.483 223.104 283.194 223.094 282.886C223.094 282.569 223.09 282.261 223.08 281.962C223.08 281.654 223.071 281.388 223.052 281.164C223.043 280.884 222.959 280.669 222.8 280.52C222.642 280.361 222.418 280.282 222.128 280.282C221.783 280.282 221.447 280.385 221.12 280.59C220.803 280.795 220.514 281.066 220.252 281.402C220 281.738 219.786 282.093 219.608 282.466C219.506 282.671 219.398 282.919 219.286 283.208C219.174 283.488 219.062 283.782 218.95 284.09C218.848 284.389 218.754 284.673 218.67 284.944C218.586 285.215 218.516 285.439 218.46 285.616L216.92 285.098C217.098 284.622 217.317 284.085 217.578 283.488C217.84 282.881 218.129 282.247 218.446 281.584C218.764 280.912 219.086 280.249 219.412 279.596C219.739 278.943 220.052 278.322 220.35 277.734C220.649 277.146 220.915 276.633 221.148 276.194C221.382 275.755 221.559 275.424 221.68 275.2C221.774 275.032 221.872 274.85 221.974 274.654C222.077 274.449 222.175 274.22 222.268 273.968L223.836 274.598Z" fill="#6B7280"/>
</svg>
