<svg width="1106" height="508" viewBox="0 0 1106 508" fill="none" xmlns="http://www.w3.org/2000/svg">
<rect x="0.5" y="0.5" width="1105" height="507" rx="3.5" stroke="#E5E5E5"/>
<path d="M17.764 21.074C18.0533 21.0833 18.324 21.0927 18.576 21.102C18.8373 21.102 19.0613 21.102 19.248 21.102C19.3973 21.102 19.626 21.102 19.934 21.102C20.2513 21.102 20.62 21.102 21.04 21.102C21.46 21.102 21.908 21.102 22.384 21.102C22.86 21.102 23.336 21.102 23.812 21.102C24.2973 21.102 24.75 21.102 25.17 21.102C25.59 21.102 25.954 21.102 26.262 21.102C26.5793 21.102 26.808 21.102 26.948 21.102C27.1253 21.102 27.3353 21.102 27.578 21.102C27.83 21.0927 28.082 21.0833 28.334 21.074C28.3247 21.2887 28.3153 21.5173 28.306 21.76C28.306 21.9933 28.306 22.2173 28.306 22.432C28.306 22.5627 28.306 22.768 28.306 23.048C28.306 23.3187 28.306 23.6453 28.306 24.028C28.306 24.4013 28.306 24.8027 28.306 25.232C28.306 25.652 28.306 26.0767 28.306 26.506C28.306 26.9353 28.306 27.3413 28.306 27.724C28.306 28.0973 28.306 28.424 28.306 28.704C28.306 28.9747 28.306 29.1707 28.306 29.292C28.306 29.432 28.306 29.6093 28.306 29.824C28.3153 30.0293 28.32 30.2393 28.32 30.454C28.32 30.6593 28.32 30.8413 28.32 31C28.3293 31.1493 28.334 31.2287 28.334 31.238H26.402C26.402 31.2193 26.402 31.1073 26.402 30.902C26.4113 30.6873 26.416 30.4353 26.416 30.146C26.4253 29.8567 26.43 29.586 26.43 29.334C26.43 29.2127 26.43 29.0073 26.43 28.718C26.43 28.4287 26.43 28.088 26.43 27.696C26.43 27.304 26.43 26.8887 26.43 26.45C26.43 26.0113 26.43 25.582 26.43 25.162C26.43 24.742 26.43 24.3593 26.43 24.014C26.43 23.6687 26.43 23.3933 26.43 23.188C26.43 22.9827 26.43 22.88 26.43 22.88H19.668C19.668 22.88 19.668 22.9827 19.668 23.188C19.668 23.3933 19.668 23.6687 19.668 24.014C19.668 24.35 19.668 24.7327 19.668 25.162C19.668 25.582 19.668 26.0113 19.668 26.45C19.668 26.8793 19.668 27.2947 19.668 27.696C19.668 28.088 19.668 28.4287 19.668 28.718C19.668 29.0073 19.668 29.2127 19.668 29.334C19.668 29.502 19.668 29.6933 19.668 29.908C19.668 30.1133 19.668 30.314 19.668 30.51C19.6773 30.706 19.682 30.8693 19.682 31C19.682 31.14 19.682 31.2193 19.682 31.238H17.75C17.75 31.2193 17.75 31.14 17.75 31C17.7593 30.86 17.764 30.6873 17.764 30.482C17.7733 30.2767 17.778 30.0667 17.778 29.852C17.7873 29.6373 17.792 29.446 17.792 29.278C17.792 29.1567 17.792 28.9607 17.792 28.69C17.792 28.41 17.792 28.0787 17.792 27.696C17.792 27.3133 17.792 26.912 17.792 26.492C17.792 26.0627 17.792 25.6333 17.792 25.204C17.792 24.7747 17.792 24.3733 17.792 24C17.792 23.6173 17.792 23.2907 17.792 23.02C17.792 22.7493 17.792 22.5533 17.792 22.432C17.792 22.236 17.792 22.012 17.792 21.76C17.792 21.4987 17.7827 21.27 17.764 21.074ZM27.13 28.69V30.482H18.716V28.69H27.13ZM40.71 19.674C40.8873 19.9353 41.0787 20.2433 41.284 20.598C41.4893 20.9527 41.6573 21.256 41.788 21.508L40.654 21.984C40.514 21.704 40.3507 21.396 40.164 21.06C39.9773 20.7147 39.7907 20.4067 39.604 20.136L40.71 19.674ZM42.53 19.282C42.6607 19.45 42.7913 19.646 42.922 19.87C43.062 20.094 43.1927 20.3133 43.314 20.528C43.4447 20.7427 43.5473 20.9293 43.622 21.088L42.516 21.578C42.3667 21.2793 42.194 20.962 41.998 20.626C41.8113 20.29 41.62 19.9913 41.424 19.73L42.53 19.282ZM38.064 19.954C38.0547 20.0193 38.0407 20.1267 38.022 20.276C38.0033 20.4253 37.9847 20.584 37.966 20.752C37.9473 20.9107 37.938 21.0507 37.938 21.172C37.938 21.452 37.938 21.76 37.938 22.096C37.938 22.432 37.938 22.768 37.938 23.104C37.938 23.4307 37.938 23.7293 37.938 24C37.938 24.1867 37.938 24.448 37.938 24.784C37.938 25.12 37.938 25.498 37.938 25.918C37.938 26.338 37.938 26.7767 37.938 27.234C37.938 27.682 37.938 28.1207 37.938 28.55C37.938 28.97 37.938 29.3527 37.938 29.698C37.938 30.034 37.938 30.3 37.938 30.496C37.938 30.8973 37.8167 31.2147 37.574 31.448C37.3407 31.6907 36.9767 31.812 36.482 31.812C36.23 31.812 35.9733 31.8073 35.712 31.798C35.4507 31.7887 35.194 31.7747 34.942 31.756C34.69 31.7373 34.4427 31.714 34.2 31.686L34.032 29.95C34.3307 30.006 34.62 30.048 34.9 30.076C35.1893 30.104 35.418 30.118 35.586 30.118C35.7727 30.118 35.9033 30.0807 35.978 30.006C36.0527 29.922 36.0947 29.7913 36.104 29.614C36.104 29.53 36.104 29.348 36.104 29.068C36.1133 28.788 36.118 28.4567 36.118 28.074C36.118 27.6913 36.118 27.2853 36.118 26.856C36.118 26.4267 36.118 26.016 36.118 25.624C36.118 25.232 36.118 24.8913 36.118 24.602C36.118 24.3127 36.118 24.112 36.118 24C36.118 23.832 36.118 23.58 36.118 23.244C36.118 22.8987 36.118 22.5347 36.118 22.152C36.118 21.7693 36.118 21.4427 36.118 21.172C36.118 20.9853 36.104 20.766 36.076 20.514C36.048 20.2527 36.02 20.066 35.992 19.954H38.064ZM31.204 22.18C31.4187 22.208 31.6427 22.236 31.876 22.264C32.1093 22.2827 32.338 22.292 32.562 22.292C32.674 22.292 32.898 22.292 33.234 22.292C33.5793 22.292 33.99 22.292 34.466 22.292C34.942 22.292 35.4507 22.292 35.992 22.292C36.5427 22.292 37.0933 22.292 37.644 22.292C38.204 22.292 38.722 22.292 39.198 22.292C39.6833 22.292 40.1033 22.292 40.458 22.292C40.8127 22.292 41.06 22.292 41.2 22.292C41.396 22.292 41.6247 22.2827 41.886 22.264C42.1567 22.2453 42.39 22.222 42.586 22.194V24.028C42.3713 24.0093 42.138 24 41.886 24C41.634 23.9907 41.41 23.986 41.214 23.986C41.074 23.986 40.8267 23.986 40.472 23.986C40.1267 23.986 39.7113 23.986 39.226 23.986C38.75 23.986 38.2367 23.986 37.686 23.986C37.1353 23.986 36.5847 23.986 36.034 23.986C35.4833 23.986 34.97 23.986 34.494 23.986C34.018 23.986 33.6073 23.986 33.262 23.986C32.926 23.986 32.6927 23.986 32.562 23.986C32.3567 23.986 32.128 23.9907 31.876 24C31.6333 24.0093 31.4093 24.0233 31.204 24.042V22.18ZM34.774 25.974C34.6153 26.2913 34.424 26.632 34.2 26.996C33.976 27.36 33.7333 27.724 33.472 28.088C33.22 28.452 32.9727 28.7927 32.73 29.11C32.4873 29.418 32.268 29.6747 32.072 29.88L30.56 28.844C30.7933 28.6293 31.0313 28.3773 31.274 28.088C31.526 27.7893 31.7687 27.4767 32.002 27.15C32.2447 26.8233 32.464 26.4967 32.66 26.17C32.8653 25.8433 33.0427 25.5307 33.192 25.232L34.774 25.974ZM40.794 25.19C40.9713 25.414 41.1673 25.68 41.382 25.988C41.606 26.296 41.83 26.6273 42.054 26.982C42.278 27.3273 42.488 27.668 42.684 28.004C42.88 28.3307 43.048 28.62 43.188 28.872L41.536 29.768C41.3867 29.4693 41.214 29.1473 41.018 28.802C40.8313 28.4567 40.6353 28.1113 40.43 27.766C40.2247 27.4207 40.0193 27.0987 39.814 26.8C39.618 26.492 39.436 26.2307 39.268 26.016L40.794 25.19ZM51.07 22.684C51.1353 22.8333 51.2193 23.048 51.322 23.328C51.434 23.5987 51.5507 23.8927 51.672 24.21C51.7933 24.518 51.9007 24.812 51.994 25.092C52.0873 25.372 52.162 25.5913 52.218 25.75L50.538 26.338C50.5007 26.1607 50.4353 25.9367 50.342 25.666C50.2487 25.3953 50.146 25.1107 50.034 24.812C49.922 24.504 49.81 24.21 49.698 23.93C49.586 23.65 49.488 23.4167 49.404 23.23L51.07 22.684ZM56.236 23.706C56.1613 23.93 56.096 24.1213 56.04 24.28C55.9933 24.4387 55.9467 24.588 55.9 24.728C55.7227 25.4373 55.48 26.1467 55.172 26.856C54.864 27.556 54.472 28.214 53.996 28.83C53.3427 29.67 52.6007 30.384 51.77 30.972C50.9487 31.5507 50.1273 31.994 49.306 32.302L47.836 30.804C48.3493 30.664 48.8907 30.4587 49.46 30.188C50.0293 29.908 50.58 29.572 51.112 29.18C51.644 28.788 52.1013 28.354 52.484 27.878C52.8013 27.4767 53.0813 27.0193 53.324 26.506C53.576 25.9833 53.7813 25.428 53.94 24.84C54.108 24.2427 54.22 23.6547 54.276 23.076L56.236 23.706ZM47.822 23.426C47.9153 23.6033 48.018 23.832 48.13 24.112C48.2513 24.392 48.3727 24.686 48.494 24.994C48.6153 25.302 48.732 25.6007 48.844 25.89C48.9653 26.1793 49.0587 26.422 49.124 26.618L47.416 27.262C47.36 27.0753 47.276 26.8327 47.164 26.534C47.0613 26.2353 46.9447 25.9227 46.814 25.596C46.6833 25.26 46.5573 24.952 46.436 24.672C46.324 24.392 46.226 24.1773 46.142 24.028L47.822 23.426ZM62.396 29.656C62.396 29.4787 62.396 29.1893 62.396 28.788C62.396 28.3773 62.396 27.906 62.396 27.374C62.396 26.8327 62.396 26.268 62.396 25.68C62.396 25.092 62.396 24.5273 62.396 23.986C62.396 23.4353 62.396 22.95 62.396 22.53C62.396 22.11 62.396 21.802 62.396 21.606C62.396 21.3633 62.382 21.0833 62.354 20.766C62.3353 20.4487 62.3027 20.1687 62.256 19.926H64.44C64.412 20.1687 64.384 20.4393 64.356 20.738C64.328 21.0273 64.314 21.3167 64.314 21.606C64.314 21.8673 64.314 22.222 64.314 22.67C64.314 23.118 64.314 23.6173 64.314 24.168C64.314 24.7093 64.314 25.2647 64.314 25.834C64.314 26.394 64.314 26.9353 64.314 27.458C64.314 27.9807 64.314 28.438 64.314 28.83C64.314 29.2127 64.314 29.488 64.314 29.656C64.314 29.7867 64.3187 29.9733 64.328 30.216C64.3373 30.4493 64.356 30.692 64.384 30.944C64.412 31.196 64.4307 31.42 64.44 31.616H62.256C62.2933 31.336 62.326 31.0093 62.354 30.636C62.382 30.2627 62.396 29.936 62.396 29.656ZM63.894 23.552C64.3607 23.6733 64.8833 23.832 65.462 24.028C66.0407 24.2147 66.624 24.4153 67.212 24.63C67.8 24.8447 68.3507 25.0593 68.864 25.274C69.3867 25.4793 69.8207 25.6707 70.166 25.848L69.368 27.78C68.976 27.5747 68.542 27.3693 68.066 27.164C67.59 26.9493 67.1047 26.744 66.61 26.548C66.1247 26.352 65.644 26.17 65.168 26.002C64.7013 25.834 64.2767 25.6847 63.894 25.554V23.552ZM74.548 19.73H85.314V21.242H74.548V19.73ZM73.554 19.73H75.206V23.888C75.206 24.4947 75.1873 25.1573 75.15 25.876C75.122 26.5947 75.0567 27.332 74.954 28.088C74.8607 28.844 74.716 29.5813 74.52 30.3C74.3333 31.0093 74.086 31.6533 73.778 32.232C73.6753 32.1293 73.5307 32.022 73.344 31.91C73.1667 31.8073 72.98 31.7047 72.784 31.602C72.5973 31.5087 72.434 31.4387 72.294 31.392C72.5927 30.86 72.826 30.2767 72.994 29.642C73.162 28.998 73.2833 28.34 73.358 27.668C73.442 26.9867 73.4933 26.324 73.512 25.68C73.54 25.036 73.554 24.4387 73.554 23.888V19.73ZM77.782 25.442V26.254H82.556V25.442H77.782ZM77.782 23.482V24.28H82.556V23.482H77.782ZM76.144 22.222H84.292V27.514H76.144V22.222ZM79.364 26.814H80.988V30.622C80.988 30.9953 80.9413 31.294 80.848 31.518C80.764 31.742 80.5913 31.91 80.33 32.022C80.0687 32.134 79.7513 32.1993 79.378 32.218C79.0047 32.246 78.5707 32.26 78.076 32.26C78.0387 32.0453 77.9733 31.798 77.88 31.518C77.796 31.238 77.7027 30.9907 77.6 30.776C77.908 30.7853 78.2113 30.7947 78.51 30.804C78.8087 30.804 79.0047 30.7993 79.098 30.79C79.2007 30.79 79.2707 30.776 79.308 30.748C79.3453 30.72 79.364 30.664 79.364 30.58V26.814ZM79.084 21.116L81.1 21.256C80.9973 21.6107 80.8947 21.942 80.792 22.25C80.6987 22.5487 80.6193 22.8053 80.554 23.02L78.818 22.838C78.8553 22.67 78.888 22.4833 78.916 22.278C78.9533 22.0727 78.986 21.872 79.014 21.676C79.0513 21.4707 79.0747 21.284 79.084 21.116ZM81.674 28.69L82.962 27.892C83.27 28.1533 83.592 28.4473 83.928 28.774C84.264 29.1007 84.5767 29.4273 84.866 29.754C85.1647 30.0713 85.398 30.37 85.566 30.65L84.18 31.532C84.0307 31.2613 83.816 30.9627 83.536 30.636C83.256 30.3 82.9527 29.964 82.626 29.628C82.3087 29.2827 81.9913 28.97 81.674 28.69ZM76.998 27.962L78.622 28.41C78.2953 29.026 77.8847 29.6233 77.39 30.202C76.9047 30.7713 76.4147 31.2473 75.92 31.63C75.808 31.5367 75.668 31.4247 75.5 31.294C75.3413 31.1727 75.1733 31.056 74.996 30.944C74.8187 30.8227 74.6647 30.7247 74.534 30.65C75.038 30.342 75.5093 29.95 75.948 29.474C76.3867 28.9887 76.7367 28.4847 76.998 27.962ZM92.076 19.1H93.784V23.972H92.076V19.1ZM89.752 24.784V26.59H96.178V24.784H89.752ZM88.142 23.23H97.9V28.144H88.142V23.23ZM92.874 20.346H98.824V21.914H92.874V20.346ZM90.466 29.208L92.062 29.054C92.1367 29.362 92.202 29.698 92.258 30.062C92.314 30.4167 92.3607 30.7573 92.398 31.084C92.4353 31.4107 92.454 31.7 92.454 31.952L90.76 32.162C90.76 31.9193 90.746 31.6253 90.718 31.28C90.6993 30.944 90.6667 30.594 90.62 30.23C90.5827 29.866 90.5313 29.5253 90.466 29.208ZM93.35 29.222L94.89 28.872C95.03 29.1707 95.17 29.4927 95.31 29.838C95.4593 30.174 95.59 30.5007 95.702 30.818C95.814 31.1353 95.898 31.42 95.954 31.672L94.316 32.092C94.2693 31.8493 94.1947 31.56 94.092 31.224C93.9987 30.888 93.8867 30.5473 93.756 30.202C93.6253 29.8473 93.49 29.5207 93.35 29.222ZM96.206 29.138L97.704 28.592C97.9373 28.8813 98.1707 29.2033 98.404 29.558C98.6467 29.9127 98.8707 30.2627 99.076 30.608C99.2813 30.944 99.44 31.252 99.552 31.532L97.928 32.162C97.8253 31.8913 97.6807 31.5787 97.494 31.224C97.3073 30.8787 97.0973 30.524 96.864 30.16C96.64 29.7867 96.4207 29.446 96.206 29.138ZM88.17 28.69L89.78 29.11C89.584 29.6607 89.3227 30.2207 88.996 30.79C88.6693 31.3593 88.324 31.8307 87.96 32.204L86.406 31.448C86.7513 31.14 87.0827 30.734 87.4 30.23C87.7173 29.726 87.974 29.2127 88.17 28.69ZM105.922 23.734V24.952H107.168V23.734H105.922ZM105.922 26.198V27.43H107.168V26.198H105.922ZM105.922 21.284V22.488H107.168V21.284H105.922ZM104.522 19.94H108.638V28.76H104.522V19.94ZM106.762 29.474L107.952 28.816C108.195 29.18 108.433 29.5813 108.666 30.02C108.909 30.4587 109.086 30.8367 109.198 31.154L107.924 31.91C107.859 31.6953 107.761 31.448 107.63 31.168C107.509 30.888 107.369 30.5987 107.21 30.3C107.061 30.0013 106.911 29.726 106.762 29.474ZM109.38 20.654H110.822V29.026H109.38V20.654ZM111.662 19.324H113.188V30.398C113.188 30.8087 113.141 31.1307 113.048 31.364C112.964 31.6067 112.805 31.7887 112.572 31.91C112.339 32.05 112.045 32.1387 111.69 32.176C111.335 32.2227 110.911 32.246 110.416 32.246C110.388 32.022 110.327 31.756 110.234 31.448C110.15 31.14 110.057 30.874 109.954 30.65C110.271 30.6593 110.565 30.664 110.836 30.664C111.107 30.664 111.289 30.664 111.382 30.664C111.485 30.664 111.555 30.6453 111.592 30.608C111.639 30.5613 111.662 30.4913 111.662 30.398V19.324ZM105.222 28.802L106.566 29.53C106.426 29.8287 106.249 30.146 106.034 30.482C105.829 30.8087 105.614 31.1213 105.39 31.42C105.166 31.728 104.947 31.9893 104.732 32.204C104.592 32.0733 104.405 31.9193 104.172 31.742C103.948 31.5647 103.743 31.4153 103.556 31.294C103.78 31.0887 103.995 30.846 104.2 30.566C104.415 30.2767 104.611 29.978 104.788 29.67C104.965 29.3527 105.11 29.0633 105.222 28.802ZM102.94 19.128L104.494 19.59C104.233 20.402 103.915 21.2233 103.542 22.054C103.178 22.8847 102.777 23.6733 102.338 24.42C101.899 25.1573 101.442 25.806 100.966 26.366C100.929 26.2353 100.863 26.0533 100.77 25.82C100.677 25.5867 100.574 25.3533 100.462 25.12C100.35 24.8867 100.252 24.6953 100.168 24.546C100.541 24.1073 100.901 23.5987 101.246 23.02C101.601 22.4413 101.923 21.8207 102.212 21.158C102.501 20.486 102.744 19.8093 102.94 19.128ZM101.82 22.978L103.374 21.424L103.416 21.452V32.246H101.82V22.978Z" fill="black"/>
<rect width="138" height="24" transform="translate(16 52)" fill="white"/>
<path d="M24.1477 69.4886L17.358 62.7102L18.8466 61.2045L25.642 67.9943L24.1477 69.4886ZM18.8466 69.4886L17.358 67.9943L24.1477 61.2045L25.642 62.7102L18.8466 69.4886Z" fill="#E11F21"/>
<path d="M35.8565 63.2216V65.142H30.5497V63.2216H35.8565ZM39.4276 58.3636L41.7741 62.3295H41.8651L44.223 58.3636H47.0014L43.4503 64.1818L47.081 70H44.2514L41.8651 66.0284H41.7741L39.3878 70H36.5696L40.2116 64.1818L36.6378 58.3636H39.4276Z" fill="#E11F21"/>
<path d="M69.3331 70.6364L68.0149 69.3295L71.4751 65.8693H63.3672V63.9489H71.4751L68.0149 60.4943L69.3331 59.1818L75.0604 64.9091L69.3331 70.6364Z" fill="#00A442"/>
<path d="M83.4361 68.2273V60.1818H85.4702V68.2273H83.4361ZM80.4304 65.2216V63.1875H88.4759V65.2216H80.4304ZM89.7202 58.3636H92.4759L95.1293 63.375H95.2429L97.8963 58.3636H100.652L96.4077 65.8864V70H93.9645V65.8864L89.7202 58.3636Z" fill="#00A442"/>
<path d="M121.043 70V61.8807L118.015 64.9205L116.685 63.6023L122.004 58.2955L127.31 63.6023L126.004 64.9205L122.964 61.8807V70H121.043Z" fill="#4159F8"/>
<path d="M136.647 68.2273V60.1818H138.681V68.2273H136.647ZM133.641 65.2216V63.1875H141.687V65.2216H133.641ZM143.988 70V68.5398L149.795 60.392H143.977V58.3636H152.886V59.8239L147.073 67.9716H152.897V70H143.988Z" fill="#4159F8"/>
<rect x="170" y="418" width="76" height="74" fill="#5C5C5C"/>
<rect x="206" y="97" width="40" height="321" fill="#858585"/>
<rect x="16.5" y="491.5" width="343" height="139" transform="rotate(-90 16.5 491.5)" fill="#D6DDE8" fill-opacity="0.5" stroke="#9CA3AF" stroke-dasharray="2 2"/>
<rect x="280.5" y="148.5" width="134" height="343" fill="#FDDDB7" fill-opacity="0.5" stroke="#9CA3AF" stroke-dasharray="2 2"/>
<path d="M341.814 325H338.205V314.818H341.844C342.868 314.818 343.75 315.022 344.489 315.43C345.228 315.834 345.796 316.416 346.194 317.175C346.595 317.934 346.796 318.842 346.796 319.899C346.796 320.96 346.595 321.871 346.194 322.634C345.796 323.396 345.225 323.981 344.479 324.388C343.736 324.796 342.848 325 341.814 325ZM340.357 323.156H341.725C342.361 323.156 342.896 323.043 343.33 322.817C343.768 322.589 344.096 322.236 344.315 321.759C344.537 321.278 344.648 320.658 344.648 319.899C344.648 319.147 344.537 318.532 344.315 318.055C344.096 317.577 343.77 317.226 343.335 317.001C342.901 316.775 342.366 316.663 341.73 316.663H340.357V323.156ZM353.914 317.746C353.874 317.345 353.703 317.034 353.402 316.812C353.1 316.59 352.691 316.479 352.174 316.479C351.822 316.479 351.526 316.528 351.284 316.628C351.042 316.724 350.856 316.858 350.727 317.031C350.601 317.203 350.538 317.398 350.538 317.617C350.531 317.799 350.57 317.959 350.652 318.094C350.739 318.23 350.856 318.348 351.005 318.447C351.155 318.544 351.327 318.628 351.522 318.701C351.718 318.771 351.927 318.83 352.149 318.88L353.064 319.099C353.508 319.198 353.915 319.331 354.287 319.496C354.658 319.662 354.979 319.866 355.251 320.108C355.523 320.35 355.733 320.635 355.883 320.963C356.035 321.291 356.113 321.667 356.116 322.092C356.113 322.715 355.954 323.255 355.639 323.712C355.327 324.166 354.877 324.519 354.287 324.771C353.7 325.02 352.992 325.144 352.164 325.144C351.342 325.144 350.626 325.018 350.016 324.766C349.409 324.514 348.936 324.142 348.594 323.648C348.256 323.151 348.079 322.536 348.062 321.803H350.145C350.168 322.145 350.266 322.43 350.439 322.658C350.614 322.884 350.848 323.054 351.14 323.17C351.435 323.283 351.768 323.339 352.139 323.339C352.503 323.339 352.82 323.286 353.088 323.18C353.36 323.074 353.571 322.927 353.72 322.738C353.869 322.549 353.944 322.332 353.944 322.087C353.944 321.858 353.876 321.666 353.74 321.51C353.607 321.354 353.412 321.222 353.153 321.112C352.898 321.003 352.585 320.903 352.213 320.814L351.105 320.536C350.246 320.327 349.569 320 349.071 319.556C348.574 319.112 348.327 318.514 348.331 317.761C348.327 317.145 348.491 316.606 348.823 316.146C349.158 315.685 349.617 315.325 350.2 315.067C350.783 314.808 351.446 314.679 352.189 314.679C352.944 314.679 353.604 314.808 354.167 315.067C354.734 315.325 355.175 315.685 355.49 316.146C355.805 316.606 355.967 317.14 355.977 317.746H353.914Z" fill="black"/>
<path d="M83.2341 317.746C83.1943 317.345 83.0236 317.034 82.722 316.812C82.4204 316.59 82.0111 316.479 81.494 316.479C81.1427 316.479 80.846 316.528 80.6041 316.628C80.3621 316.724 80.1765 316.858 80.0473 317.031C79.9213 317.203 79.8584 317.398 79.8584 317.617C79.8517 317.799 79.8898 317.959 79.9727 318.094C80.0589 318.23 80.1765 318.348 80.3257 318.447C80.4748 318.544 80.6472 318.628 80.8427 318.701C81.0383 318.771 81.2471 318.83 81.4691 318.88L82.3839 319.099C82.8281 319.198 83.2357 319.331 83.6069 319.496C83.9781 319.662 84.2996 319.866 84.5714 320.108C84.8432 320.35 85.0537 320.635 85.2028 320.963C85.3553 321.291 85.4332 321.667 85.4365 322.092C85.4332 322.715 85.2741 323.255 84.9592 323.712C84.6477 324.166 84.1969 324.519 83.6069 324.771C83.0203 325.02 82.3127 325.144 81.4841 325.144C80.6621 325.144 79.9462 325.018 79.3363 324.766C78.7298 324.514 78.2558 324.142 77.9145 323.648C77.5764 323.151 77.3991 322.536 77.3825 321.803H79.4656C79.4888 322.145 79.5866 322.43 79.7589 322.658C79.9346 322.884 80.1682 323.054 80.4599 323.17C80.7549 323.283 81.088 323.339 81.4592 323.339C81.8238 323.339 82.1403 323.286 82.4088 323.18C82.6806 323.074 82.891 322.927 83.0402 322.738C83.1893 322.549 83.2639 322.332 83.2639 322.087C83.2639 321.858 83.1959 321.666 83.0601 321.51C82.9275 321.354 82.7319 321.222 82.4734 321.112C82.2182 321.003 81.905 320.903 81.5338 320.814L80.4251 320.536C79.5667 320.327 78.8889 320 78.3917 319.556C77.8946 319.112 77.6477 318.514 77.651 317.761C77.6477 317.145 77.8117 316.606 78.1432 316.146C78.4779 315.685 78.937 315.325 79.5203 315.067C80.1036 314.808 80.7665 314.679 81.5089 314.679C82.2646 314.679 82.9242 314.808 83.4876 315.067C84.0544 315.325 84.4952 315.685 84.8101 316.146C85.1249 316.606 85.2873 317.14 85.2973 317.746H83.2341ZM92.4079 317.746C92.3681 317.345 92.1974 317.034 91.8958 316.812C91.5942 316.59 91.1849 316.479 90.6678 316.479C90.3165 316.479 90.0199 316.528 89.7779 316.628C89.536 316.724 89.3504 316.858 89.2211 317.031C89.0952 317.203 89.0322 317.398 89.0322 317.617C89.0256 317.799 89.0637 317.959 89.1465 318.094C89.2327 318.23 89.3504 318.348 89.4995 318.447C89.6487 318.544 89.821 318.628 90.0166 318.701C90.2121 318.771 90.4209 318.83 90.643 318.88L91.5578 319.099C92.0019 319.198 92.4095 319.331 92.7808 319.496C93.152 319.662 93.4735 319.866 93.7453 320.108C94.017 320.35 94.2275 320.635 94.3766 320.963C94.5291 321.291 94.607 321.667 94.6103 322.092C94.607 322.715 94.4479 323.255 94.133 323.712C93.8215 324.166 93.3707 324.519 92.7808 324.771C92.1941 325.02 91.4865 325.144 90.6579 325.144C89.8359 325.144 89.12 325.018 88.5102 324.766C87.9036 324.514 87.4297 324.142 87.0883 323.648C86.7502 323.151 86.5729 322.536 86.5563 321.803H88.6394C88.6626 322.145 88.7604 322.43 88.9328 322.658C89.1084 322.884 89.3421 323.054 89.6337 323.17C89.9287 323.283 90.2618 323.339 90.633 323.339C90.9976 323.339 91.3141 323.286 91.5826 323.18C91.8544 323.074 92.0649 322.927 92.214 322.738C92.3631 322.549 92.4377 322.332 92.4377 322.087C92.4377 321.858 92.3698 321.666 92.2339 321.51C92.1013 321.354 91.9058 321.222 91.6472 321.112C91.392 321.003 91.0788 320.903 90.7076 320.814L89.5989 320.536C88.7405 320.327 88.0627 320 87.5656 319.556C87.0684 319.112 86.8215 318.514 86.8248 317.761C86.8215 317.145 86.9855 316.606 87.317 316.146C87.6517 315.685 88.1108 315.325 88.6941 315.067C89.2774 314.808 89.9403 314.679 90.6828 314.679C91.4384 314.679 92.098 314.808 92.6614 315.067C93.2282 315.325 93.669 315.685 93.9839 316.146C94.2988 316.606 94.4612 317.14 94.4711 317.746H92.4079Z" fill="#773710"/>
<circle cx="292" cy="492" r="4" fill="#FF8308"/>
<rect x="464" y="492" width="1.00001" height="440" transform="rotate(-180 464 492)" fill="#D1D5DB"/>
<path d="M520.333 70.6364L519.014 69.3295L522.475 65.8693H514.367V63.9489H522.475L519.014 60.4943L520.333 59.1818L526.06 64.9091L520.333 70.6364Z" fill="#E11F21"/>
<path d="M534.686 68.2273V60.1818H536.72V68.2273H534.686ZM531.68 65.2216V63.1875H539.725V65.2216H531.68ZM543.615 58.3636L545.961 62.3295H546.052L548.41 58.3636H551.188L547.637 64.1818L551.268 70H548.438L546.052 66.0284H545.961L543.575 70H540.757L544.399 64.1818L540.825 58.3636H543.615Z" fill="#E11F21"/>
<path d="M573.147 69.4886L566.357 62.7102L567.846 61.2045L574.642 67.9943L573.147 69.4886ZM567.846 69.4886L566.357 67.9943L573.147 61.2045L574.642 62.7102L567.846 69.4886Z" fill="#00A442"/>
<path d="M582.436 68.2273V60.1818H584.47V68.2273H582.436ZM579.43 65.2216V63.1875H587.475V65.2216H579.43ZM588.72 58.3636H591.475L594.129 63.375H594.242L596.896 58.3636H599.652L595.407 65.8864V70H592.964V65.8864L588.72 58.3636Z" fill="#00A442"/>
<path d="M620.043 70V61.8807L617.014 64.9205L615.685 63.6023L621.003 58.2955L626.31 63.6023L625.003 64.9205L621.963 61.8807V70H620.043Z" fill="#4159F8"/>
<path d="M635.647 68.2273V60.1818H637.681V68.2273H635.647ZM632.641 65.2216V63.1875H640.686V65.2216H632.641ZM642.987 70V68.5398L648.794 60.392H642.976V58.3636H651.885V59.8239L646.073 67.9716H651.897V70H642.987Z" fill="#4159F8"/>
<rect x="525" y="418" width="30" height="74" fill="#5C5C5C"/>
<rect x="525" y="97" width="15" height="321" fill="#858585"/>
<rect x="512" y="97" width="13" height="395" fill="#E4E4E7"/>
<line x1="16" y1="491.5" x2="415" y2="491.5" stroke="#6B7280"/>
<line x1="512" y1="491.5" x2="573" y2="491.5" stroke="#6B7280"/>
<line x1="291.5" y1="488" x2="291.5" y2="149" stroke="#9CA3AF"/>
</svg>
