<svg width="1106" height="508" viewBox="0 0 1106 508" fill="none" xmlns="http://www.w3.org/2000/svg">
<rect x="0.5" y="0.5" width="1105" height="507" stroke="#E5E5E5"/>
<path d="M19.024 19.828H28.824V21.494H19.024V19.828ZM19.22 23.468H26.794V25.092H19.22V23.468ZM18.17 19.828H19.85V23.748C19.85 24.364 19.8267 25.0407 19.78 25.778C19.7427 26.5153 19.654 27.2713 19.514 28.046C19.3833 28.8207 19.1873 29.5673 18.926 30.286C18.674 31.0047 18.3427 31.6533 17.932 32.232C17.8293 32.1293 17.6893 32.0127 17.512 31.882C17.344 31.7513 17.1667 31.6253 16.98 31.504C16.7933 31.392 16.6347 31.3033 16.504 31.238C16.8867 30.706 17.19 30.1227 17.414 29.488C17.638 28.8533 17.806 28.2047 17.918 27.542C18.03 26.87 18.1 26.212 18.128 25.568C18.156 24.9147 18.17 24.308 18.17 23.748V19.828ZM26.346 23.468H26.682L26.99 23.398L28.18 23.874C27.8907 25.05 27.494 26.0907 26.99 26.996C26.486 27.892 25.8887 28.6807 25.198 29.362C24.5073 30.034 23.7327 30.6033 22.874 31.07C22.0247 31.546 21.1007 31.9427 20.102 32.26C20.0273 32.1013 19.934 31.924 19.822 31.728C19.7193 31.5413 19.6027 31.3547 19.472 31.168C19.3507 30.9813 19.234 30.8273 19.122 30.706C20.018 30.482 20.8533 30.1693 21.628 29.768C22.412 29.3573 23.1167 28.8627 23.742 28.284C24.3767 27.7053 24.9133 27.0427 25.352 26.296C25.8 25.54 26.1313 24.7 26.346 23.776V23.468ZM21.866 24.378C22.426 26.0113 23.322 27.3647 24.554 28.438C25.786 29.5113 27.4007 30.2627 29.398 30.692C29.2673 30.8133 29.1273 30.9673 28.978 31.154C28.838 31.3407 28.7027 31.532 28.572 31.728C28.4507 31.924 28.348 32.1013 28.264 32.26C26.8547 31.896 25.6367 31.3827 24.61 30.72C23.5927 30.0573 22.7293 29.236 22.02 28.256C21.32 27.2667 20.732 26.1233 20.256 24.826L21.866 24.378ZM36.846 22.222H43.538V23.832H36.846V22.222ZM30.644 21.27H37.308V22.824H30.644V21.27ZM40.374 19.1H42.04V30.16C42.04 30.636 41.9887 31.0047 41.886 31.266C41.7833 31.5367 41.5967 31.742 41.326 31.882C41.0553 32.0313 40.71 32.1293 40.29 32.176C39.87 32.2227 39.366 32.246 38.778 32.246C38.7687 32.078 38.736 31.8867 38.68 31.672C38.624 31.4573 38.5587 31.238 38.484 31.014C38.4093 30.7993 38.3347 30.608 38.26 30.44C38.652 30.4587 39.016 30.468 39.352 30.468C39.688 30.468 39.9167 30.468 40.038 30.468C40.1593 30.468 40.2433 30.4493 40.29 30.412C40.346 30.3653 40.374 30.2813 40.374 30.16V19.1ZM36.706 25.596L38.05 24.952C38.274 25.26 38.4887 25.5913 38.694 25.946C38.9087 26.3007 39.0953 26.6507 39.254 26.996C39.4127 27.332 39.5293 27.6447 39.604 27.934L38.148 28.662C38.0827 28.3913 37.9753 28.0787 37.826 27.724C37.686 27.3693 37.518 27.0053 37.322 26.632C37.126 26.2587 36.9207 25.9133 36.706 25.596ZM30.91 24.798L32.1 23.832C32.5107 24.28 32.9353 24.756 33.374 25.26C33.8127 25.764 34.2373 26.2773 34.648 26.8C35.068 27.3227 35.4413 27.8313 35.768 28.326C36.0947 28.8113 36.3607 29.264 36.566 29.684L35.236 30.832C35.0493 30.412 34.7973 29.95 34.48 29.446C34.1627 28.942 33.8033 28.4193 33.402 27.878C33.01 27.3367 32.5993 26.8047 32.17 26.282C31.75 25.75 31.33 25.2553 30.91 24.798ZM33.094 19.114H34.704V22.222H33.094V19.114ZM34.62 23.104L36.258 23.328C36.0247 24.6813 35.698 25.9133 35.278 27.024C34.858 28.1253 34.3307 29.1053 33.696 29.964C33.0613 30.8133 32.2913 31.5413 31.386 32.148C31.3207 32.036 31.218 31.896 31.078 31.728C30.9473 31.56 30.8073 31.392 30.658 31.224C30.5087 31.0653 30.3733 30.9347 30.252 30.832C31.1107 30.3373 31.8293 29.7167 32.408 28.97C32.9867 28.214 33.4533 27.346 33.808 26.366C34.172 25.386 34.4427 24.2987 34.62 23.104ZM49.922 23.734V24.952H51.168V23.734H49.922ZM49.922 26.198V27.43H51.168V26.198H49.922ZM49.922 21.284V22.488H51.168V21.284H49.922ZM48.522 19.94H52.638V28.76H48.522V19.94ZM50.762 29.474L51.952 28.816C52.1947 29.18 52.4327 29.5813 52.666 30.02C52.9087 30.4587 53.086 30.8367 53.198 31.154L51.924 31.91C51.8587 31.6953 51.7607 31.448 51.63 31.168C51.5087 30.888 51.3687 30.5987 51.21 30.3C51.0607 30.0013 50.9113 29.726 50.762 29.474ZM53.38 20.654H54.822V29.026H53.38V20.654ZM55.662 19.324H57.188V30.398C57.188 30.8087 57.1413 31.1307 57.048 31.364C56.964 31.6067 56.8053 31.7887 56.572 31.91C56.3387 32.05 56.0447 32.1387 55.69 32.176C55.3353 32.2227 54.9107 32.246 54.416 32.246C54.388 32.022 54.3273 31.756 54.234 31.448C54.15 31.14 54.0567 30.874 53.954 30.65C54.2713 30.6593 54.5653 30.664 54.836 30.664C55.1067 30.664 55.2887 30.664 55.382 30.664C55.4847 30.664 55.5547 30.6453 55.592 30.608C55.6387 30.5613 55.662 30.4913 55.662 30.398V19.324ZM49.222 28.802L50.566 29.53C50.426 29.8287 50.2487 30.146 50.034 30.482C49.8287 30.8087 49.614 31.1213 49.39 31.42C49.166 31.728 48.9467 31.9893 48.732 32.204C48.592 32.0733 48.4053 31.9193 48.172 31.742C47.948 31.5647 47.7427 31.4153 47.556 31.294C47.78 31.0887 47.9947 30.846 48.2 30.566C48.4147 30.2767 48.6107 29.978 48.788 29.67C48.9653 29.3527 49.11 29.0633 49.222 28.802ZM46.94 19.128L48.494 19.59C48.2327 20.402 47.9153 21.2233 47.542 22.054C47.178 22.8847 46.7767 23.6733 46.338 24.42C45.8993 25.1573 45.442 25.806 44.966 26.366C44.9287 26.2353 44.8633 26.0533 44.77 25.82C44.6767 25.5867 44.574 25.3533 44.462 25.12C44.35 24.8867 44.252 24.6953 44.168 24.546C44.5413 24.1073 44.9007 23.5987 45.246 23.02C45.6007 22.4413 45.9227 21.8207 46.212 21.158C46.5013 20.486 46.744 19.8093 46.94 19.128ZM45.82 22.978L47.374 21.424L47.416 21.452V32.246H45.82V22.978Z" fill="black"/>
<path d="M24.1477 69.4886L17.358 62.7102L18.8466 61.2045L25.642 67.9943L24.1477 69.4886ZM18.8466 69.4886L17.358 67.9943L24.1477 61.2045L25.642 62.7102L18.8466 69.4886Z" fill="#E11F21"/>
<path d="M33.6861 68.2273V60.1818H35.7202V68.2273H33.6861ZM30.6804 65.2216V63.1875H38.7259V65.2216H30.6804ZM42.6151 58.3636L44.9616 62.3295H45.0526L47.4105 58.3636H50.1889L46.6378 64.1818L50.2685 70H47.4389L45.0526 66.0284H44.9616L42.5753 70H39.7571L43.3991 64.1818L39.8253 58.3636H42.6151Z" fill="#E11F21"/>
<path d="M71.6669 57.3636L72.9851 58.6705L69.5249 62.1307L77.6328 62.1307L77.6328 64.0511L69.5249 64.0511L72.9851 67.5057L71.6669 68.8182L65.9396 63.0909L71.6669 57.3636Z" fill="#00A442"/>
<path d="M86.4361 68.2273V60.1818H88.4702V68.2273H86.4361ZM83.4304 65.2216V63.1875H91.4759V65.2216H83.4304ZM92.7202 58.3636H95.4759L98.1293 63.375H98.2429L100.896 58.3636H103.652L99.4077 65.8864V70H96.9645V65.8864L92.7202 58.3636Z" fill="#00A442"/>
<path d="M124.043 70V61.8807L121.015 64.9205L119.685 63.6023L125.004 58.2955L130.31 63.6023L129.004 64.9205L125.964 61.8807V70H124.043Z" fill="#4159F8"/>
<path d="M139.647 68.2273V60.1818H141.681V68.2273H139.647ZM136.641 65.2216V63.1875H144.687V65.2216H136.641ZM146.988 70V68.5398L152.795 60.392H146.977V58.3636H155.886V59.8239L150.073 67.9716H155.897V70H146.988Z" fill="#4159F8"/>
<rect x="182" y="97" width="40" height="321" fill="#858585"/>
<rect x="182" y="418" width="76" height="74" fill="#5C5C5C"/>
<rect x="16.5" y="148.5" width="134" height="343" fill="#FDDDB7" fill-opacity="0.5" stroke="#9CA3AF" stroke-dasharray="2 2"/>
<path d="M80.8137 325H77.2043V314.818H80.8435C81.8676 314.818 82.7493 315.022 83.4884 315.43C84.2275 315.834 84.7959 316.416 85.1936 317.175C85.5947 317.934 85.7952 318.842 85.7952 319.899C85.7952 320.96 85.5947 321.871 85.1936 322.634C84.7959 323.396 84.2242 323.981 83.4784 324.388C82.736 324.796 81.8477 325 80.8137 325ZM79.357 323.156H80.7242C81.3605 323.156 81.8958 323.043 82.33 322.817C82.7675 322.589 83.0956 322.236 83.3144 321.759C83.5364 321.278 83.6475 320.658 83.6475 319.899C83.6475 319.147 83.5364 318.532 83.3144 318.055C83.0956 317.577 82.7691 317.226 82.335 317.001C81.9008 316.775 81.3655 316.663 80.7291 316.663H79.357V323.156ZM92.9133 317.746C92.8735 317.345 92.7028 317.034 92.4012 316.812C92.0996 316.59 91.6903 316.479 91.1732 316.479C90.8219 316.479 90.5252 316.528 90.2833 316.628C90.0413 316.724 89.8557 316.858 89.7265 317.031C89.6005 317.203 89.5376 317.398 89.5376 317.617C89.5309 317.799 89.569 317.959 89.6519 318.094C89.7381 318.23 89.8557 318.348 90.0049 318.447C90.154 318.544 90.3264 318.628 90.5219 318.701C90.7175 318.771 90.9263 318.83 91.1483 318.88L92.0631 319.099C92.5073 319.198 92.9149 319.331 93.2861 319.496C93.6573 319.662 93.9788 319.866 94.2506 320.108C94.5224 320.35 94.7329 320.635 94.882 320.963C95.0345 321.291 95.1124 321.667 95.1157 322.092C95.1124 322.715 94.9533 323.255 94.6384 323.712C94.3269 324.166 93.8761 324.519 93.2861 324.771C92.6995 325.02 91.9919 325.144 91.1633 325.144C90.3413 325.144 89.6254 325.018 89.0155 324.766C88.409 324.514 87.935 324.142 87.5937 323.648C87.2556 323.151 87.0783 322.536 87.0617 321.803H89.1448C89.168 322.145 89.2658 322.43 89.4381 322.658C89.6138 322.884 89.8474 323.054 90.1391 323.17C90.4341 323.283 90.7672 323.339 91.1384 323.339C91.503 323.339 91.8195 323.286 92.088 323.18C92.3598 323.074 92.5702 322.927 92.7194 322.738C92.8685 322.549 92.9431 322.332 92.9431 322.087C92.9431 321.858 92.8751 321.666 92.7393 321.51C92.6067 321.354 92.4111 321.222 92.1526 321.112C91.8974 321.003 91.5842 320.903 91.213 320.814L90.1043 320.536C89.2459 320.327 88.5681 320 88.0709 319.556C87.5738 319.112 87.3269 318.514 87.3302 317.761C87.3269 317.145 87.4909 316.606 87.8224 316.146C88.1571 315.685 88.6162 315.325 89.1995 315.067C89.7828 314.808 90.4457 314.679 91.1881 314.679C91.9438 314.679 92.6034 314.808 93.1668 315.067C93.7336 315.325 94.1744 315.685 94.4893 316.146C94.8041 316.606 94.9665 317.14 94.9765 317.746H92.9133Z" fill="black"/>
<rect x="280.499" y="491.5" width="343" height="139" transform="rotate(-90 280.499 491.5)" fill="#D6DDE8" fill-opacity="0.5" stroke="#9CA3AF" stroke-dasharray="2 2"/>
<path d="M344.234 317.746C344.194 317.345 344.023 317.034 343.722 316.812C343.42 316.59 343.011 316.479 342.494 316.479C342.142 316.479 341.846 316.528 341.604 316.628C341.362 316.724 341.176 316.858 341.047 317.031C340.921 317.203 340.858 317.398 340.858 317.617C340.851 317.799 340.889 317.959 340.972 318.094C341.058 318.23 341.176 318.348 341.325 318.447C341.474 318.544 341.647 318.628 341.842 318.701C342.038 318.771 342.247 318.83 342.469 318.88L343.383 319.099C343.828 319.198 344.235 319.331 344.606 319.496C344.978 319.662 345.299 319.866 345.571 320.108C345.843 320.35 346.053 320.635 346.202 320.963C346.355 321.291 346.433 321.667 346.436 322.092C346.433 322.715 346.274 323.255 345.959 323.712C345.647 324.166 345.196 324.519 344.606 324.771C344.02 325.02 343.312 325.144 342.484 325.144C341.662 325.144 340.946 325.018 340.336 324.766C339.729 324.514 339.255 324.142 338.914 323.648C338.576 323.151 338.399 322.536 338.382 321.803H340.465C340.488 322.145 340.586 322.43 340.758 322.658C340.934 322.884 341.168 323.054 341.459 323.17C341.754 323.283 342.088 323.339 342.459 323.339C342.823 323.339 343.14 323.286 343.408 323.18C343.68 323.074 343.891 322.927 344.04 322.738C344.189 322.549 344.263 322.332 344.263 322.087C344.263 321.858 344.195 321.666 344.06 321.51C343.927 321.354 343.731 321.222 343.473 321.112C343.218 321.003 342.905 320.903 342.533 320.814L341.425 320.536C340.566 320.327 339.888 320 339.391 319.556C338.894 319.112 338.647 318.514 338.65 317.761C338.647 317.145 338.811 316.606 339.143 316.146C339.477 315.685 339.936 315.325 340.52 315.067C341.103 314.808 341.766 314.679 342.508 314.679C343.264 314.679 343.924 314.808 344.487 315.067C345.054 315.325 345.495 315.685 345.81 316.146C346.124 316.606 346.287 317.14 346.297 317.746H344.234ZM353.407 317.746C353.368 317.345 353.197 317.034 352.895 316.812C352.594 316.59 352.184 316.479 351.667 316.479C351.316 316.479 351.019 316.528 350.777 316.628C350.535 316.724 350.35 316.858 350.221 317.031C350.095 317.203 350.032 317.398 350.032 317.617C350.025 317.799 350.063 317.959 350.146 318.094C350.232 318.23 350.35 318.348 350.499 318.447C350.648 318.544 350.821 318.628 351.016 318.701C351.212 318.771 351.42 318.83 351.642 318.88L352.557 319.099C353.001 319.198 353.409 319.331 353.78 319.496C354.151 319.662 354.473 319.866 354.745 320.108C355.017 320.35 355.227 320.635 355.376 320.963C355.529 321.291 355.607 321.667 355.61 322.092C355.607 322.715 355.447 323.255 355.133 323.712C354.821 324.166 354.37 324.519 353.78 324.771C353.194 325.02 352.486 325.144 351.657 325.144C350.835 325.144 350.12 325.018 349.51 324.766C348.903 324.514 348.429 324.142 348.088 323.648C347.75 323.151 347.572 322.536 347.556 321.803H349.639C349.662 322.145 349.76 322.43 349.932 322.658C350.108 322.884 350.342 323.054 350.633 323.17C350.928 323.283 351.261 323.339 351.633 323.339C351.997 323.339 352.314 323.286 352.582 323.18C352.854 323.074 353.064 322.927 353.214 322.738C353.363 322.549 353.437 322.332 353.437 322.087C353.437 321.858 353.369 321.666 353.233 321.51C353.101 321.354 352.905 321.222 352.647 321.112C352.392 321.003 352.078 320.903 351.707 320.814L350.598 320.536C349.74 320.327 349.062 320 348.565 319.556C348.068 319.112 347.821 318.514 347.824 317.761C347.821 317.145 347.985 316.606 348.316 316.146C348.651 315.685 349.11 315.325 349.694 315.067C350.277 314.808 350.94 314.679 351.682 314.679C352.438 314.679 353.098 314.808 353.661 315.067C354.228 315.325 354.669 315.685 354.983 316.146C355.298 316.606 355.461 317.14 355.471 317.746H353.407Z" fill="#773710"/>
<line x1="139.5" y1="488" x2="139.5" y2="149" stroke="#9CA3AF"/>
<rect x="468.999" y="492" width="1.00001" height="440" transform="rotate(-180 468.999 492)" fill="#D1D5DB"/>
<path d="M524.666 57.3636L525.984 58.6705L522.524 62.1307L530.632 62.1307L530.632 64.0511L522.524 64.0511L525.984 67.5057L524.666 68.8182L518.939 63.0909L524.666 57.3636Z" fill="#E11F21"/>
<path d="M541.856 63.2216V65.142H536.549V63.2216H541.856ZM545.427 58.3636L547.773 62.3295H547.864L550.222 58.3636H553L549.449 64.1818L553.08 70H550.25L547.864 66.0284H547.773L545.387 70H542.569L546.211 64.1818L542.637 58.3636H545.427Z" fill="#E11F21"/>
<path d="M575.147 69.4886L568.357 62.7102L569.846 61.2045L576.641 67.9943L575.147 69.4886ZM569.846 69.4886L568.357 67.9943L575.147 61.2045L576.641 62.7102L569.846 69.4886Z" fill="#00A442"/>
<path d="M584.435 68.2273V60.1818H586.469V68.2273H584.435ZM581.429 65.2216V63.1875H589.475V65.2216H581.429ZM590.719 58.3636H593.475L596.128 63.375H596.242L598.895 58.3636H601.651L597.407 65.8864V70H594.964V65.8864L590.719 58.3636Z" fill="#00A442"/>
<path d="M622.042 70V61.8807L619.014 64.9205L617.684 63.6023L623.003 58.2955L628.309 63.6023L627.003 64.9205L623.963 61.8807V70H622.042Z" fill="#4159F8"/>
<path d="M637.646 68.2273V60.1818H639.68V68.2273H637.646ZM634.64 65.2216V63.1875H642.686V65.2216H634.64ZM644.987 70V68.5398L650.794 60.392H644.976V58.3636H653.885V59.8239L648.072 67.9716H653.896V70H644.987Z" fill="#4159F8"/>
<rect x="516.999" y="418" width="30" height="74" fill="#5C5C5C"/>
<rect x="531.999" y="97" width="15" height="321" fill="#858585"/>
<rect x="546.998" y="97" width="13" height="395" fill="#E4E4E7"/>
<circle cx="140" cy="492" r="4" fill="#FF8308"/>
<line x1="16" y1="491.5" x2="420" y2="491.5" stroke="#6B7280"/>
<line x1="499" y1="491.5" x2="560" y2="491.5" stroke="#6B7280"/>
</svg>
