<svg width="1106" height="89" viewBox="0 0 1106 89" fill="none" xmlns="http://www.w3.org/2000/svg">
<rect x="0.5" y="0.5" width="1105" height="88" stroke="#E5E5E5"/>
<path d="M19.024 19.828H28.824V21.494H19.024V19.828ZM19.22 23.468H26.794V25.092H19.22V23.468ZM18.17 19.828H19.85V23.748C19.85 24.364 19.8267 25.0407 19.78 25.778C19.7427 26.5153 19.654 27.2713 19.514 28.046C19.3833 28.8207 19.1873 29.5673 18.926 30.286C18.674 31.0047 18.3427 31.6533 17.932 32.232C17.8293 32.1293 17.6893 32.0127 17.512 31.882C17.344 31.7513 17.1667 31.6253 16.98 31.504C16.7933 31.392 16.6347 31.3033 16.504 31.238C16.8867 30.706 17.19 30.1227 17.414 29.488C17.638 28.8533 17.806 28.2047 17.918 27.542C18.03 26.87 18.1 26.212 18.128 25.568C18.156 24.9147 18.17 24.308 18.17 23.748V19.828ZM26.346 23.468H26.682L26.99 23.398L28.18 23.874C27.8907 25.05 27.494 26.0907 26.99 26.996C26.486 27.892 25.8887 28.6807 25.198 29.362C24.5073 30.034 23.7327 30.6033 22.874 31.07C22.0247 31.546 21.1007 31.9427 20.102 32.26C20.0273 32.1013 19.934 31.924 19.822 31.728C19.7193 31.5413 19.6027 31.3547 19.472 31.168C19.3507 30.9813 19.234 30.8273 19.122 30.706C20.018 30.482 20.8533 30.1693 21.628 29.768C22.412 29.3573 23.1167 28.8627 23.742 28.284C24.3767 27.7053 24.9133 27.0427 25.352 26.296C25.8 25.54 26.1313 24.7 26.346 23.776V23.468ZM21.866 24.378C22.426 26.0113 23.322 27.3647 24.554 28.438C25.786 29.5113 27.4007 30.2627 29.398 30.692C29.2673 30.8133 29.1273 30.9673 28.978 31.154C28.838 31.3407 28.7027 31.532 28.572 31.728C28.4507 31.924 28.348 32.1013 28.264 32.26C26.8547 31.896 25.6367 31.3827 24.61 30.72C23.5927 30.0573 22.7293 29.236 22.02 28.256C21.32 27.2667 20.732 26.1233 20.256 24.826L21.866 24.378ZM36.846 22.222H43.538V23.832H36.846V22.222ZM30.644 21.27H37.308V22.824H30.644V21.27ZM40.374 19.1H42.04V30.16C42.04 30.636 41.9887 31.0047 41.886 31.266C41.7833 31.5367 41.5967 31.742 41.326 31.882C41.0553 32.0313 40.71 32.1293 40.29 32.176C39.87 32.2227 39.366 32.246 38.778 32.246C38.7687 32.078 38.736 31.8867 38.68 31.672C38.624 31.4573 38.5587 31.238 38.484 31.014C38.4093 30.7993 38.3347 30.608 38.26 30.44C38.652 30.4587 39.016 30.468 39.352 30.468C39.688 30.468 39.9167 30.468 40.038 30.468C40.1593 30.468 40.2433 30.4493 40.29 30.412C40.346 30.3653 40.374 30.2813 40.374 30.16V19.1ZM36.706 25.596L38.05 24.952C38.274 25.26 38.4887 25.5913 38.694 25.946C38.9087 26.3007 39.0953 26.6507 39.254 26.996C39.4127 27.332 39.5293 27.6447 39.604 27.934L38.148 28.662C38.0827 28.3913 37.9753 28.0787 37.826 27.724C37.686 27.3693 37.518 27.0053 37.322 26.632C37.126 26.2587 36.9207 25.9133 36.706 25.596ZM30.91 24.798L32.1 23.832C32.5107 24.28 32.9353 24.756 33.374 25.26C33.8127 25.764 34.2373 26.2773 34.648 26.8C35.068 27.3227 35.4413 27.8313 35.768 28.326C36.0947 28.8113 36.3607 29.264 36.566 29.684L35.236 30.832C35.0493 30.412 34.7973 29.95 34.48 29.446C34.1627 28.942 33.8033 28.4193 33.402 27.878C33.01 27.3367 32.5993 26.8047 32.17 26.282C31.75 25.75 31.33 25.2553 30.91 24.798ZM33.094 19.114H34.704V22.222H33.094V19.114ZM34.62 23.104L36.258 23.328C36.0247 24.6813 35.698 25.9133 35.278 27.024C34.858 28.1253 34.3307 29.1053 33.696 29.964C33.0613 30.8133 32.2913 31.5413 31.386 32.148C31.3207 32.036 31.218 31.896 31.078 31.728C30.9473 31.56 30.8073 31.392 30.658 31.224C30.5087 31.0653 30.3733 30.9347 30.252 30.832C31.1107 30.3373 31.8293 29.7167 32.408 28.97C32.9867 28.214 33.4533 27.346 33.808 26.366C34.172 25.386 34.4427 24.2987 34.62 23.104ZM49.922 23.734V24.952H51.168V23.734H49.922ZM49.922 26.198V27.43H51.168V26.198H49.922ZM49.922 21.284V22.488H51.168V21.284H49.922ZM48.522 19.94H52.638V28.76H48.522V19.94ZM50.762 29.474L51.952 28.816C52.1947 29.18 52.4327 29.5813 52.666 30.02C52.9087 30.4587 53.086 30.8367 53.198 31.154L51.924 31.91C51.8587 31.6953 51.7607 31.448 51.63 31.168C51.5087 30.888 51.3687 30.5987 51.21 30.3C51.0607 30.0013 50.9113 29.726 50.762 29.474ZM53.38 20.654H54.822V29.026H53.38V20.654ZM55.662 19.324H57.188V30.398C57.188 30.8087 57.1413 31.1307 57.048 31.364C56.964 31.6067 56.8053 31.7887 56.572 31.91C56.3387 32.05 56.0447 32.1387 55.69 32.176C55.3353 32.2227 54.9107 32.246 54.416 32.246C54.388 32.022 54.3273 31.756 54.234 31.448C54.15 31.14 54.0567 30.874 53.954 30.65C54.2713 30.6593 54.5653 30.664 54.836 30.664C55.1067 30.664 55.2887 30.664 55.382 30.664C55.4847 30.664 55.5547 30.6453 55.592 30.608C55.6387 30.5613 55.662 30.4913 55.662 30.398V19.324ZM49.222 28.802L50.566 29.53C50.426 29.8287 50.2487 30.146 50.034 30.482C49.8287 30.8087 49.614 31.1213 49.39 31.42C49.166 31.728 48.9467 31.9893 48.732 32.204C48.592 32.0733 48.4053 31.9193 48.172 31.742C47.948 31.5647 47.7427 31.4153 47.556 31.294C47.78 31.0887 47.9947 30.846 48.2 30.566C48.4147 30.2767 48.6107 29.978 48.788 29.67C48.9653 29.3527 49.11 29.0633 49.222 28.802ZM46.94 19.128L48.494 19.59C48.2327 20.402 47.9153 21.2233 47.542 22.054C47.178 22.8847 46.7767 23.6733 46.338 24.42C45.8993 25.1573 45.442 25.806 44.966 26.366C44.9287 26.2353 44.8633 26.0533 44.77 25.82C44.6767 25.5867 44.574 25.3533 44.462 25.12C44.35 24.8867 44.252 24.6953 44.168 24.546C44.5413 24.1073 44.9007 23.5987 45.246 23.02C45.6007 22.4413 45.9227 21.8207 46.212 21.158C46.5013 20.486 46.744 19.8093 46.94 19.128ZM45.82 22.978L47.374 21.424L47.416 21.452V32.246H45.82V22.978Z" fill="black"/>
<path d="M27.0778 57.102C27.0778 57.3447 27.1618 57.55 27.3298 57.718C27.4978 57.886 27.7032 57.97 27.9458 57.97C28.1885 57.97 28.3938 57.886 28.5618 57.718C28.7392 57.55 28.8278 57.3447 28.8278 57.102C28.8278 56.8593 28.7392 56.654 28.5618 56.486C28.3938 56.3087 28.1885 56.22 27.9458 56.22C27.7032 56.22 27.4978 56.3087 27.3298 56.486C27.1618 56.654 27.0778 56.8593 27.0778 57.102ZM26.3358 57.102C26.3358 56.8033 26.4058 56.5327 26.5458 56.29C26.6952 56.0473 26.8912 55.8513 27.1338 55.702C27.3765 55.5527 27.6472 55.478 27.9458 55.478C28.2445 55.478 28.5152 55.5527 28.7578 55.702C29.0005 55.8513 29.1965 56.0473 29.3458 56.29C29.4952 56.5327 29.5698 56.8033 29.5698 57.102C29.5698 57.4007 29.4952 57.6713 29.3458 57.914C29.1965 58.1567 29.0005 58.3527 28.7578 58.502C28.5152 58.642 28.2445 58.712 27.9458 58.712C27.6472 58.712 27.3765 58.642 27.1338 58.502C26.8912 58.3527 26.6952 58.1567 26.5458 57.914C26.4058 57.6713 26.3358 57.4007 26.3358 57.102ZM18.9018 62.73C19.0512 62.3473 19.1958 61.9413 19.3358 61.512C19.4852 61.0827 19.6205 60.6393 19.7418 60.182C19.8632 59.7153 19.9658 59.2533 20.0498 58.796C20.1432 58.3387 20.2132 57.9 20.2598 57.48L21.8418 57.802C21.8138 57.9233 21.7812 58.0587 21.7438 58.208C21.7065 58.348 21.6692 58.488 21.6318 58.628C21.6038 58.768 21.5758 58.8893 21.5478 58.992C21.5012 59.216 21.4358 59.5053 21.3518 59.86C21.2772 60.2053 21.1838 60.5787 21.0718 60.98C20.9598 61.372 20.8385 61.7733 20.7078 62.184C20.5865 62.5853 20.4558 62.9587 20.3158 63.304C20.1478 63.7427 19.9518 64.1953 19.7278 64.662C19.5038 65.1193 19.2658 65.5673 19.0138 66.006C18.7618 66.4447 18.5098 66.846 18.2578 67.21L16.7318 66.566C17.1705 65.9873 17.5812 65.3527 17.9638 64.662C18.3465 63.962 18.6592 63.318 18.9018 62.73ZM25.8038 62.296C25.6638 61.932 25.5052 61.5447 25.3278 61.134C25.1598 60.7233 24.9825 60.3127 24.7958 59.902C24.6185 59.482 24.4412 59.09 24.2638 58.726C24.0865 58.362 23.9232 58.0493 23.7738 57.788L25.2158 57.312C25.3558 57.5733 25.5145 57.886 25.6918 58.25C25.8785 58.614 26.0652 59.006 26.2518 59.426C26.4385 59.8367 26.6205 60.2473 26.7978 60.658C26.9752 61.0687 27.1338 61.4513 27.2738 61.806C27.4045 62.142 27.5445 62.52 27.6938 62.94C27.8525 63.36 28.0065 63.794 28.1558 64.242C28.3145 64.6807 28.4592 65.11 28.5898 65.53C28.7205 65.9407 28.8325 66.314 28.9258 66.65L27.3298 67.168C27.2085 66.6547 27.0638 66.118 26.8958 65.558C26.7278 64.998 26.5505 64.438 26.3638 63.878C26.1865 63.318 25.9998 62.7907 25.8038 62.296ZM31.1378 61.778C32.3698 61.4513 33.4992 61.064 34.5258 60.616C35.5618 60.1587 36.4672 59.6873 37.2418 59.202C37.7365 58.9033 38.2172 58.5673 38.6838 58.194C39.1598 57.8207 39.6078 57.4333 40.0278 57.032C40.4478 56.6307 40.8165 56.2433 41.1338 55.87L42.3098 56.99C41.8992 57.41 41.4558 57.8253 40.9798 58.236C40.5038 58.6467 39.9998 59.0433 39.4678 59.426C38.9452 59.7993 38.4085 60.154 37.8578 60.49C37.3445 60.8073 36.7612 61.1293 36.1078 61.456C35.4545 61.7733 34.7638 62.0813 34.0358 62.38C33.3078 62.6693 32.5705 62.9307 31.8238 63.164L31.1378 61.778ZM36.9898 59.93L38.5438 59.524V65.866C38.5438 66.0527 38.5438 66.258 38.5438 66.482C38.5532 66.6967 38.5625 66.8973 38.5718 67.084C38.5905 67.2707 38.6138 67.4153 38.6418 67.518H36.9058C36.9152 67.4153 36.9292 67.2707 36.9478 67.084C36.9665 66.8973 36.9758 66.6967 36.9758 66.482C36.9852 66.258 36.9898 66.0527 36.9898 65.866V59.93ZM55.4138 56.85C55.4138 57.0927 55.4978 57.298 55.6658 57.466C55.8338 57.634 56.0392 57.718 56.2818 57.718C56.5245 57.718 56.7298 57.634 56.8978 57.466C57.0752 57.298 57.1638 57.0927 57.1638 56.85C57.1638 56.6073 57.0752 56.402 56.8978 56.234C56.7298 56.0567 56.5245 55.968 56.2818 55.968C56.0392 55.968 55.8338 56.0567 55.6658 56.234C55.4978 56.402 55.4138 56.6073 55.4138 56.85ZM54.6718 56.85C54.6718 56.5513 54.7418 56.2807 54.8818 56.038C55.0312 55.7953 55.2272 55.604 55.4698 55.464C55.7125 55.3147 55.9832 55.24 56.2818 55.24C56.5805 55.24 56.8512 55.3147 57.0938 55.464C57.3365 55.604 57.5325 55.7953 57.6818 56.038C57.8312 56.2807 57.9058 56.5513 57.9058 56.85C57.9058 57.1487 57.8312 57.4193 57.6818 57.662C57.5325 57.9047 57.3365 58.1007 57.0938 58.25C56.8512 58.39 56.5805 58.46 56.2818 58.46C55.9832 58.46 55.7125 58.39 55.4698 58.25C55.2272 58.1007 55.0312 57.9047 54.8818 57.662C54.7418 57.4193 54.6718 57.1487 54.6718 56.85ZM56.0998 57.872C56.0438 57.984 55.9925 58.11 55.9458 58.25C55.9085 58.39 55.8758 58.5347 55.8478 58.684C55.7638 59.0387 55.6612 59.4353 55.5398 59.874C55.4278 60.3127 55.2832 60.7653 55.1058 61.232C54.9378 61.6987 54.7372 62.156 54.5038 62.604C54.2798 63.0427 54.0278 63.4487 53.7478 63.822C53.3185 64.3633 52.8332 64.8767 52.2918 65.362C51.7598 65.838 51.1532 66.2673 50.4718 66.65C49.7905 67.0233 49.0298 67.3453 48.1898 67.616L46.9858 66.3C47.9005 66.0667 48.6938 65.7867 49.3658 65.46C50.0378 65.1333 50.6212 64.76 51.1158 64.34C51.6198 63.9107 52.0678 63.4533 52.4598 62.968C52.7772 62.5573 53.0525 62.1 53.2858 61.596C53.5285 61.092 53.7245 60.588 53.8738 60.084C54.0325 59.5707 54.1445 59.0993 54.2098 58.67C54.0698 58.67 53.8272 58.67 53.4818 58.67C53.1365 58.67 52.7305 58.67 52.2638 58.67C51.7972 58.67 51.3072 58.67 50.7938 58.67C50.2805 58.67 49.7905 58.67 49.3238 58.67C48.8572 58.67 48.4418 58.67 48.0778 58.67C47.7232 58.67 47.4712 58.67 47.3218 58.67C47.0232 58.67 46.7432 58.6747 46.4818 58.684C46.2205 58.6933 45.9965 58.7073 45.8098 58.726V57.158C45.9498 57.1673 46.1038 57.1813 46.2718 57.2C46.4492 57.2187 46.6312 57.2327 46.8178 57.242C47.0045 57.2513 47.1725 57.256 47.3218 57.256C47.4525 57.256 47.6578 57.256 47.9378 57.256C48.2272 57.256 48.5632 57.256 48.9458 57.256C49.3285 57.256 49.7298 57.256 50.1498 57.256C50.5792 57.256 51.0038 57.256 51.4238 57.256C51.8532 57.256 52.2498 57.256 52.6138 57.256C52.9872 57.256 53.3045 57.256 53.5658 57.256C53.8365 57.256 54.0185 57.256 54.1118 57.256C54.2332 57.256 54.3732 57.2513 54.5318 57.242C54.6998 57.2327 54.8585 57.2093 55.0078 57.172L56.0998 57.872ZM63.7438 58.586C64.1452 58.6233 64.5418 58.656 64.9338 58.684C65.3352 58.7027 65.7458 58.712 66.1658 58.712C67.0058 58.712 67.8458 58.6747 68.6858 58.6C69.5258 58.5253 70.3052 58.418 71.0238 58.278V59.636C70.2772 59.7573 69.4838 59.846 68.6438 59.902C67.8132 59.958 66.9825 59.9907 66.1518 60C65.7412 60 65.3398 59.9907 64.9478 59.972C64.5652 59.9533 64.1685 59.93 63.7578 59.902L63.7438 58.586ZM68.8258 56.136C68.8072 56.276 68.7885 56.4207 68.7698 56.57C68.7605 56.7193 68.7512 56.864 68.7418 57.004C68.7325 57.1627 68.7232 57.3727 68.7138 57.634C68.7138 57.8953 68.7092 58.18 68.6998 58.488C68.6998 58.7867 68.6998 59.0853 68.6998 59.384C68.6998 59.972 68.7092 60.5367 68.7278 61.078C68.7558 61.6193 68.7838 62.1327 68.8118 62.618C68.8398 63.1033 68.8632 63.5607 68.8818 63.99C68.9005 64.41 68.9098 64.7927 68.9098 65.138C68.9098 65.4553 68.8678 65.7587 68.7838 66.048C68.6998 66.3373 68.5598 66.594 68.3638 66.818C68.1678 67.042 67.9018 67.2147 67.5658 67.336C67.2392 67.4667 66.8332 67.532 66.3478 67.532C65.3958 67.532 64.6585 67.3453 64.1358 66.972C63.6132 66.5987 63.3518 66.076 63.3518 65.404C63.3518 64.9747 63.4685 64.592 63.7018 64.256C63.9445 63.92 64.2852 63.654 64.7238 63.458C65.1718 63.262 65.7085 63.164 66.3338 63.164C66.9592 63.164 67.5285 63.234 68.0418 63.374C68.5552 63.5047 69.0312 63.6867 69.4698 63.92C69.9085 64.144 70.3005 64.3913 70.6458 64.662C71.0005 64.9327 71.3225 65.194 71.6118 65.446L70.8558 66.622C70.3518 66.1367 69.8478 65.7167 69.3438 65.362C68.8492 65.0073 68.3452 64.732 67.8318 64.536C67.3185 64.34 66.7818 64.242 66.2218 64.242C65.7458 64.242 65.3585 64.3353 65.0598 64.522C64.7705 64.7087 64.6258 64.9513 64.6258 65.25C64.6258 65.5767 64.7705 65.824 65.0598 65.992C65.3492 66.1507 65.7178 66.23 66.1658 66.23C66.5112 66.23 66.7818 66.174 66.9778 66.062C67.1738 65.95 67.3138 65.7867 67.3978 65.572C67.4818 65.3573 67.5238 65.1053 67.5238 64.816C67.5238 64.5733 67.5145 64.2467 67.4958 63.836C67.4772 63.416 67.4538 62.9587 67.4258 62.464C67.3978 61.96 67.3745 61.4467 67.3558 60.924C67.3372 60.392 67.3278 59.8833 67.3278 59.398C67.3278 58.894 67.3278 58.432 67.3278 58.012C67.3278 57.5827 67.3278 57.256 67.3278 57.032C67.3278 56.9107 67.3185 56.766 67.2998 56.598C67.2905 56.4207 67.2718 56.2667 67.2438 56.136H68.8258ZM61.9518 56.262C61.9238 56.3367 61.8912 56.444 61.8538 56.584C61.8165 56.724 61.7792 56.864 61.7418 57.004C61.7138 57.144 61.6905 57.256 61.6718 57.34C61.6252 57.564 61.5692 57.8533 61.5038 58.208C61.4478 58.5533 61.3872 58.936 61.3218 59.356C61.2658 59.7667 61.2098 60.1867 61.1538 60.616C61.1072 61.0453 61.0652 61.456 61.0278 61.848C60.9998 62.24 60.9858 62.5853 60.9858 62.884C60.9858 63.1267 60.9952 63.374 61.0138 63.626C61.0325 63.8687 61.0605 64.1207 61.0978 64.382C61.1632 64.186 61.2378 63.9853 61.3218 63.78C61.4058 63.5653 61.4898 63.3553 61.5738 63.15C61.6672 62.9447 61.7512 62.758 61.8258 62.59L62.5258 63.136C62.4045 63.4907 62.2738 63.8733 62.1338 64.284C61.9938 64.6853 61.8678 65.068 61.7558 65.432C61.6532 65.796 61.5738 66.0993 61.5178 66.342C61.4992 66.4353 61.4805 66.5473 61.4618 66.678C61.4525 66.7993 61.4478 66.902 61.4478 66.986C61.4572 67.0513 61.4618 67.1307 61.4618 67.224C61.4712 67.3267 61.4805 67.42 61.4898 67.504L60.2438 67.602C60.0945 67.1073 59.9638 66.482 59.8518 65.726C59.7492 64.9607 59.6978 64.102 59.6978 63.15C59.6978 62.6273 59.7212 62.086 59.7678 61.526C59.8145 60.9567 59.8705 60.4013 59.9358 59.86C60.0105 59.3187 60.0805 58.824 60.1458 58.376C60.2112 57.928 60.2672 57.564 60.3138 57.284C60.3325 57.1067 60.3512 56.9153 60.3698 56.71C60.3978 56.5047 60.4165 56.3087 60.4258 56.122L61.9518 56.262ZM79.1718 55.604H80.4178V57.312C80.4178 57.732 80.3712 58.1753 80.2778 58.642C80.1938 59.0993 80.0212 59.5427 79.7598 59.972C79.5078 60.4013 79.1345 60.784 78.6398 61.12C78.5838 61.036 78.4952 60.938 78.3738 60.826C78.2525 60.714 78.1265 60.6067 77.9958 60.504C77.8652 60.392 77.7532 60.3127 77.6598 60.266C78.0985 59.9673 78.4252 59.65 78.6398 59.314C78.8545 58.978 78.9945 58.6373 79.0598 58.292C79.1345 57.9467 79.1718 57.6107 79.1718 57.284V55.604ZM82.4618 55.604H83.7078V58.922C83.7078 59.09 83.7218 59.1973 83.7498 59.244C83.7778 59.2907 83.8432 59.314 83.9458 59.314C83.9738 59.314 84.0252 59.314 84.0998 59.314C84.1745 59.314 84.2492 59.314 84.3238 59.314C84.4078 59.314 84.4638 59.314 84.4918 59.314C84.5665 59.314 84.6225 59.2813 84.6598 59.216C84.6972 59.1507 84.7252 59.0107 84.7438 58.796C84.7625 58.5813 84.7765 58.2593 84.7858 57.83C84.9072 57.9327 85.0752 58.026 85.2898 58.11C85.5138 58.194 85.7098 58.2593 85.8778 58.306C85.8498 58.866 85.7892 59.3047 85.6958 59.622C85.6025 59.93 85.4718 60.1447 85.3038 60.266C85.1358 60.3873 84.9118 60.448 84.6318 60.448C84.5665 60.448 84.4732 60.448 84.3518 60.448C84.2398 60.448 84.1232 60.448 84.0018 60.448C83.8805 60.448 83.7872 60.448 83.7218 60.448C83.4045 60.448 83.1525 60.406 82.9658 60.322C82.7792 60.2287 82.6485 60.0747 82.5738 59.86C82.4992 59.636 82.4618 59.328 82.4618 58.936V55.604ZM80.1658 62.45C80.6512 63.5607 81.3885 64.5173 82.3778 65.32C83.3672 66.1227 84.5432 66.692 85.9058 67.028C85.8125 67.112 85.7098 67.224 85.5978 67.364C85.4858 67.504 85.3785 67.644 85.2758 67.784C85.1825 67.924 85.1032 68.05 85.0378 68.162C83.6192 67.742 82.4012 67.0793 81.3838 66.174C80.3758 65.2593 79.5778 64.1393 78.9898 62.814L80.1658 62.45ZM83.7498 61.232H84.0018L84.2258 61.19L85.0938 61.512C84.8512 62.436 84.5152 63.262 84.0858 63.99C83.6565 64.7087 83.1478 65.3387 82.5598 65.88C81.9812 66.4213 81.3418 66.8787 80.6418 67.252C79.9418 67.6347 79.1952 67.9427 78.4018 68.176C78.3645 68.0547 78.3038 67.9193 78.2198 67.77C78.1358 67.63 78.0472 67.49 77.9538 67.35C77.8605 67.21 77.7718 67.0933 77.6878 67C78.4065 66.8227 79.0878 66.5753 79.7318 66.258C80.3758 65.9313 80.9638 65.5393 81.4958 65.082C82.0278 64.6153 82.4852 64.0787 82.8678 63.472C83.2505 62.8653 83.5445 62.1887 83.7498 61.442V61.232ZM78.3598 61.232H84.2678V62.436H78.3598V61.232ZM79.6758 55.604H83.1198V56.78H79.6758V55.604ZM73.4318 59.44H77.6878V60.462H73.4318V59.44ZM73.5018 55.646H77.6598V56.682H73.5018V55.646ZM73.4318 61.33H77.6878V62.352H73.4318V61.33ZM72.7738 57.508H78.1778V58.572H72.7738V57.508ZM74.0478 63.248H77.6598V67.406H74.0478V66.342H76.5118V64.312H74.0478V63.248ZM73.4038 63.248H74.5518V68.008H73.4038V63.248ZM89.3778 59.44H97.3718V60.7H89.3778V59.44ZM93.3538 62.786H98.0718V64.032H93.3538V62.786ZM92.6538 60.14H94.0258V67.084L92.6538 66.902V60.14ZM89.3218 61.722L90.6938 61.862C90.5072 63.2807 90.1852 64.5313 89.7278 65.614C89.2705 66.6873 88.6452 67.5693 87.8518 68.26C87.7865 68.176 87.6838 68.0733 87.5438 67.952C87.4132 67.84 87.2732 67.728 87.1238 67.616C86.9838 67.504 86.8625 67.4153 86.7598 67.35C87.5345 66.7713 88.1178 66.0013 88.5098 65.04C88.9112 64.0693 89.1818 62.9633 89.3218 61.722ZM90.2878 63.5C90.5212 64.1813 90.8245 64.7367 91.1978 65.166C91.5712 65.586 92.0005 65.908 92.4858 66.132C92.9805 66.3467 93.5218 66.496 94.1098 66.58C94.6978 66.6547 95.3278 66.692 95.9998 66.692C96.1305 66.692 96.3172 66.692 96.5598 66.692C96.8025 66.692 97.0732 66.692 97.3718 66.692C97.6798 66.692 97.9878 66.692 98.2958 66.692C98.6132 66.6827 98.9025 66.678 99.1638 66.678C99.4345 66.678 99.6492 66.6733 99.8078 66.664C99.7425 66.7667 99.6772 66.8973 99.6118 67.056C99.5465 67.224 99.4858 67.392 99.4298 67.56C99.3832 67.728 99.3458 67.8773 99.3178 68.008H98.6178H95.9298C95.1085 68.008 94.3525 67.952 93.6618 67.84C92.9712 67.728 92.3458 67.5273 91.7858 67.238C91.2258 66.9487 90.7312 66.5333 90.3018 65.992C89.8725 65.4507 89.5085 64.7507 89.2098 63.892L90.2878 63.5ZM92.6258 55.198H94.0398V57.578H92.6258V55.198ZM87.4318 56.71H99.2758V59.972H97.9178V57.97H88.7338V59.972H87.4318V56.71ZM107.648 57.074C107.601 56.9153 107.545 56.7333 107.48 56.528C107.414 56.3133 107.34 56.0987 107.256 55.884L108.768 55.702C108.814 56.01 108.884 56.3413 108.978 56.696C109.071 57.0413 109.174 57.3867 109.286 57.732C109.398 58.0773 109.505 58.404 109.608 58.712C109.822 59.3 110.084 59.888 110.392 60.476C110.709 61.0547 111.003 61.526 111.274 61.89C111.376 62.0393 111.484 62.184 111.596 62.324C111.708 62.464 111.824 62.5947 111.946 62.716L111.246 63.724C111.059 63.6773 110.821 63.6353 110.532 63.598C110.252 63.5607 109.944 63.5233 109.608 63.486C109.281 63.4487 108.95 63.416 108.614 63.388C108.287 63.36 107.988 63.332 107.718 63.304L107.816 62.142C108.068 62.1607 108.334 62.184 108.614 62.212C108.894 62.2307 109.16 62.254 109.412 62.282C109.664 62.3007 109.869 62.3193 110.028 62.338C109.841 62.0487 109.64 61.7173 109.426 61.344C109.22 60.9707 109.02 60.5833 108.824 60.182C108.628 59.7713 108.455 59.3607 108.306 58.95C108.156 58.558 108.026 58.2033 107.914 57.886C107.811 57.5687 107.722 57.298 107.648 57.074ZM102.538 57.97C103.359 58.0633 104.143 58.1287 104.89 58.166C105.636 58.2033 106.341 58.2127 107.004 58.194C107.666 58.1753 108.268 58.138 108.81 58.082C109.202 58.0353 109.603 57.9793 110.014 57.914C110.424 57.8393 110.83 57.7553 111.232 57.662C111.642 57.5687 112.03 57.4613 112.394 57.34L112.562 58.74C112.244 58.824 111.894 58.908 111.512 58.992C111.138 59.0667 110.756 59.1367 110.364 59.202C109.972 59.258 109.598 59.3093 109.244 59.356C108.338 59.4587 107.33 59.5147 106.22 59.524C105.109 59.5333 103.891 59.4867 102.566 59.384L102.538 57.97ZM104.988 62.562C104.773 62.898 104.605 63.2247 104.484 63.542C104.372 63.85 104.316 64.1673 104.316 64.494C104.316 65.1193 104.586 65.5767 105.128 65.866C105.678 66.1553 106.458 66.3047 107.466 66.314C108.203 66.3233 108.875 66.2953 109.482 66.23C110.088 66.1647 110.639 66.0807 111.134 65.978L111.064 67.378C110.644 67.4527 110.126 67.5227 109.51 67.588C108.903 67.6627 108.194 67.6953 107.382 67.686C106.467 67.686 105.674 67.5693 105.002 67.336C104.33 67.112 103.812 66.7807 103.448 66.342C103.084 65.894 102.902 65.348 102.902 64.704C102.902 64.2933 102.962 63.892 103.084 63.5C103.214 63.108 103.387 62.6927 103.602 62.254L104.988 62.562ZM128.144 66.076C127.789 66.4213 127.397 66.6967 126.968 66.902C126.538 67.098 126.062 67.196 125.54 67.196C125.045 67.196 124.648 67.0327 124.35 66.706C124.051 66.3793 123.902 65.9033 123.902 65.278C123.902 64.8953 123.925 64.48 123.972 64.032C124.028 63.584 124.088 63.1313 124.154 62.674C124.219 62.2073 124.28 61.764 124.336 61.344C124.392 60.924 124.42 60.5507 124.42 60.224C124.42 59.8413 124.326 59.5613 124.14 59.384C123.953 59.2067 123.692 59.118 123.356 59.118C123.029 59.118 122.665 59.2207 122.264 59.426C121.862 59.6313 121.452 59.9067 121.032 60.252C120.612 60.588 120.206 60.9567 119.814 61.358C119.422 61.75 119.072 62.1373 118.764 62.52L118.778 60.798C118.946 60.6113 119.165 60.392 119.436 60.14C119.716 59.8787 120.028 59.6127 120.374 59.342C120.719 59.0713 121.083 58.8193 121.466 58.586C121.858 58.3527 122.245 58.166 122.628 58.026C123.02 57.8767 123.393 57.802 123.748 57.802C124.214 57.802 124.597 57.886 124.896 58.054C125.204 58.222 125.432 58.4553 125.582 58.754C125.731 59.0433 125.806 59.384 125.806 59.776C125.806 60.1213 125.778 60.518 125.722 60.966C125.675 61.4047 125.619 61.8573 125.554 62.324C125.488 62.7813 125.428 63.234 125.372 63.682C125.325 64.1207 125.302 64.522 125.302 64.886C125.302 65.0913 125.353 65.2687 125.456 65.418C125.568 65.5673 125.731 65.642 125.946 65.642C126.254 65.642 126.576 65.5487 126.912 65.362C127.257 65.166 127.598 64.8953 127.934 64.55L128.144 66.076ZM118.61 59.398C118.488 59.4167 118.311 59.44 118.078 59.468C117.844 59.496 117.588 59.5287 117.308 59.566C117.028 59.6033 116.743 59.6407 116.454 59.678C116.174 59.7153 115.908 59.7527 115.656 59.79L115.516 58.362C115.693 58.3713 115.861 58.376 116.02 58.376C116.178 58.3667 116.36 58.3573 116.566 58.348C116.771 58.3293 117.018 58.306 117.308 58.278C117.606 58.2407 117.914 58.2033 118.232 58.166C118.549 58.1193 118.848 58.0727 119.128 58.026C119.408 57.97 119.627 57.914 119.786 57.858L120.248 58.446C120.173 58.558 120.08 58.698 119.968 58.866C119.865 59.0247 119.758 59.188 119.646 59.356C119.543 59.524 119.454 59.6733 119.38 59.804L118.778 62.03C118.619 62.2727 118.423 62.562 118.19 62.898C117.966 63.234 117.728 63.5887 117.476 63.962C117.224 64.326 116.972 64.69 116.72 65.054C116.477 65.4087 116.253 65.726 116.048 66.006L115.18 64.788C115.348 64.5733 115.548 64.312 115.782 64.004C116.024 63.696 116.272 63.3693 116.524 63.024C116.785 62.6787 117.042 62.3333 117.294 61.988C117.546 61.6427 117.774 61.3253 117.98 61.036C118.185 60.7373 118.348 60.49 118.47 60.294L118.512 59.72L118.61 59.398ZM118.47 56.92C118.47 56.7427 118.465 56.556 118.456 56.36C118.456 56.164 118.442 55.9727 118.414 55.786L120.038 55.842C120 56.038 119.949 56.3367 119.884 56.738C119.828 57.1393 119.772 57.606 119.716 58.138C119.66 58.67 119.604 59.23 119.548 59.818C119.501 60.406 119.464 60.9893 119.436 61.568C119.408 62.1467 119.394 62.6833 119.394 63.178C119.394 63.5793 119.394 63.9667 119.394 64.34C119.394 64.7133 119.398 65.0867 119.408 65.46C119.426 65.8333 119.445 66.2347 119.464 66.664C119.473 66.7853 119.482 66.9347 119.492 67.112C119.51 67.2987 119.524 67.4667 119.534 67.616H118.022C118.04 67.4667 118.05 67.3033 118.05 67.126C118.059 66.9487 118.064 66.804 118.064 66.692C118.064 66.244 118.064 65.838 118.064 65.474C118.073 65.1007 118.078 64.718 118.078 64.326C118.087 63.9247 118.101 63.4533 118.12 62.912C118.12 62.6973 118.129 62.4173 118.148 62.072C118.166 61.7267 118.19 61.344 118.218 60.924C118.246 60.504 118.274 60.0793 118.302 59.65C118.33 59.2207 118.353 58.8147 118.372 58.432C118.4 58.0493 118.423 57.7227 118.442 57.452C118.46 57.1813 118.47 57.004 118.47 56.92ZM129.246 57.55C129.517 57.5407 129.769 57.5313 130.002 57.522C130.235 57.5033 130.417 57.4893 130.548 57.48C130.8 57.4613 131.136 57.4333 131.556 57.396C131.985 57.3493 132.471 57.3027 133.012 57.256C133.553 57.2 134.132 57.1487 134.748 57.102C135.364 57.046 135.994 56.99 136.638 56.934C137.142 56.8873 137.627 56.85 138.094 56.822C138.561 56.7847 138.999 56.7567 139.41 56.738C139.821 56.71 140.185 56.6913 140.502 56.682V58.096C140.25 58.096 139.956 58.1007 139.62 58.11C139.293 58.1193 138.967 58.138 138.64 58.166C138.313 58.194 138.029 58.2407 137.786 58.306C137.319 58.446 136.895 58.6653 136.512 58.964C136.129 59.2627 135.803 59.608 135.532 60C135.261 60.392 135.051 60.8073 134.902 61.246C134.753 61.6753 134.678 62.1 134.678 62.52C134.678 63.024 134.767 63.4673 134.944 63.85C135.121 64.2327 135.364 64.5593 135.672 64.83C135.98 65.0913 136.33 65.3107 136.722 65.488C137.123 65.656 137.548 65.782 137.996 65.866C138.453 65.95 138.915 66.0013 139.382 66.02L138.864 67.504C138.313 67.4853 137.767 67.406 137.226 67.266C136.694 67.126 136.185 66.9347 135.7 66.692C135.224 66.44 134.799 66.132 134.426 65.768C134.062 65.3947 133.773 64.9653 133.558 64.48C133.353 63.9947 133.25 63.4393 133.25 62.814C133.25 62.114 133.367 61.4653 133.6 60.868C133.843 60.2707 134.146 59.7527 134.51 59.314C134.883 58.866 135.257 58.516 135.63 58.264C135.35 58.3013 135.005 58.3433 134.594 58.39C134.183 58.4273 133.74 58.474 133.264 58.53C132.797 58.5767 132.326 58.6327 131.85 58.698C131.374 58.754 130.921 58.8147 130.492 58.88C130.072 58.9453 129.708 59.0153 129.4 59.09L129.246 57.55ZM145.556 57.13C145.528 57.2607 145.505 57.4193 145.486 57.606C145.467 57.7927 145.449 57.9793 145.43 58.166C145.421 58.3527 145.416 58.5113 145.416 58.642C145.416 58.9313 145.416 59.2533 145.416 59.608C145.425 59.9627 145.435 60.3267 145.444 60.7C145.453 61.064 145.477 61.428 145.514 61.792C145.589 62.5293 145.701 63.1733 145.85 63.724C145.999 64.2747 146.191 64.704 146.424 65.012C146.657 65.32 146.928 65.474 147.236 65.474C147.413 65.474 147.581 65.39 147.74 65.222C147.899 65.054 148.048 64.83 148.188 64.55C148.328 64.27 148.454 63.9667 148.566 63.64C148.687 63.304 148.79 62.982 148.874 62.674L149.98 63.976C149.681 64.7693 149.383 65.404 149.084 65.88C148.795 66.3467 148.496 66.6827 148.188 66.888C147.88 67.0933 147.553 67.196 147.208 67.196C146.741 67.196 146.293 67.0373 145.864 66.72C145.444 66.3933 145.08 65.8613 144.772 65.124C144.464 64.3867 144.245 63.402 144.114 62.17C144.067 61.7593 144.03 61.316 144.002 60.84C143.983 60.364 143.969 59.9113 143.96 59.482C143.96 59.0527 143.96 58.698 143.96 58.418C143.96 58.2407 143.951 58.026 143.932 57.774C143.923 57.5127 143.895 57.2887 143.848 57.102L145.556 57.13ZM152.724 57.48C152.976 57.8067 153.219 58.1893 153.452 58.628C153.695 59.0573 153.914 59.524 154.11 60.028C154.306 60.532 154.479 61.0453 154.628 61.568C154.787 62.0907 154.917 62.6087 155.02 63.122C155.123 63.6353 155.193 64.1207 155.23 64.578L153.788 65.138C153.732 64.5313 153.639 63.8967 153.508 63.234C153.377 62.5713 153.209 61.918 153.004 61.274C152.799 60.6207 152.556 60.0093 152.276 59.44C152.005 58.8613 151.693 58.362 151.338 57.942L152.724 57.48ZM164.442 55.8C164.433 55.9307 164.419 56.0753 164.4 56.234C164.391 56.3833 164.381 56.556 164.372 56.752C164.363 56.9107 164.353 57.1393 164.344 57.438C164.344 57.7367 164.339 58.068 164.33 58.432C164.33 58.7867 164.33 59.146 164.33 59.51C164.33 59.8647 164.33 60.1913 164.33 60.49C164.33 60.9193 164.339 61.386 164.358 61.89C164.386 62.3847 164.414 62.8747 164.442 63.36C164.47 63.8453 164.493 64.2933 164.512 64.704C164.54 65.1147 164.554 65.4507 164.554 65.712C164.554 66.0667 164.465 66.398 164.288 66.706C164.111 67.014 163.831 67.2613 163.448 67.448C163.065 67.644 162.566 67.742 161.95 67.742C160.895 67.742 160.093 67.5507 159.542 67.168C158.991 66.7947 158.716 66.258 158.716 65.558C158.716 65.11 158.847 64.718 159.108 64.382C159.379 64.046 159.761 63.7847 160.256 63.598C160.76 63.402 161.357 63.304 162.048 63.304C162.795 63.304 163.495 63.388 164.148 63.556C164.811 63.724 165.413 63.9387 165.954 64.2C166.505 64.4613 166.99 64.7367 167.41 65.026C167.83 65.306 168.185 65.558 168.474 65.782L167.662 67.028C167.335 66.7293 166.967 66.426 166.556 66.118C166.145 65.81 165.693 65.53 165.198 65.278C164.703 65.026 164.176 64.8253 163.616 64.676C163.065 64.5267 162.482 64.452 161.866 64.452C161.269 64.452 160.811 64.5547 160.494 64.76C160.186 64.956 160.032 65.194 160.032 65.474C160.032 65.67 160.093 65.8473 160.214 66.006C160.345 66.1553 160.536 66.2767 160.788 66.37C161.04 66.454 161.367 66.496 161.768 66.496C162.029 66.496 162.263 66.4633 162.468 66.398C162.683 66.3327 162.851 66.2207 162.972 66.062C163.093 65.894 163.154 65.6607 163.154 65.362C163.154 65.1193 163.145 64.7927 163.126 64.382C163.107 63.9713 163.089 63.528 163.07 63.052C163.061 62.5667 163.047 62.1 163.028 61.652C163.009 61.1947 163 60.8073 163 60.49C163 60.1633 163 59.8273 163 59.482C163.009 59.1273 163.014 58.782 163.014 58.446C163.014 58.1007 163.014 57.7787 163.014 57.48C163.014 57.172 163.014 56.906 163.014 56.682C163.014 56.5607 163.009 56.4113 163 56.234C162.991 56.0473 162.972 55.9027 162.944 55.8H164.442ZM158.898 57.228C159.131 57.2653 159.402 57.3027 159.71 57.34C160.027 57.3773 160.349 57.4147 160.676 57.452C161.012 57.48 161.329 57.5033 161.628 57.522C161.927 57.5313 162.188 57.536 162.412 57.536C163.336 57.536 164.265 57.5033 165.198 57.438C166.131 57.3727 167.074 57.2607 168.026 57.102V58.39C167.522 58.446 166.962 58.502 166.346 58.558C165.73 58.614 165.086 58.6607 164.414 58.698C163.751 58.7353 163.089 58.754 162.426 58.754C162.118 58.754 161.745 58.74 161.306 58.712C160.877 58.684 160.447 58.6513 160.018 58.614C159.589 58.5767 159.22 58.5393 158.912 58.502L158.898 57.228ZM158.828 60.224C159.061 60.2613 159.332 60.2987 159.64 60.336C159.948 60.364 160.265 60.3873 160.592 60.406C160.919 60.4247 161.227 60.4433 161.516 60.462C161.815 60.4713 162.071 60.476 162.286 60.476C163.042 60.476 163.751 60.462 164.414 60.434C165.086 60.3967 165.73 60.35 166.346 60.294C166.971 60.2287 167.578 60.1587 168.166 60.084L168.152 61.386C167.676 61.4513 167.209 61.5073 166.752 61.554C166.295 61.5913 165.833 61.624 165.366 61.652C164.909 61.68 164.423 61.6987 163.91 61.708C163.406 61.7173 162.855 61.722 162.258 61.722C161.969 61.722 161.619 61.7173 161.208 61.708C160.797 61.6893 160.382 61.666 159.962 61.638C159.542 61.61 159.169 61.5773 158.842 61.54L158.828 60.224ZM180.44 56.122C180.431 56.1967 180.422 56.2993 180.412 56.43C180.403 56.5607 180.394 56.696 180.384 56.836C180.375 56.976 180.37 57.1067 180.37 57.228C180.361 57.5173 180.356 57.8113 180.356 58.11C180.356 58.4087 180.352 58.698 180.342 58.978C180.342 59.2487 180.338 59.5053 180.328 59.748C180.319 60.1213 180.305 60.5273 180.286 60.966C180.268 61.4047 180.244 61.8153 180.216 62.198C180.188 62.5807 180.151 62.8933 180.104 63.136C180.039 63.472 179.918 63.7007 179.74 63.822C179.563 63.934 179.306 63.99 178.97 63.99C178.802 63.99 178.588 63.9807 178.326 63.962C178.074 63.934 177.827 63.906 177.584 63.878C177.342 63.8407 177.15 63.808 177.01 63.78L177.038 62.562C177.272 62.6087 177.514 62.6507 177.766 62.688C178.028 62.7253 178.233 62.744 178.382 62.744C178.541 62.744 178.658 62.7207 178.732 62.674C178.816 62.6273 178.863 62.5293 178.872 62.38C178.91 62.2027 178.933 61.9693 178.942 61.68C178.961 61.3907 178.98 61.078 178.998 60.742C179.017 60.3967 179.026 60.0653 179.026 59.748C179.036 59.4867 179.04 59.2207 179.04 58.95C179.04 58.67 179.04 58.3853 179.04 58.096C179.04 57.8067 179.04 57.5313 179.04 57.27C179.04 57.158 179.031 57.032 179.012 56.892C179.003 56.7427 178.994 56.598 178.984 56.458C178.975 56.318 178.961 56.206 178.942 56.122H180.44ZM174.91 56.556C174.892 56.7427 174.873 56.9387 174.854 57.144C174.845 57.3493 174.84 57.578 174.84 57.83C174.84 58.1007 174.836 58.46 174.826 58.908C174.826 59.3467 174.822 59.8227 174.812 60.336C174.812 60.84 174.812 61.3393 174.812 61.834C174.812 62.3287 174.812 62.772 174.812 63.164C174.812 63.556 174.817 63.8593 174.826 64.074C174.836 64.438 174.859 64.7413 174.896 64.984C174.934 65.2267 175.027 65.418 175.176 65.558C175.326 65.698 175.559 65.8007 175.876 65.866C176.203 65.9313 176.646 65.964 177.206 65.964C177.692 65.964 178.196 65.95 178.718 65.922C179.241 65.8847 179.736 65.838 180.202 65.782C180.669 65.726 181.061 65.67 181.378 65.614L181.336 67.112C181.028 67.1493 180.646 67.182 180.188 67.21C179.731 67.2473 179.25 67.28 178.746 67.308C178.242 67.336 177.757 67.35 177.29 67.35C176.441 67.35 175.764 67.2987 175.26 67.196C174.756 67.0933 174.378 66.9253 174.126 66.692C173.874 66.4493 173.706 66.132 173.622 65.74C173.538 65.348 173.487 64.8627 173.468 64.284C173.468 64.0787 173.464 63.8033 173.454 63.458C173.454 63.1033 173.454 62.7067 173.454 62.268C173.454 61.82 173.454 61.3673 173.454 60.91C173.454 60.4527 173.454 60.0187 173.454 59.608C173.454 59.1973 173.454 58.8427 173.454 58.544C173.454 58.236 173.454 58.0213 173.454 57.9C173.454 57.648 173.445 57.4193 173.426 57.214C173.417 56.9993 173.394 56.78 173.356 56.556H174.91ZM170.514 59.818C170.72 59.818 170.958 59.8133 171.228 59.804C171.508 59.7853 171.798 59.762 172.096 59.734C172.395 59.706 172.824 59.664 173.384 59.608C173.944 59.552 174.579 59.4913 175.288 59.426C176.007 59.3607 176.749 59.2953 177.514 59.23C178.289 59.1553 179.036 59.09 179.754 59.034C180.473 58.978 181.112 58.9313 181.672 58.894C181.859 58.8847 182.06 58.8753 182.274 58.866C182.489 58.8473 182.69 58.8287 182.876 58.81V60.182C182.802 60.1727 182.69 60.1727 182.54 60.182C182.4 60.182 182.246 60.182 182.078 60.182C181.92 60.182 181.78 60.1867 181.658 60.196C181.294 60.196 180.846 60.2147 180.314 60.252C179.782 60.2893 179.213 60.336 178.606 60.392C178 60.4387 177.379 60.4947 176.744 60.56C176.11 60.616 175.498 60.6767 174.91 60.742C174.332 60.798 173.804 60.854 173.328 60.91C172.852 60.9567 172.474 60.9987 172.194 61.036C172.045 61.0547 171.872 61.078 171.676 61.106C171.49 61.1247 171.303 61.148 171.116 61.176C170.939 61.204 170.79 61.2273 170.668 61.246L170.514 59.818ZM191.836 56.598C191.771 56.6913 191.701 56.7987 191.626 56.92C191.552 57.032 191.472 57.1533 191.388 57.284C191.23 57.5267 191.043 57.83 190.828 58.194C190.614 58.5487 190.39 58.9313 190.156 59.342C189.923 59.7527 189.694 60.1587 189.47 60.56C189.246 60.9613 189.05 61.3253 188.882 61.652C189.181 61.4187 189.489 61.2507 189.806 61.148C190.133 61.036 190.446 60.98 190.744 60.98C191.239 60.98 191.636 61.134 191.934 61.442C192.242 61.7407 192.41 62.1747 192.438 62.744C192.448 62.9867 192.452 63.262 192.452 63.57C192.452 63.8687 192.452 64.1627 192.452 64.452C192.462 64.7413 192.476 64.9933 192.494 65.208C192.513 65.5347 192.62 65.768 192.816 65.908C193.022 66.0387 193.255 66.104 193.516 66.104C193.871 66.104 194.188 66.006 194.468 65.81C194.758 65.614 195.01 65.3527 195.224 65.026C195.448 64.69 195.635 64.326 195.784 63.934C195.943 63.5327 196.069 63.1313 196.162 62.73L197.338 63.696C197.096 64.4707 196.792 65.152 196.428 65.74C196.064 66.3187 195.626 66.7713 195.112 67.098C194.599 67.434 193.992 67.602 193.292 67.602C192.788 67.602 192.378 67.5087 192.06 67.322C191.752 67.1353 191.524 66.902 191.374 66.622C191.234 66.342 191.155 66.0527 191.136 65.754C191.118 65.4833 191.104 65.194 191.094 64.886C191.094 64.5687 191.09 64.2607 191.08 63.962C191.08 63.654 191.071 63.388 191.052 63.164C191.043 62.884 190.959 62.6693 190.8 62.52C190.642 62.3613 190.418 62.282 190.128 62.282C189.783 62.282 189.447 62.3847 189.12 62.59C188.803 62.7953 188.514 63.066 188.252 63.402C188 63.738 187.786 64.0927 187.608 64.466C187.506 64.6713 187.398 64.9187 187.286 65.208C187.174 65.488 187.062 65.782 186.95 66.09C186.848 66.3887 186.754 66.6733 186.67 66.944C186.586 67.2147 186.516 67.4387 186.46 67.616L184.92 67.098C185.098 66.622 185.317 66.0853 185.578 65.488C185.84 64.8813 186.129 64.2467 186.446 63.584C186.764 62.912 187.086 62.2493 187.412 61.596C187.739 60.9427 188.052 60.322 188.35 59.734C188.649 59.146 188.915 58.6327 189.148 58.194C189.382 57.7553 189.559 57.424 189.68 57.2C189.774 57.032 189.872 56.85 189.974 56.654C190.077 56.4487 190.175 56.22 190.268 55.968L191.836 56.598Z" fill="#6B7280"/>
</svg>
